<svg xmlns="http://www.w3.org/2000/svg" xmlns:xlink="http://www.w3.org/1999/xlink" width="1108" zoomAndPan="magnify" viewBox="0 0 830.88 510.750002" height="681" preserveAspectRatio="xMidYMid meet" version="1.0"><defs><g/><clipPath id="ed8d8a67a1"><path d="M 0.144531 0 L 827.019531 0 L 827.019531 510.378906 L 0.144531 510.378906 Z M 0.144531 0 " clip-rule="nonzero"/></clipPath><clipPath id="73cd2292e2"><path d="M 0.144531 0 L 826.988281 0 L 826.988281 510.371094 L 0.144531 510.371094 Z M 0.144531 0 " clip-rule="nonzero"/></clipPath><clipPath id="2e9f890385"><path d="M 36.90625 251.441406 L 225.8125 251.441406 L 225.8125 440.347656 L 36.90625 440.347656 Z M 36.90625 251.441406 " clip-rule="nonzero"/></clipPath><clipPath id="f519f84e57"><path d="M 397.425781 25.859375 L 436.40625 25.859375 L 436.40625 50.597656 L 397.425781 50.597656 Z M 397.425781 25.859375 " clip-rule="nonzero"/></clipPath></defs><g clip-path="url(#ed8d8a67a1)"><path fill="#ffffff" d="M 0.144531 0 L 827.515625 0 L 827.515625 510.378906 L 0.144531 510.378906 Z M 0.144531 0 " fill-opacity="1" fill-rule="nonzero"/></g><g clip-path="url(#73cd2292e2)"><path stroke-linecap="butt" transform="matrix(0.749633, 0, 0, 0.749633, 0.144139, 0.0000199902)" fill="none" stroke-linejoin="miter" d="M 0.000522605 -0.0000266667 L 1103.029719 -0.0000266667 L 1103.029719 680.827833 L 0.000522605 680.827833 Z M 0.000522605 -0.0000266667 " stroke="#ed1c24" stroke-width="8" stroke-opacity="1" stroke-miterlimit="4"/></g><g clip-path="url(#2e9f890385)"><path fill="#ed1c24" d="M 126.511719 251.59375 C 96.707031 253.128906 69.453125 268.628906 52.832031 293.472656 C 37.929688 315.757812 33.25 343.25 39.882812 369.34375 C 40.214844 370.65625 40.726562 372.484375 41.019531 373.414062 L 41.546875 375.101562 L 61.003906 375.132812 C 78.773438 375.144531 80.558594 375.132812 81.570312 374.910156 C 84.4375 374.3125 86.613281 373.179688 88.414062 371.351562 C 89.601562 370.160156 89.851562 369.757812 91.25 366.738281 C 91.929688 365.285156 93.371094 362.265625 94.464844 360.019531 C 95.542969 357.777344 96.820312 355.035156 97.289062 353.925781 C 98.164062 351.878906 100.335938 346.101562 101.179688 343.625 C 101.625 342.292969 101.652344 342.265625 101.859375 342.585938 C 102.414062 343.429688 108.148438 351.421875 110.101562 354.066406 C 111.304688 355.699219 113.464844 358.800781 114.894531 360.949219 C 118.132812 365.839844 118.894531 366.835938 121.234375 369.160156 C 123.230469 371.140625 124.128906 371.78125 126.097656 372.582031 C 127.453125 373.152344 128.574219 373.425781 130.375 373.664062 C 131.636719 373.828125 132.050781 373.828125 133.339844 373.664062 C 135.292969 373.414062 136.679688 373.011719 138.285156 372.265625 C 139.933594 371.488281 141.207031 370.503906 142.910156 368.746094 C 144.722656 366.847656 145.820312 365.410156 148.808594 360.921875 C 150.222656 358.789062 152.257812 355.851562 153.324219 354.410156 C 155.417969 351.585938 160.054688 345.117188 161.261719 343.359375 L 162.007812 342.28125 L 163.214844 345.671875 C 165.277344 351.421875 166.925781 355.394531 168.78125 359.121094 C 169.308594 360.1875 170.652344 362.984375 171.757812 365.351562 C 174.015625 370.144531 174.445312 370.808594 176.273438 372.277344 C 177.964844 373.636719 179.984375 374.523438 182.464844 374.992188 C 183.144531 375.117188 185.953125 375.160156 193.765625 375.132812 C 199.5 375.101562 204.207031 375.144531 204.25 375.214844 C 204.332031 375.351562 203.015625 378.371094 201.785156 380.863281 C 199.113281 386.292969 195.136719 392.277344 191.050781 397.070312 C 189.097656 399.339844 184.457031 403.953125 182.1875 405.863281 C 172.9375 413.648438 162.550781 419.046875 151.09375 421.996094 C 136.679688 425.738281 121.386719 425.292969 107.234375 420.738281 C 97.496094 417.59375 88.566406 412.621094 80.53125 405.863281 C 78.136719 403.839844 73.414062 399.117188 71.390625 396.722656 C 70.519531 395.699219 69.105469 393.898438 68.234375 392.734375 L 66.667969 390.628906 L 57.445312 390.628906 C 49.066406 390.628906 48.234375 390.640625 48.316406 390.851562 C 48.554688 391.460938 50.851562 395.296875 52.375 397.621094 C 64.4375 415.960938 82.207031 429.40625 103.050781 435.984375 C 116.304688 440.167969 130.832031 441.34375 144.722656 439.378906 C 169.558594 435.832031 191.953125 422.539062 207.019531 402.371094 C 215.964844 390.40625 222.03125 376.28125 224.429688 361.820312 C 224.582031 360.867188 224.746094 359.925781 224.789062 359.714844 L 224.871094 359.328125 L 207.78125 359.300781 L 190.703125 359.257812 L 189.695312 357.527344 C 188.449219 355.382812 185.925781 350.3125 184.886719 347.847656 C 182.867188 343.054688 181.246094 338.414062 179.429688 332.183594 C 177.894531 326.878906 177.144531 324.855469 176.136719 323.125 C 173.242188 318.183594 168.046875 315.910156 161.34375 316.671875 C 157.660156 317.101562 154.808594 318.335938 152.660156 320.4375 L 151.578125 321.492188 L 149.324219 326.046875 C 148.074219 328.542969 146.664062 331.269531 146.179688 332.113281 C 143.492188 336.753906 139.988281 342.292969 137.136719 346.378906 C 135.734375 348.386719 131.925781 353.511719 131.84375 353.511719 C 131.734375 353.511719 127.757812 348.136719 126.070312 345.6875 C 121.097656 338.5 117.359375 332.226562 114.242188 325.855469 C 112.816406 322.917969 112.082031 321.574219 111.625 321.035156 C 110.265625 319.457031 107.871094 317.972656 105.585938 317.308594 C 103.578125 316.742188 102.484375 316.601562 99.851562 316.617188 C 97 316.617188 95.574219 316.878906 93.660156 317.695312 C 91.945312 318.429688 91.113281 319 89.796875 320.273438 C 87.347656 322.667969 86.433594 324.648438 84.132812 332.53125 C 81.042969 343.109375 77.96875 350.601562 73.648438 358.082031 L 72.96875 359.257812 L 63.414062 359.300781 L 53.84375 359.328125 L 53.539062 357.152344 C 52.652344 350.632812 52.5 345.382812 53.054688 338.96875 C 54.46875 322.363281 61.171875 306.742188 72.320312 294.015625 C 84.964844 279.554688 102.59375 270.234375 121.734375 267.867188 C 125.085938 267.449219 127.355469 267.328125 131.359375 267.328125 C 138.324219 267.328125 144.046875 268.019531 150.570312 269.652344 C 178.335938 276.621094 200.289062 298.417969 207.460938 326.160156 C 208.929688 331.824219 209.691406 337.183594 209.96875 343.707031 L 210.050781 346.03125 L 225.8125 346.03125 L 225.8125 345.214844 C 225.8125 343.679688 225.535156 338.75 225.316406 336.617188 C 222.960938 312.710938 211.742188 290.882812 193.613281 274.902344 C 183.238281 265.761719 170.691406 258.917969 157.1875 255.054688 C 147.507812 252.273438 136.761719 251.066406 126.511719 251.59375 Z M 126.511719 251.59375 " fill-opacity="1" fill-rule="nonzero"/></g><g fill="#000000" fill-opacity="1"><g transform="translate(241.245719, 346.257666)"><g><path d="M 39.125 -14.109375 L 37.109375 -8.140625 L 35.09375 -14.109375 L 18.140625 -59.78125 L 7.140625 -59.78125 L 7.140625 0 L 14.265625 0 L 14.265625 -39.625 L 14.015625 -50.453125 L 17.96875 -41.046875 L 33.40625 0 L 40.796875 0 L 55.078125 -39.703125 L 59.359375 -50.375 L 59.1875 -39.625 L 59.1875 0 L 66.328125 0 L 66.328125 -59.78125 L 55.5 -59.78125 Z M 39.125 -14.109375 "/></g></g></g><g fill="#000000" fill-opacity="1"><g transform="translate(308.412831, 346.257666)"><g><path d="M 57.59375 0 L 34.5 -59.78125 L 25.6875 -59.78125 L 2.515625 0 L 10.828125 0 L 17.296875 -17.546875 L 42.640625 -17.546875 L 48.9375 0 Z M 28.125 -47.015625 L 30.140625 -53.21875 L 32.0625 -47.015625 L 40.21875 -24.34375 L 19.8125 -24.34375 Z M 28.125 -47.015625 "/></g></g></g><g fill="#000000" fill-opacity="1"><g transform="translate(362.230479, 346.257666)"><g><path d="M 51.625 -19.0625 C 51.046875 -24.59375 47.6875 -28.046875 42.484375 -29.046875 C 48.78125 -30.8125 53.140625 -36.265625 53.140625 -43.984375 C 53.140625 -53.5625 46.265625 -59.78125 34.84375 -59.78125 L 7.140625 -59.78125 L 7.140625 0 L 14.9375 0 L 14.9375 -25.78125 L 33.40625 -25.78125 C 40.375 -25.78125 43.40625 -23 44.15625 -15.953125 L 45.921875 0 L 53.8125 0 Z M 14.9375 -32.578125 L 14.9375 -52.96875 L 33.5 -52.96875 C 41.046875 -52.96875 45.171875 -49.53125 45.171875 -43.234375 C 45.171875 -36.4375 40.296875 -32.578125 32.15625 -32.578125 Z M 14.9375 -32.578125 "/></g></g></g><g fill="#000000" fill-opacity="1"><g transform="translate(416.048132, 346.257666)"><g><path d="M 55.75 -59.78125 L 45.328125 -59.78125 L 14.9375 -30.46875 L 14.9375 -59.78125 L 7.140625 -59.78125 L 7.140625 0 L 14.9375 0 L 14.9375 -20.90625 L 25.015625 -30.734375 L 32.65625 -20.3125 L 47.6875 0 L 57.421875 0 L 30.46875 -35.6875 Z M 55.75 -59.78125 "/></g></g></g><g fill="#000000" fill-opacity="1"><g transform="translate(469.708117, 346.257666)"><g/></g></g><g fill="#000000" fill-opacity="1"><g transform="translate(486.080097, 346.257666)"><g/></g></g><g fill="#000000" fill-opacity="1"><g transform="translate(502.457712, 346.257666)"><g><path d="M 27.453125 -59.78125 L 7.140625 -59.78125 L 7.140625 0 L 25.78125 0 C 46 0 54.984375 -11.84375 54.984375 -29.890625 C 54.984375 -48.265625 46.34375 -59.78125 27.453125 -59.78125 Z M 14.9375 -6.796875 L 14.9375 -52.96875 L 25.4375 -52.96875 C 40.296875 -52.96875 47.015625 -45.75 47.015625 -29.890625 C 47.015625 -14.359375 40.640625 -6.796875 25.015625 -6.796875 Z M 14.9375 -6.796875 "/></g></g></g><g fill="#000000" fill-opacity="1"><g transform="translate(556.023484, 346.257666)"><g><path d="M 14.9375 -27.375 L 46.765625 -27.375 L 46.765625 -34.171875 L 14.9375 -34.171875 L 14.9375 -52.96875 L 49.453125 -52.96875 L 49.453125 -59.78125 L 7.140625 -59.78125 L 7.140625 0 L 50.203125 0 L 50.203125 -6.796875 L 14.9375 -6.796875 Z M 14.9375 -27.375 "/></g></g></g><g fill="#000000" fill-opacity="1"><g transform="translate(605.391317, 346.257666)"><g><path d="M 32.40625 1.421875 C 46.421875 1.421875 55.65625 -7.390625 57.671875 -21.75 L 49.953125 -21.75 C 48.53125 -11 42.0625 -5.546875 32.65625 -5.546875 C 20.484375 -5.546875 13.34375 -14.9375 13.34375 -29.890625 C 13.34375 -44.828125 20.5625 -53.890625 32.65625 -53.890625 C 40.890625 -53.890625 47.09375 -49.609375 48.9375 -41.71875 L 56.921875 -41.71875 C 55.078125 -53.484375 44.828125 -60.859375 32.328125 -60.859375 C 15.859375 -60.859375 5.375 -48.1875 5.375 -29.890625 C 5.375 -11.75 15.609375 1.421875 32.40625 1.421875 Z M 32.40625 1.421875 "/></g></g></g><g fill="#000000" fill-opacity="1"><g transform="translate(660.552307, 346.257666)"><g><path d="M 33.578125 1.421875 C 50.375 1.421875 61.875 -11.421875 61.875 -29.890625 C 61.875 -48.015625 50.375 -60.859375 33.578125 -60.859375 C 16.875 -60.859375 5.375 -48.015625 5.375 -29.890625 C 5.375 -11.578125 16.875 1.421875 33.578125 1.421875 Z M 33.671875 -5.546875 C 21.75 -5.546875 13.34375 -15.03125 13.34375 -29.890625 C 13.34375 -44.578125 21.75 -53.890625 33.671875 -53.890625 C 45.5 -53.890625 53.890625 -44.578125 53.890625 -29.890625 C 53.890625 -14.859375 45.671875 -5.546875 33.671875 -5.546875 Z M 33.671875 -5.546875 "/></g></g></g><g fill="#000000" fill-opacity="1"><g transform="translate(721.506458, 346.257666)"><g><path d="M 51.625 -19.0625 C 51.046875 -24.59375 47.6875 -28.046875 42.484375 -29.046875 C 48.78125 -30.8125 53.140625 -36.265625 53.140625 -43.984375 C 53.140625 -53.5625 46.265625 -59.78125 34.84375 -59.78125 L 7.140625 -59.78125 L 7.140625 0 L 14.9375 0 L 14.9375 -25.78125 L 33.40625 -25.78125 C 40.375 -25.78125 43.40625 -23 44.15625 -15.953125 L 45.921875 0 L 53.8125 0 Z M 14.9375 -32.578125 L 14.9375 -52.96875 L 33.5 -52.96875 C 41.046875 -52.96875 45.171875 -49.53125 45.171875 -43.234375 C 45.171875 -36.4375 40.296875 -32.578125 32.15625 -32.578125 Z M 14.9375 -32.578125 "/></g></g></g><g fill="#000000" fill-opacity="1"><g transform="translate(243.618217, 403.174929)"><g><path d="M 20.828125 -39.234375 L 4.6875 -39.234375 L 4.6875 0 L 9.8125 0 L 9.8125 -16.359375 L 20.71875 -16.359375 C 28.3125 -16.359375 33.4375 -20.21875 33.4375 -27.984375 C 33.4375 -35.484375 28.421875 -39.234375 20.828125 -39.234375 Z M 9.8125 -20.828125 L 9.8125 -34.765625 L 20.546875 -34.765625 C 25.390625 -34.765625 28.3125 -32.609375 28.3125 -27.9375 C 28.3125 -23.296875 25.515625 -20.828125 20.828125 -20.828125 Z M 9.8125 -20.828125 "/></g></g></g><g fill="#000000" fill-opacity="1"><g transform="translate(275.292391, 403.174929)"><g><path d="M 17.90625 -29.203125 C 13.609375 -29.203125 10.859375 -26.78125 9.140625 -22.96875 L 9.140625 -28.421875 L 4.40625 -28.421875 L 4.40625 0 L 9.46875 0 L 9.46875 -15.53125 C 9.703125 -21.328125 13.890625 -24.234375 17.625 -24.234375 C 18.125 -24.234375 18.671875 -24.234375 19.453125 -24.1875 L 19.453125 -29.09375 C 18.953125 -29.140625 18.453125 -29.203125 17.90625 -29.203125 Z M 17.90625 -29.203125 "/></g></g></g><g fill="#000000" fill-opacity="1"><g transform="translate(291.432212, 403.174929)"><g><path d="M 29.140625 -14.875 C 29.140625 -23.75 24.125 -29.09375 16.140625 -29.09375 C 7.65625 -29.09375 2.75 -23.03125 2.75 -14.328125 C 2.75 -5.5625 7.765625 0.65625 16.25 0.65625 C 22.3125 0.65625 26.9375 -2.53125 28.765625 -8.09375 L 24.125 -8.65625 C 22.8125 -5.34375 20.390625 -3.46875 16.421875 -3.46875 C 11.296875 -3.46875 7.984375 -6.609375 7.828125 -13 L 29.140625 -13 Z M 16.203125 -24.953125 C 20.828125 -24.953125 23.75 -22.03125 24.40625 -16.640625 L 7.875 -16.640625 C 8.375 -22.203125 11.6875 -24.953125 16.203125 -24.953125 Z M 16.203125 -24.953125 "/></g></g></g><g fill="#000000" fill-opacity="1"><g transform="translate(319.195259, 403.174929)"><g><path d="M 34.59375 -29.140625 C 30.46875 -29.140625 27.4375 -27.484375 25.5625 -24.1875 C 24.296875 -27.4375 21.546875 -29.140625 17.6875 -29.140625 C 13.78125 -29.140625 11.015625 -27.4375 9.140625 -24.40625 L 9.140625 -28.421875 L 4.40625 -28.421875 L 4.40625 0 L 9.46875 0 L 9.46875 -15.15625 C 9.46875 -22.484375 13.109375 -24.734375 16.421875 -24.734375 C 19.5625 -24.734375 21.328125 -22.75 21.328125 -19.453125 L 21.328125 0 L 26.390625 0 L 26.390625 -15.421875 C 26.390625 -22.75 30.03125 -24.734375 33.328125 -24.734375 C 36.46875 -24.734375 38.234375 -22.75 38.234375 -19.453125 L 38.234375 0 L 43.296875 0 L 43.296875 -19.5 C 43.296875 -26.109375 40.15625 -29.140625 34.59375 -29.140625 Z M 34.59375 -29.140625 "/></g></g></g><g fill="#000000" fill-opacity="1"><g transform="translate(362.768083, 403.174929)"><g><path d="M 9.46875 -33.765625 L 9.46875 -39.234375 L 4.40625 -39.234375 L 4.40625 -33.765625 Z M 9.46875 0 L 9.46875 -28.421875 L 4.40625 -28.421875 L 4.40625 0 Z M 9.46875 0 "/></g></g></g><g fill="#000000" fill-opacity="1"><g transform="translate(372.517889, 403.174929)"><g><path d="M 23.25 -12.609375 C 23.25 -5.84375 19.0625 -3.6875 15.15625 -3.6875 C 11.296875 -3.6875 9.46875 -5.78125 9.46875 -9.703125 L 9.46875 -28.421875 L 4.40625 -28.421875 L 4.40625 -8.703125 C 4.40625 -2.703125 8.09375 0.71875 14.046875 0.71875 C 18.234375 0.71875 21.65625 -0.984375 23.578125 -4.015625 L 23.578125 0 L 28.3125 0 L 28.3125 -28.421875 L 23.25 -28.421875 Z M 23.25 -12.609375 "/></g></g></g><g fill="#000000" fill-opacity="1"><g transform="translate(401.107224, 403.174929)"><g><path d="M 34.59375 -29.140625 C 30.46875 -29.140625 27.4375 -27.484375 25.5625 -24.1875 C 24.296875 -27.4375 21.546875 -29.140625 17.6875 -29.140625 C 13.78125 -29.140625 11.015625 -27.4375 9.140625 -24.40625 L 9.140625 -28.421875 L 4.40625 -28.421875 L 4.40625 0 L 9.46875 0 L 9.46875 -15.15625 C 9.46875 -22.484375 13.109375 -24.734375 16.421875 -24.734375 C 19.5625 -24.734375 21.328125 -22.75 21.328125 -19.453125 L 21.328125 0 L 26.390625 0 L 26.390625 -15.421875 C 26.390625 -22.75 30.03125 -24.734375 33.328125 -24.734375 C 36.46875 -24.734375 38.234375 -22.75 38.234375 -19.453125 L 38.234375 0 L 43.296875 0 L 43.296875 -19.5 C 43.296875 -26.109375 40.15625 -29.140625 34.59375 -29.140625 Z M 34.59375 -29.140625 "/></g></g></g><g fill="#000000" fill-opacity="1"><g transform="translate(444.683872, 403.174929)"><g/></g></g><g fill="#000000" fill-opacity="1"><g transform="translate(455.425226, 403.174929)"><g/></g></g><g fill="#000000" fill-opacity="1"><g transform="translate(466.177254, 403.174929)"><g><path d="M 18.84375 0.828125 C 29.703125 0.828125 34 -4.578125 34 -10.796875 C 34 -16.90625 30.03125 -20.390625 22.75 -21.921875 L 15.859375 -23.421875 C 10.96875 -24.46875 9.03125 -26.21875 9.03125 -29.3125 C 9.03125 -33.4375 12.34375 -35.8125 17.953125 -35.8125 C 23.96875 -35.8125 27.4375 -33.171875 27.875 -28.203125 L 32.78125 -28.203125 C 32.125 -35.75 26.828125 -40 18.125 -40 C 9.09375 -40 4.1875 -35.484375 4.1875 -28.875 C 4.1875 -22.640625 8.8125 -20 15.203125 -18.671875 L 20.71875 -17.515625 C 26.828125 -16.25 29.03125 -14.21875 29.03125 -10.515625 C 29.03125 -6.109375 25.734375 -3.359375 19 -3.359375 C 12.234375 -3.359375 8.265625 -6.171875 7.71875 -12.671875 L 2.8125 -12.671875 C 3.46875 -3.640625 9.03125 0.828125 18.84375 0.828125 Z M 18.84375 0.828125 "/></g></g></g><g fill="#000000" fill-opacity="1"><g transform="translate(498.842986, 403.174929)"><g><path d="M 16.421875 0.71875 C 24.40625 0.71875 30.140625 -5.515625 30.140625 -14.4375 C 30.140625 -23.46875 24.515625 -29.140625 16.578125 -29.140625 C 8.421875 -29.140625 2.75 -23.359375 2.75 -14.21875 C 2.75 -5.28125 8.265625 0.71875 16.421875 0.71875 Z M 16.421875 -3.53125 C 11.078125 -3.53125 7.828125 -7.765625 7.828125 -14.21875 C 7.828125 -20.65625 11.015625 -24.90625 16.421875 -24.90625 C 21.921875 -24.90625 25.0625 -20.875 25.0625 -14.4375 C 25.0625 -7.984375 21.921875 -3.53125 16.421875 -3.53125 Z M 16.421875 -3.53125 "/></g></g></g><g fill="#000000" fill-opacity="1"><g transform="translate(527.597576, 403.174929)"><g><path d="M 9.46875 0 L 9.46875 -39.234375 L 4.40625 -39.234375 L 4.40625 0 Z M 9.46875 0 "/></g></g></g><g fill="#000000" fill-opacity="1"><g transform="translate(537.347387, 403.174929)"><g><path d="M 9.46875 -33.765625 L 9.46875 -39.234375 L 4.40625 -39.234375 L 4.40625 -33.765625 Z M 9.46875 0 L 9.46875 -28.421875 L 4.40625 -28.421875 L 4.40625 0 Z M 9.46875 0 "/></g></g></g><g fill="#000000" fill-opacity="1"><g transform="translate(547.097193, 403.174929)"><g><path d="M 23.640625 -25.015625 C 21.8125 -27.484375 18.734375 -29.03125 15.046875 -29.03125 C 7.828125 -29.03125 2.75 -23.25 2.75 -14.65625 C 2.75 -5.84375 7.4375 0.609375 15.15625 0.609375 C 19.28125 0.609375 22.59375 -1.546875 24.296875 -4.515625 L 24.296875 0 L 28.703125 0 L 28.703125 -39.234375 L 23.640625 -39.234375 Z M 15.640625 -3.75 C 10.75 -3.75 7.828125 -8.046875 7.828125 -14.65625 C 7.828125 -21.15625 10.859375 -24.6875 15.75 -24.6875 C 20.5 -24.6875 23.90625 -21.265625 23.90625 -14.546875 C 23.90625 -7.828125 20.390625 -3.75 15.640625 -3.75 Z M 15.640625 -3.75 "/></g></g></g><g fill="#000000" fill-opacity="1"><g transform="translate(576.080497, 403.174929)"><g/></g></g><g fill="#000000" fill-opacity="1"><g transform="translate(586.821851, 403.174929)"><g/></g></g><g fill="#000000" fill-opacity="1"><g transform="translate(597.57388, 403.174929)"><g><path d="M 18.84375 0.828125 C 29.703125 0.828125 34 -4.578125 34 -10.796875 C 34 -16.90625 30.03125 -20.390625 22.75 -21.921875 L 15.859375 -23.421875 C 10.96875 -24.46875 9.03125 -26.21875 9.03125 -29.3125 C 9.03125 -33.4375 12.34375 -35.8125 17.953125 -35.8125 C 23.96875 -35.8125 27.4375 -33.171875 27.875 -28.203125 L 32.78125 -28.203125 C 32.125 -35.75 26.828125 -40 18.125 -40 C 9.09375 -40 4.1875 -35.484375 4.1875 -28.875 C 4.1875 -22.640625 8.8125 -20 15.203125 -18.671875 L 20.71875 -17.515625 C 26.828125 -16.25 29.03125 -14.21875 29.03125 -10.515625 C 29.03125 -6.109375 25.734375 -3.359375 19 -3.359375 C 12.234375 -3.359375 8.265625 -6.171875 7.71875 -12.671875 L 2.8125 -12.671875 C 3.46875 -3.640625 9.03125 0.828125 18.84375 0.828125 Z M 18.84375 0.828125 "/></g></g></g><g fill="#000000" fill-opacity="1"><g transform="translate(630.239611, 403.174929)"><g><path d="M 23.25 -12.609375 C 23.25 -5.84375 19.0625 -3.6875 15.15625 -3.6875 C 11.296875 -3.6875 9.46875 -5.78125 9.46875 -9.703125 L 9.46875 -28.421875 L 4.40625 -28.421875 L 4.40625 -8.703125 C 4.40625 -2.703125 8.09375 0.71875 14.046875 0.71875 C 18.234375 0.71875 21.65625 -0.984375 23.578125 -4.015625 L 23.578125 0 L 28.3125 0 L 28.3125 -28.421875 L 23.25 -28.421875 Z M 23.25 -12.609375 "/></g></g></g><g fill="#000000" fill-opacity="1"><g transform="translate(658.828949, 403.174929)"><g><path d="M 17.90625 -29.203125 C 13.609375 -29.203125 10.859375 -26.78125 9.140625 -22.96875 L 9.140625 -28.421875 L 4.40625 -28.421875 L 4.40625 0 L 9.46875 0 L 9.46875 -15.53125 C 9.703125 -21.328125 13.890625 -24.234375 17.625 -24.234375 C 18.125 -24.234375 18.671875 -24.234375 19.453125 -24.1875 L 19.453125 -29.09375 C 18.953125 -29.140625 18.453125 -29.203125 17.90625 -29.203125 Z M 17.90625 -29.203125 "/></g></g></g><g fill="#000000" fill-opacity="1"><g transform="translate(674.968772, 403.174929)"><g><path d="M 18.34375 -34.984375 L 18.34375 -39.234375 L 15.3125 -39.234375 C 9.359375 -39.234375 6.78125 -36.640625 6.78125 -30.6875 L 6.78125 -28.265625 L 2.203125 -28.421875 L 2.203125 -24.515625 L 6.78125 -24.734375 L 6.78125 0 L 11.84375 0 L 11.84375 -24.734375 L 18.34375 -24.515625 L 18.34375 -28.421875 L 11.84375 -28.203125 L 11.84375 -31.40625 C 11.84375 -34.109375 12.734375 -34.984375 15.421875 -34.984375 Z M 18.34375 -34.984375 "/></g></g></g><g fill="#000000" fill-opacity="1"><g transform="translate(690.557722, 403.174929)"><g><path d="M 29.46875 -3.75 C 27.609375 -3.75 27 -4.359375 27 -6.21875 L 27 -20.109375 C 27 -26.328125 22.921875 -29.203125 15.859375 -29.203125 C 8.546875 -29.203125 4.515625 -26.21875 4.015625 -19.9375 L 9.03125 -19.9375 C 9.359375 -23.75 11.40625 -25.015625 15.484375 -25.015625 C 19.890625 -25.015625 21.875 -23.578125 21.875 -20.609375 L 21.875 -19.5 C 21.875 -18.1875 21.21875 -17.515625 19.828125 -17.359375 L 12.5625 -16.421875 C 5.671875 -15.53125 2.859375 -12.234375 2.859375 -7.546875 C 2.859375 -2.3125 6.609375 0.71875 12.390625 0.71875 C 17.25 0.71875 20.875 -1.4375 22.703125 -4.1875 C 22.921875 -1.375 24.578125 0 27.609375 0 L 30.296875 0 L 30.296875 -3.75 Z M 13.328125 -3.203125 C 10.03125 -3.203125 7.875 -4.84375 7.875 -7.765625 C 7.875 -10.296875 9.421875 -12.0625 13.390625 -12.671875 L 21.875 -13.9375 L 21.875 -9.96875 C 21.875 -6.328125 17.90625 -3.203125 13.328125 -3.203125 Z M 13.328125 -3.203125 "/></g></g></g><g fill="#000000" fill-opacity="1"><g transform="translate(717.824986, 403.174929)"><g><path d="M 15.921875 0.71875 C 23.078125 0.71875 27.21875 -3.25 28.203125 -9.921875 L 23.46875 -9.921875 C 22.703125 -5.890625 20.390625 -3.53125 16.203125 -3.53125 C 10.796875 -3.53125 7.828125 -7.5 7.828125 -14.21875 C 7.828125 -20.9375 10.515625 -24.90625 16.25 -24.90625 C 20.21875 -24.90625 22.640625 -22.96875 23.421875 -19.125 L 28.203125 -19.125 C 27.21875 -25.671875 22.75 -29.140625 16.203125 -29.140625 C 7.984375 -29.140625 2.75 -23.578125 2.75 -14 C 2.75 -4.40625 7.984375 0.71875 15.921875 0.71875 Z M 15.921875 0.71875 "/></g></g></g><g fill="#000000" fill-opacity="1"><g transform="translate(744.37612, 403.174929)"><g><path d="M 29.140625 -14.875 C 29.140625 -23.75 24.125 -29.09375 16.140625 -29.09375 C 7.65625 -29.09375 2.75 -23.03125 2.75 -14.328125 C 2.75 -5.5625 7.765625 0.65625 16.25 0.65625 C 22.3125 0.65625 26.9375 -2.53125 28.765625 -8.09375 L 24.125 -8.65625 C 22.8125 -5.34375 20.390625 -3.46875 16.421875 -3.46875 C 11.296875 -3.46875 7.984375 -6.609375 7.828125 -13 L 29.140625 -13 Z M 16.203125 -24.953125 C 20.828125 -24.953125 23.75 -22.03125 24.40625 -16.640625 L 7.875 -16.640625 C 8.375 -22.203125 11.6875 -24.953125 16.203125 -24.953125 Z M 16.203125 -24.953125 "/></g></g></g><g clip-path="url(#f519f84e57)"><path fill="#000000" d="M 416.917969 25.867188 L 397.425781 50.585938 L 403.5 50.585938 L 416.917969 33.554688 L 430.351562 50.585938 L 436.40625 50.585938 Z M 416.917969 25.867188 " fill-opacity="1" fill-rule="nonzero"/></g><g fill="#000000" fill-opacity="1"><g transform="translate(196.672188, 96.029803)"><g><path d="M 18.515625 0.8125 C 26.53125 0.8125 31.796875 -4.21875 32.953125 -12.421875 L 28.546875 -12.421875 C 27.71875 -6.28125 24.03125 -3.171875 18.65625 -3.171875 C 11.703125 -3.171875 7.625 -8.53125 7.625 -17.078125 C 7.625 -25.609375 11.75 -30.796875 18.65625 -30.796875 C 23.359375 -30.796875 26.90625 -28.34375 27.96875 -23.84375 L 32.515625 -23.84375 C 31.46875 -30.5625 25.609375 -34.78125 18.46875 -34.78125 C 9.0625 -34.78125 3.0625 -27.53125 3.0625 -17.078125 C 3.0625 -6.71875 8.921875 0.8125 18.515625 0.8125 Z M 18.515625 0.8125 "/></g></g></g><g fill="#000000" fill-opacity="1"><g transform="translate(231.790936, 96.029803)"><g><path d="M 14.296875 0.625 C 21.25 0.625 26.234375 -4.796875 26.234375 -12.5625 C 26.234375 -20.4375 21.34375 -25.375 14.4375 -25.375 C 7.34375 -25.375 2.40625 -20.34375 2.40625 -12.375 C 2.40625 -4.609375 7.203125 0.625 14.296875 0.625 Z M 14.296875 -3.0625 C 9.640625 -3.0625 6.8125 -6.765625 6.8125 -12.375 C 6.8125 -17.984375 9.59375 -21.6875 14.296875 -21.6875 C 19.09375 -21.6875 21.828125 -18.1875 21.828125 -12.5625 C 21.828125 -6.953125 19.09375 -3.0625 14.296875 -3.0625 Z M 14.296875 -3.0625 "/></g></g></g><g fill="#000000" fill-opacity="1"><g transform="translate(260.432867, 96.029803)"><g><path d="M 30.125 -25.375 C 26.53125 -25.375 23.890625 -23.9375 22.25 -21.0625 C 21.15625 -23.890625 18.75 -25.375 15.390625 -25.375 C 12 -25.375 9.59375 -23.890625 7.96875 -21.25 L 7.96875 -24.75 L 3.84375 -24.75 L 3.84375 0 L 8.25 0 L 8.25 -13.1875 C 8.25 -19.578125 11.421875 -21.53125 14.296875 -21.53125 C 17.03125 -21.53125 18.5625 -19.8125 18.5625 -16.9375 L 18.5625 0 L 22.984375 0 L 22.984375 -13.4375 C 22.984375 -19.8125 26.140625 -21.53125 29.015625 -21.53125 C 31.75 -21.53125 33.296875 -19.8125 33.296875 -16.9375 L 33.296875 0 L 37.703125 0 L 37.703125 -16.984375 C 37.703125 -22.734375 34.96875 -25.375 30.125 -25.375 Z M 30.125 -25.375 "/></g></g></g><g fill="#000000" fill-opacity="1"><g transform="translate(301.980459, 96.029803)"><g><path d="M 15.78125 -25.28125 C 12.140625 -25.28125 9.109375 -23.5 7.671875 -20.765625 L 7.671875 -24.75 L 3.84375 -24.75 L 3.84375 9.78125 L 8.25 9.78125 L 8.25 -3.015625 C 9.828125 -0.90625 12.421875 0.53125 15.59375 0.53125 C 22.3125 0.53125 26.4375 -5.28125 26.4375 -12.953125 C 26.4375 -20.4375 22.0625 -25.28125 15.78125 -25.28125 Z M 15.15625 -3.265625 C 11.03125 -3.265625 8.015625 -6.8125 8.015625 -12.65625 C 8.015625 -18.515625 11.03125 -21.484375 15.15625 -21.484375 C 19.421875 -21.484375 22.015625 -18.609375 22.015625 -12.953125 C 22.015625 -7.203125 19.421875 -3.265625 15.15625 -3.265625 Z M 15.15625 -3.265625 "/></g></g></g><g fill="#000000" fill-opacity="1"><g transform="translate(330.814293, 96.029803)"><g><path d="M 25.65625 -3.265625 C 24.03125 -3.265625 23.5 -3.796875 23.5 -5.421875 L 23.5 -17.515625 C 23.5 -22.921875 19.953125 -25.421875 13.8125 -25.421875 C 7.4375 -25.421875 3.9375 -22.828125 3.5 -17.359375 L 7.859375 -17.359375 C 8.15625 -20.671875 9.921875 -21.78125 13.484375 -21.78125 C 17.3125 -21.78125 19.046875 -20.53125 19.046875 -17.9375 L 19.046875 -16.984375 C 19.046875 -15.828125 18.46875 -15.25 17.265625 -15.109375 L 10.9375 -14.296875 C 4.9375 -13.53125 2.5 -10.65625 2.5 -6.578125 C 2.5 -2.015625 5.75 0.625 10.796875 0.625 C 15.015625 0.625 18.1875 -1.25 19.765625 -3.640625 C 19.953125 -1.203125 21.390625 0 24.03125 0 L 26.390625 0 L 26.390625 -3.265625 Z M 11.609375 -2.78125 C 8.734375 -2.78125 6.859375 -4.21875 6.859375 -6.765625 C 6.859375 -8.96875 8.203125 -10.5 11.65625 -11.03125 L 19.046875 -12.140625 L 19.046875 -8.6875 C 19.046875 -5.515625 15.59375 -2.78125 11.609375 -2.78125 Z M 11.609375 -2.78125 "/></g></g></g><g fill="#000000" fill-opacity="1"><g transform="translate(358.160859, 96.029803)"><g><path d="M 16.265625 -25.375 C 12.609375 -25.375 9.640625 -23.890625 7.96875 -21.25 L 7.96875 -24.75 L 3.84375 -24.75 L 3.84375 0 L 8.25 0 L 8.25 -13.765625 C 8.25 -19.671875 11.890625 -21.53125 15.296875 -21.53125 C 18.65625 -21.53125 20.25 -19.71875 20.25 -16.3125 L 20.25 0 L 24.65625 0 L 24.65625 -17.171875 C 24.65625 -22.40625 21.4375 -25.375 16.265625 -25.375 Z M 16.265625 -25.375 "/></g></g></g><g fill="#000000" fill-opacity="1"><g transform="translate(386.658858, 96.029803)"><g><path d="M 14.53125 -9.15625 C 14.0625 -7.859375 13.578125 -6.421875 13.1875 -5.078125 C 12.8125 -6.421875 12.328125 -7.859375 11.84375 -9.15625 L 6 -24.75 L 1.203125 -24.75 L 11.171875 -0.234375 L 10.03125 2.78125 C 9.015625 5.375 8.15625 6.09375 5.90625 6.09375 L 3.59375 6.09375 L 3.59375 9.78125 L 6.328125 9.78125 C 9.828125 9.78125 11.65625 8.640625 13.140625 4.84375 L 24.65625 -24.75 L 20.09375 -24.75 Z M 14.53125 -9.15625 "/></g></g></g><g fill="#000000" fill-opacity="1"><g transform="translate(412.518157, 96.029803)"><g/></g></g><g fill="#000000" fill-opacity="1"><g transform="translate(425.471793, 96.029803)"><g><path d="M 19.1875 0.8125 C 28.78125 0.8125 35.359375 -6.53125 35.359375 -17.078125 C 35.359375 -27.4375 28.78125 -34.78125 19.1875 -34.78125 C 9.640625 -34.78125 3.0625 -27.4375 3.0625 -17.078125 C 3.0625 -6.625 9.640625 0.8125 19.1875 0.8125 Z M 19.234375 -3.171875 C 12.421875 -3.171875 7.625 -8.59375 7.625 -17.078125 C 7.625 -25.46875 12.421875 -30.796875 19.234375 -30.796875 C 26 -30.796875 30.796875 -25.46875 30.796875 -17.078125 C 30.796875 -8.484375 26.09375 -3.171875 19.234375 -3.171875 Z M 19.234375 -3.171875 "/></g></g></g><g fill="#000000" fill-opacity="1"><g transform="translate(463.900921, 96.029803)"><g><path d="M 14.96875 -10.453125 L 12.953125 -3.796875 L 10.890625 -10.453125 L 5.953125 -24.75 L 1.203125 -24.75 L 10.703125 0 L 15.0625 0 L 24.125 -24.75 L 19.671875 -24.75 Z M 14.96875 -10.453125 "/></g></g></g><g fill="#000000" fill-opacity="1"><g transform="translate(489.23247, 96.029803)"><g><path d="M 25.375 -12.953125 C 25.375 -20.671875 21.015625 -25.328125 14.0625 -25.328125 C 6.671875 -25.328125 2.40625 -20.046875 2.40625 -12.46875 C 2.40625 -4.84375 6.765625 0.578125 14.15625 0.578125 C 19.421875 0.578125 23.453125 -2.203125 25.046875 -7.046875 L 21.015625 -7.53125 C 19.859375 -4.65625 17.75 -3.015625 14.296875 -3.015625 C 9.828125 -3.015625 6.953125 -5.75 6.8125 -11.328125 L 25.375 -11.328125 Z M 14.109375 -21.734375 C 18.125 -21.734375 20.671875 -19.1875 21.25 -14.484375 L 6.859375 -14.484375 C 7.296875 -19.328125 10.171875 -21.734375 14.109375 -21.734375 Z M 14.109375 -21.734375 "/></g></g></g><g fill="#000000" fill-opacity="1"><g transform="translate(517.010829, 96.029803)"><g><path d="M 15.59375 -25.421875 C 11.84375 -25.421875 9.453125 -23.3125 7.96875 -20 L 7.96875 -24.75 L 3.84375 -24.75 L 3.84375 0 L 8.25 0 L 8.25 -13.53125 C 8.4375 -18.5625 12.09375 -21.109375 15.34375 -21.109375 C 15.78125 -21.109375 16.265625 -21.109375 16.9375 -21.0625 L 16.9375 -25.328125 C 16.5 -25.375 16.0625 -25.421875 15.59375 -25.421875 Z M 15.59375 -25.421875 "/></g></g></g><g fill="#000000" fill-opacity="1"><g transform="translate(534.666165, 96.029803)"><g><path d="M 14.96875 -10.453125 L 12.953125 -3.796875 L 10.890625 -10.453125 L 5.953125 -24.75 L 1.203125 -24.75 L 10.703125 0 L 15.0625 0 L 24.125 -24.75 L 19.671875 -24.75 Z M 14.96875 -10.453125 "/></g></g></g><g fill="#000000" fill-opacity="1"><g transform="translate(559.997715, 96.029803)"><g><path d="M 8.25 -29.40625 L 8.25 -34.15625 L 3.84375 -34.15625 L 3.84375 -29.40625 Z M 8.25 0 L 8.25 -24.75 L 3.84375 -24.75 L 3.84375 0 Z M 8.25 0 "/></g></g></g><g fill="#000000" fill-opacity="1"><g transform="translate(572.087791, 96.029803)"><g><path d="M 25.375 -12.953125 C 25.375 -20.671875 21.015625 -25.328125 14.0625 -25.328125 C 6.671875 -25.328125 2.40625 -20.046875 2.40625 -12.46875 C 2.40625 -4.84375 6.765625 0.578125 14.15625 0.578125 C 19.421875 0.578125 23.453125 -2.203125 25.046875 -7.046875 L 21.015625 -7.53125 C 19.859375 -4.65625 17.75 -3.015625 14.296875 -3.015625 C 9.828125 -3.015625 6.953125 -5.75 6.8125 -11.328125 L 25.375 -11.328125 Z M 14.109375 -21.734375 C 18.125 -21.734375 20.671875 -19.1875 21.25 -14.484375 L 6.859375 -14.484375 C 7.296875 -19.328125 10.171875 -21.734375 14.109375 -21.734375 Z M 14.109375 -21.734375 "/></g></g></g><g fill="#000000" fill-opacity="1"><g transform="translate(599.866171, 96.029803)"><g><path d="M 27.203125 -10.453125 L 25.765625 -4.5625 L 24.5625 -10.453125 L 21.015625 -24.75 L 16.21875 -24.75 L 12.65625 -10.453125 L 11.375 -4.5625 L 9.875 -10.453125 L 6 -24.75 L 1.203125 -24.75 L 9.015625 0 L 13.53125 0 L 17.265625 -14.78125 L 18.609375 -21.015625 L 19.859375 -14.78125 L 23.359375 0 L 27.78125 0 L 35.828125 -24.75 L 31.28125 -24.75 Z M 27.203125 -10.453125 "/></g></g></g></svg>