<svg xmlns="http://www.w3.org/2000/svg" xmlns:xlink="http://www.w3.org/1999/xlink" width="1059" zoomAndPan="magnify" viewBox="0 0 794.25 209.249992" height="279" preserveAspectRatio="xMidYMid meet" version="1.0"><defs><g/><clipPath id="e6fd49b504"><path d="M 1.042969 20 L 189.371094 20 L 189.371094 208.300781 L 1.042969 208.300781 Z M 1.042969 20 " clip-rule="nonzero"/></clipPath></defs><g clip-path="url(#e6fd49b504)"><path fill="#ed1c24" d="M 90.375 20.128906 C 60.664062 21.660156 33.492188 37.113281 16.921875 61.882812 C 2.066406 84.097656 -2.601562 111.503906 4.011719 137.515625 C 4.34375 138.828125 4.855469 140.648438 5.144531 141.574219 L 5.671875 143.257812 L 25.070312 143.285156 C 42.78125 143.300781 44.5625 143.285156 45.570312 143.066406 C 48.429688 142.472656 50.597656 141.339844 52.390625 139.515625 C 53.578125 138.328125 53.828125 137.929688 55.222656 134.917969 C 55.898438 133.46875 57.335938 130.460938 58.425781 128.222656 C 59.503906 125.984375 60.773438 123.253906 61.242188 122.148438 C 62.113281 120.105469 64.28125 114.347656 65.121094 111.875 C 65.5625 110.550781 65.589844 110.523438 65.796875 110.839844 C 66.351562 111.683594 72.066406 119.648438 74.015625 122.285156 C 75.214844 123.914062 77.367188 127.007812 78.789062 129.148438 C 82.023438 134.023438 82.78125 135.015625 85.113281 137.335938 C 87.101562 139.308594 88 139.945312 89.960938 140.746094 C 91.3125 141.3125 92.433594 141.585938 94.226562 141.824219 C 95.484375 141.988281 95.898438 141.988281 97.179688 141.824219 C 99.128906 141.574219 100.507812 141.171875 102.109375 140.429688 C 103.753906 139.65625 105.023438 138.675781 106.722656 136.921875 C 108.53125 135.03125 109.621094 133.59375 112.605469 129.121094 C 114.011719 126.992188 116.042969 124.066406 117.105469 122.632812 C 119.191406 119.8125 123.816406 113.367188 125.015625 111.613281 L 125.761719 110.535156 L 126.960938 113.917969 C 129.019531 119.648438 130.664062 123.609375 132.511719 127.324219 C 133.039062 128.386719 134.378906 131.175781 135.480469 133.539062 C 137.730469 138.316406 138.160156 138.976562 139.984375 140.441406 C 141.667969 141.792969 143.683594 142.679688 146.15625 143.148438 C 146.832031 143.273438 149.632812 143.3125 157.421875 143.285156 C 163.136719 143.257812 167.832031 143.300781 167.871094 143.367188 C 167.957031 143.507812 166.644531 146.515625 165.414062 149 C 162.75 154.414062 158.789062 160.378906 154.714844 165.15625 C 152.769531 167.421875 148.140625 172.019531 145.878906 173.921875 C 136.65625 181.683594 126.300781 187.066406 114.882812 190.007812 C 100.507812 193.734375 85.265625 193.292969 71.15625 188.75 C 61.449219 185.617188 52.542969 180.660156 44.535156 173.921875 C 42.148438 171.90625 37.4375 167.199219 35.421875 164.8125 C 34.554688 163.789062 33.144531 161.992188 32.277344 160.835938 L 30.714844 158.734375 L 21.519531 158.734375 C 13.167969 158.734375 12.339844 158.75 12.421875 158.957031 C 12.65625 159.5625 14.949219 163.386719 16.46875 165.707031 C 28.492188 183.988281 46.207031 197.394531 66.984375 203.953125 C 80.199219 208.121094 94.683594 209.296875 108.53125 207.335938 C 133.285156 203.800781 155.613281 190.546875 170.632812 170.445312 C 179.554688 158.515625 185.601562 144.433594 187.988281 130.015625 C 188.140625 129.066406 188.304688 128.125 188.347656 127.917969 L 188.429688 127.53125 L 171.394531 127.503906 L 154.371094 127.464844 L 153.363281 125.738281 C 152.117188 123.597656 149.605469 118.542969 148.570312 116.085938 C 146.554688 111.308594 144.9375 106.683594 143.128906 100.472656 C 141.597656 95.183594 140.851562 93.167969 139.84375 91.441406 C 136.957031 86.511719 131.78125 84.246094 125.097656 85.007812 C 121.425781 85.433594 118.582031 86.664062 116.441406 88.761719 L 115.363281 89.8125 L 113.113281 94.355469 C 111.871094 96.839844 110.464844 99.558594 109.980469 100.402344 C 107.300781 105.027344 103.808594 110.550781 100.964844 114.621094 C 99.570312 116.625 95.773438 121.734375 95.691406 121.734375 C 95.578125 121.734375 91.617188 116.375 89.933594 113.933594 C 84.976562 106.765625 81.25 100.511719 78.140625 94.160156 C 76.71875 91.234375 75.988281 89.894531 75.53125 89.355469 C 74.179688 87.78125 71.789062 86.304688 69.511719 85.640625 C 67.511719 85.078125 66.421875 84.9375 63.796875 84.953125 C 60.953125 84.953125 59.53125 85.214844 57.625 86.027344 C 55.914062 86.761719 55.085938 87.328125 53.773438 88.597656 C 51.328125 90.984375 50.417969 92.960938 48.125 100.816406 C 45.046875 111.363281 41.980469 118.835938 37.675781 126.289062 L 36.996094 127.464844 L 27.472656 127.503906 L 17.929688 127.53125 L 17.625 125.363281 C 16.742188 118.863281 16.589844 113.628906 17.144531 107.234375 C 18.550781 90.683594 25.234375 75.109375 36.347656 62.417969 C 48.953125 48.003906 66.53125 38.714844 85.613281 36.351562 C 88.953125 35.9375 91.21875 35.8125 95.207031 35.8125 C 102.152344 35.8125 107.855469 36.503906 114.355469 38.132812 C 142.039062 45.078125 163.921875 66.808594 171.074219 94.464844 C 172.539062 100.113281 173.296875 105.457031 173.574219 111.957031 L 173.65625 114.277344 L 189.371094 114.277344 L 189.371094 113.464844 C 189.371094 111.929688 189.09375 107.015625 188.871094 104.890625 C 186.527344 81.058594 175.34375 59.300781 157.269531 43.367188 C 146.925781 34.253906 134.417969 27.433594 120.957031 23.582031 C 111.304688 20.804688 100.59375 19.605469 90.375 20.128906 Z M 90.375 20.128906 " fill-opacity="1" fill-rule="nonzero"/></g><g fill="#ffffff" fill-opacity="1"><g transform="translate(204.754289, 114.50159)"><g><path d="M 39 -14.0625 L 37 -8.125 L 34.984375 -14.0625 L 18.078125 -59.59375 L 7.109375 -59.59375 L 7.109375 0 L 14.234375 0 L 14.234375 -39.515625 L 13.984375 -50.3125 L 17.90625 -40.9375 L 33.3125 0 L 40.671875 0 L 54.90625 -39.59375 L 59.171875 -50.21875 L 59.015625 -39.515625 L 59.015625 0 L 66.125 0 L 66.125 -59.59375 L 55.328125 -59.59375 Z M 39 -14.0625 "/></g></g></g><g fill="#ffffff" fill-opacity="1"><g transform="translate(271.714271, 114.50159)"><g><path d="M 57.421875 0 L 34.40625 -59.59375 L 25.609375 -59.59375 L 2.515625 0 L 10.796875 0 L 17.25 -17.5 L 42.515625 -17.5 L 48.796875 0 Z M 28.046875 -46.875 L 30.046875 -53.0625 L 31.96875 -46.875 L 40.09375 -24.28125 L 19.75 -24.28125 Z M 28.046875 -46.875 "/></g></g></g><g fill="#ffffff" fill-opacity="1"><g transform="translate(325.365956, 114.50159)"><g><path d="M 51.484375 -19 C 50.890625 -24.53125 47.546875 -27.953125 42.359375 -28.96875 C 48.625 -30.71875 52.984375 -36.15625 52.984375 -43.859375 C 52.984375 -53.40625 46.125 -59.59375 34.734375 -59.59375 L 7.109375 -59.59375 L 7.109375 0 L 14.90625 0 L 14.90625 -25.703125 L 33.3125 -25.703125 C 40.265625 -25.703125 43.28125 -22.9375 44.03125 -15.90625 L 45.78125 0 L 53.65625 0 Z M 14.90625 -32.484375 L 14.90625 -52.8125 L 33.390625 -52.8125 C 40.9375 -52.8125 45.03125 -49.390625 45.03125 -43.109375 C 45.03125 -36.328125 40.171875 -32.484375 32.0625 -32.484375 Z M 14.90625 -32.484375 "/></g></g></g><g fill="#ffffff" fill-opacity="1"><g transform="translate(379.017646, 114.50159)"><g><path d="M 55.578125 -59.59375 L 45.203125 -59.59375 L 14.90625 -30.390625 L 14.90625 -59.59375 L 7.109375 -59.59375 L 7.109375 0 L 14.90625 0 L 14.90625 -20.84375 L 24.9375 -30.640625 L 32.5625 -20.25 L 47.546875 0 L 57.25 0 L 30.390625 -35.578125 Z M 55.578125 -59.59375 "/></g></g></g><g fill="#ffffff" fill-opacity="1"><g transform="translate(432.512154, 114.50159)"><g/></g></g><g fill="#ffffff" fill-opacity="1"><g transform="translate(448.833646, 114.50159)"><g/></g></g><g fill="#ffffff" fill-opacity="1"><g transform="translate(465.160756, 114.50159)"><g><path d="M 27.375 -59.59375 L 7.109375 -59.59375 L 7.109375 0 L 25.703125 0 C 45.875 0 54.828125 -11.796875 54.828125 -29.796875 C 54.828125 -48.125 46.203125 -59.59375 27.375 -59.59375 Z M 14.90625 -6.78125 L 14.90625 -52.8125 L 25.359375 -52.8125 C 40.171875 -52.8125 46.875 -45.625 46.875 -29.796875 C 46.875 -14.3125 40.515625 -6.78125 24.9375 -6.78125 Z M 14.90625 -6.78125 "/></g></g></g><g fill="#ffffff" fill-opacity="1"><g transform="translate(518.561341, 114.50159)"><g><path d="M 14.90625 -27.28125 L 46.625 -27.28125 L 46.625 -34.0625 L 14.90625 -34.0625 L 14.90625 -52.8125 L 49.296875 -52.8125 L 49.296875 -59.59375 L 7.109375 -59.59375 L 7.109375 0 L 50.046875 0 L 50.046875 -6.78125 L 14.90625 -6.78125 Z M 14.90625 -27.28125 "/></g></g></g><g fill="#ffffff" fill-opacity="1"><g transform="translate(567.776934, 114.50159)"><g><path d="M 32.3125 1.421875 C 46.28125 1.421875 55.5 -7.359375 57.5 -21.671875 L 49.796875 -21.671875 C 48.375 -10.96875 41.9375 -5.53125 32.5625 -5.53125 C 20.421875 -5.53125 13.3125 -14.90625 13.3125 -29.796875 C 13.3125 -44.703125 20.5 -53.734375 32.5625 -53.734375 C 40.765625 -53.734375 46.953125 -49.46875 48.796875 -41.59375 L 56.75 -41.59375 C 54.90625 -53.3125 44.703125 -60.6875 32.21875 -60.6875 C 15.8125 -60.6875 5.359375 -48.046875 5.359375 -29.796875 C 5.359375 -11.71875 15.5625 1.421875 32.3125 1.421875 Z M 32.3125 1.421875 "/></g></g></g><g fill="#ffffff" fill-opacity="1"><g transform="translate(622.767818, 114.50159)"><g><path d="M 33.484375 1.421875 C 50.21875 1.421875 61.6875 -11.390625 61.6875 -29.796875 C 61.6875 -47.875 50.21875 -60.6875 33.484375 -60.6875 C 16.828125 -60.6875 5.359375 -47.875 5.359375 -29.796875 C 5.359375 -11.546875 16.828125 1.421875 33.484375 1.421875 Z M 33.5625 -5.53125 C 21.671875 -5.53125 13.3125 -14.984375 13.3125 -29.796875 C 13.3125 -44.453125 21.671875 -53.734375 33.5625 -53.734375 C 45.359375 -53.734375 53.734375 -44.453125 53.734375 -29.796875 C 53.734375 -14.8125 45.53125 -5.53125 33.5625 -5.53125 Z M 33.5625 -5.53125 "/></g></g></g><g fill="#ffffff" fill-opacity="1"><g transform="translate(683.533999, 114.50159)"><g><path d="M 51.484375 -19 C 50.890625 -24.53125 47.546875 -27.953125 42.359375 -28.96875 C 48.625 -30.71875 52.984375 -36.15625 52.984375 -43.859375 C 52.984375 -53.40625 46.125 -59.59375 34.734375 -59.59375 L 7.109375 -59.59375 L 7.109375 0 L 14.90625 0 L 14.90625 -25.703125 L 33.3125 -25.703125 C 40.265625 -25.703125 43.28125 -22.9375 44.03125 -15.90625 L 45.78125 0 L 53.65625 0 Z M 14.90625 -32.484375 L 14.90625 -52.8125 L 33.390625 -52.8125 C 40.9375 -52.8125 45.03125 -49.390625 45.03125 -43.109375 C 45.03125 -36.328125 40.171875 -32.484375 32.0625 -32.484375 Z M 14.90625 -32.484375 "/></g></g></g><g fill="#ffffff" fill-opacity="1"><g transform="translate(207.119489, 171.243328)"><g><path d="M 20.765625 -39.109375 L 4.671875 -39.109375 L 4.671875 0 L 9.78125 0 L 9.78125 -16.3125 L 20.65625 -16.3125 C 28.234375 -16.3125 33.34375 -20.15625 33.34375 -27.90625 C 33.34375 -35.375 28.34375 -39.109375 20.765625 -39.109375 Z M 9.78125 -20.765625 L 9.78125 -34.65625 L 20.484375 -34.65625 C 25.3125 -34.65625 28.234375 -32.515625 28.234375 -27.84375 C 28.234375 -23.234375 25.421875 -20.765625 20.765625 -20.765625 Z M 9.78125 -20.765625 "/></g></g></g><g fill="#ffffff" fill-opacity="1"><g transform="translate(238.695986, 171.243328)"><g><path d="M 17.84375 -29.109375 C 13.5625 -29.109375 10.8125 -26.6875 9.109375 -22.90625 L 9.109375 -28.34375 L 4.390625 -28.34375 L 4.390625 0 L 9.453125 0 L 9.453125 -15.484375 C 9.671875 -21.25 13.84375 -24.171875 17.578125 -24.171875 C 18.0625 -24.171875 18.625 -24.171875 19.390625 -24.109375 L 19.390625 -29 C 18.890625 -29.046875 18.40625 -29.109375 17.84375 -29.109375 Z M 17.84375 -29.109375 "/></g></g></g><g fill="#ffffff" fill-opacity="1"><g transform="translate(254.786034, 171.243328)"><g><path d="M 29.046875 -14.828125 C 29.046875 -23.671875 24.0625 -29 16.09375 -29 C 7.640625 -29 2.75 -22.953125 2.75 -14.28125 C 2.75 -5.546875 7.75 0.65625 16.203125 0.65625 C 22.25 0.65625 26.859375 -2.53125 28.671875 -8.078125 L 24.0625 -8.625 C 22.734375 -5.328125 20.328125 -3.453125 16.359375 -3.453125 C 11.265625 -3.453125 7.96875 -6.59375 7.796875 -12.96875 L 29.046875 -12.96875 Z M 16.140625 -24.875 C 20.765625 -24.875 23.671875 -21.96875 24.328125 -16.59375 L 7.859375 -16.59375 C 8.34375 -22.140625 11.640625 -24.875 16.140625 -24.875 Z M 16.140625 -24.875 "/></g></g></g><g fill="#ffffff" fill-opacity="1"><g transform="translate(282.463466, 171.243328)"><g><path d="M 34.484375 -29.046875 C 30.375 -29.046875 27.34375 -27.40625 25.484375 -24.109375 C 24.21875 -27.34375 21.46875 -29.046875 17.625 -29.046875 C 13.734375 -29.046875 10.984375 -27.34375 9.109375 -24.328125 L 9.109375 -28.34375 L 4.390625 -28.34375 L 4.390625 0 L 9.453125 0 L 9.453125 -15.109375 C 9.453125 -22.40625 13.078125 -24.65625 16.359375 -24.65625 C 19.5 -24.65625 21.25 -22.6875 21.25 -19.390625 L 21.25 0 L 26.3125 0 L 26.3125 -15.375 C 26.3125 -22.6875 29.9375 -24.65625 33.234375 -24.65625 C 36.359375 -24.65625 38.109375 -22.6875 38.109375 -19.390625 L 38.109375 0 L 43.171875 0 L 43.171875 -19.4375 C 43.171875 -26.03125 40.03125 -29.046875 34.484375 -29.046875 Z M 34.484375 -29.046875 "/></g></g></g><g fill="#ffffff" fill-opacity="1"><g transform="translate(325.90192, 171.243328)"><g><path d="M 9.453125 -33.671875 L 9.453125 -39.109375 L 4.390625 -39.109375 L 4.390625 -33.671875 Z M 9.453125 0 L 9.453125 -28.34375 L 4.390625 -28.34375 L 4.390625 0 Z M 9.453125 0 "/></g></g></g><g fill="#ffffff" fill-opacity="1"><g transform="translate(335.621659, 171.243328)"><g><path d="M 23.171875 -12.578125 C 23.171875 -5.828125 19 -3.6875 15.109375 -3.6875 C 11.265625 -3.6875 9.453125 -5.765625 9.453125 -9.671875 L 9.453125 -28.34375 L 4.390625 -28.34375 L 4.390625 -8.671875 C 4.390625 -2.6875 8.078125 0.71875 14 0.71875 C 18.171875 0.71875 21.578125 -0.984375 23.5 -4.015625 L 23.5 0 L 28.234375 0 L 28.234375 -28.34375 L 23.171875 -28.34375 Z M 23.171875 -12.578125 "/></g></g></g><g fill="#ffffff" fill-opacity="1"><g transform="translate(364.122831, 171.243328)"><g><path d="M 34.484375 -29.046875 C 30.375 -29.046875 27.34375 -27.40625 25.484375 -24.109375 C 24.21875 -27.34375 21.46875 -29.046875 17.625 -29.046875 C 13.734375 -29.046875 10.984375 -27.34375 9.109375 -24.328125 L 9.109375 -28.34375 L 4.390625 -28.34375 L 4.390625 0 L 9.453125 0 L 9.453125 -15.109375 C 9.453125 -22.40625 13.078125 -24.65625 16.359375 -24.65625 C 19.5 -24.65625 21.25 -22.6875 21.25 -19.390625 L 21.25 0 L 26.3125 0 L 26.3125 -15.375 C 26.3125 -22.6875 29.9375 -24.65625 33.234375 -24.65625 C 36.359375 -24.65625 38.109375 -22.6875 38.109375 -19.390625 L 38.109375 0 L 43.171875 0 L 43.171875 -19.4375 C 43.171875 -26.03125 40.03125 -29.046875 34.484375 -29.046875 Z M 34.484375 -29.046875 "/></g></g></g><g fill="#ffffff" fill-opacity="1"><g transform="translate(407.565097, 171.243328)"><g/></g></g><g fill="#ffffff" fill-opacity="1"><g transform="translate(418.273327, 171.243328)"><g/></g></g><g fill="#ffffff" fill-opacity="1"><g transform="translate(428.992198, 171.243328)"><g><path d="M 18.78125 0.828125 C 29.609375 0.828125 33.890625 -4.5625 33.890625 -10.765625 C 33.890625 -16.859375 29.9375 -20.328125 22.6875 -21.859375 L 15.8125 -23.34375 C 10.921875 -24.390625 9 -26.140625 9 -29.21875 C 9 -33.34375 12.296875 -35.703125 17.90625 -35.703125 C 23.890625 -35.703125 27.34375 -33.0625 27.796875 -28.125 L 32.671875 -28.125 C 32.015625 -35.640625 26.75 -39.875 18.0625 -39.875 C 9.0625 -39.875 4.171875 -35.375 4.171875 -28.78125 C 4.171875 -22.578125 8.78125 -19.9375 15.15625 -18.625 L 20.65625 -17.46875 C 26.75 -16.203125 28.9375 -14.171875 28.9375 -10.484375 C 28.9375 -6.09375 25.65625 -3.34375 18.953125 -3.34375 C 12.1875 -3.34375 8.234375 -6.15625 7.6875 -12.625 L 2.796875 -12.625 C 3.453125 -3.625 9 0.828125 18.78125 0.828125 Z M 18.78125 0.828125 "/></g></g></g><g fill="#ffffff" fill-opacity="1"><g transform="translate(461.557194, 171.243328)"><g><path d="M 16.359375 0.71875 C 24.328125 0.71875 30.046875 -5.484375 30.046875 -14.390625 C 30.046875 -23.390625 24.4375 -29.046875 16.53125 -29.046875 C 8.40625 -29.046875 2.75 -23.28125 2.75 -14.171875 C 2.75 -5.265625 8.234375 0.71875 16.359375 0.71875 Z M 16.359375 -3.515625 C 11.046875 -3.515625 7.796875 -7.75 7.796875 -14.171875 C 7.796875 -20.59375 10.984375 -24.828125 16.359375 -24.828125 C 21.859375 -24.828125 24.984375 -20.8125 24.984375 -14.390625 C 24.984375 -7.96875 21.859375 -3.515625 16.359375 -3.515625 Z M 16.359375 -3.515625 "/></g></g></g><g fill="#ffffff" fill-opacity="1"><g transform="translate(490.223111, 171.243328)"><g><path d="M 9.453125 0 L 9.453125 -39.109375 L 4.390625 -39.109375 L 4.390625 0 Z M 9.453125 0 "/></g></g></g><g fill="#ffffff" fill-opacity="1"><g transform="translate(499.942856, 171.243328)"><g><path d="M 9.453125 -33.671875 L 9.453125 -39.109375 L 4.390625 -39.109375 L 4.390625 -33.671875 Z M 9.453125 0 L 9.453125 -28.34375 L 4.390625 -28.34375 L 4.390625 0 Z M 9.453125 0 "/></g></g></g><g fill="#ffffff" fill-opacity="1"><g transform="translate(509.662595, 171.243328)"><g><path d="M 23.5625 -24.9375 C 21.75 -27.40625 18.671875 -28.9375 15 -28.9375 C 7.796875 -28.9375 2.75 -23.171875 2.75 -14.609375 C 2.75 -5.828125 7.421875 0.609375 15.109375 0.609375 C 19.21875 0.609375 22.515625 -1.53125 24.21875 -4.5 L 24.21875 0 L 28.609375 0 L 28.609375 -39.109375 L 23.5625 -39.109375 Z M 15.59375 -3.734375 C 10.703125 -3.734375 7.796875 -8.015625 7.796875 -14.609375 C 7.796875 -21.09375 10.8125 -24.609375 15.703125 -24.609375 C 20.4375 -24.609375 23.84375 -21.203125 23.84375 -14.5 C 23.84375 -7.796875 20.328125 -3.734375 15.59375 -3.734375 Z M 15.59375 -3.734375 "/></g></g></g><g fill="#ffffff" fill-opacity="1"><g transform="translate(538.55652, 171.243328)"><g/></g></g><g fill="#ffffff" fill-opacity="1"><g transform="translate(549.26475, 171.243328)"><g/></g></g><g fill="#ffffff" fill-opacity="1"><g transform="translate(559.983622, 171.243328)"><g><path d="M 18.78125 0.828125 C 29.609375 0.828125 33.890625 -4.5625 33.890625 -10.765625 C 33.890625 -16.859375 29.9375 -20.328125 22.6875 -21.859375 L 15.8125 -23.34375 C 10.921875 -24.390625 9 -26.140625 9 -29.21875 C 9 -33.34375 12.296875 -35.703125 17.90625 -35.703125 C 23.890625 -35.703125 27.34375 -33.0625 27.796875 -28.125 L 32.671875 -28.125 C 32.015625 -35.640625 26.75 -39.875 18.0625 -39.875 C 9.0625 -39.875 4.171875 -35.375 4.171875 -28.78125 C 4.171875 -22.578125 8.78125 -19.9375 15.15625 -18.625 L 20.65625 -17.46875 C 26.75 -16.203125 28.9375 -14.171875 28.9375 -10.484375 C 28.9375 -6.09375 25.65625 -3.34375 18.953125 -3.34375 C 12.1875 -3.34375 8.234375 -6.15625 7.6875 -12.625 L 2.796875 -12.625 C 3.453125 -3.625 9 0.828125 18.78125 0.828125 Z M 18.78125 0.828125 "/></g></g></g><g fill="#ffffff" fill-opacity="1"><g transform="translate(592.548618, 171.243328)"><g><path d="M 23.171875 -12.578125 C 23.171875 -5.828125 19 -3.6875 15.109375 -3.6875 C 11.265625 -3.6875 9.453125 -5.765625 9.453125 -9.671875 L 9.453125 -28.34375 L 4.390625 -28.34375 L 4.390625 -8.671875 C 4.390625 -2.6875 8.078125 0.71875 14 0.71875 C 18.171875 0.71875 21.578125 -0.984375 23.5 -4.015625 L 23.5 0 L 28.234375 0 L 28.234375 -28.34375 L 23.171875 -28.34375 Z M 23.171875 -12.578125 "/></g></g></g><g fill="#ffffff" fill-opacity="1"><g transform="translate(621.049792, 171.243328)"><g><path d="M 17.84375 -29.109375 C 13.5625 -29.109375 10.8125 -26.6875 9.109375 -22.90625 L 9.109375 -28.34375 L 4.390625 -28.34375 L 4.390625 0 L 9.453125 0 L 9.453125 -15.484375 C 9.671875 -21.25 13.84375 -24.171875 17.578125 -24.171875 C 18.0625 -24.171875 18.625 -24.171875 19.390625 -24.109375 L 19.390625 -29 C 18.890625 -29.046875 18.40625 -29.109375 17.84375 -29.109375 Z M 17.84375 -29.109375 "/></g></g></g><g fill="#ffffff" fill-opacity="1"><g transform="translate(637.139843, 171.243328)"><g><path d="M 18.28125 -34.875 L 18.28125 -39.109375 L 15.265625 -39.109375 C 9.34375 -39.109375 6.75 -36.515625 6.75 -30.59375 L 6.75 -28.171875 L 2.203125 -28.34375 L 2.203125 -24.4375 L 6.75 -24.65625 L 6.75 0 L 11.8125 0 L 11.8125 -24.65625 L 18.28125 -24.4375 L 18.28125 -28.34375 L 11.8125 -28.125 L 11.8125 -31.3125 C 11.8125 -34 12.6875 -34.875 15.375 -34.875 Z M 18.28125 -34.875 "/></g></g></g><g fill="#ffffff" fill-opacity="1"><g transform="translate(652.68072, 171.243328)"><g><path d="M 29.390625 -3.734375 C 27.515625 -3.734375 26.90625 -4.34375 26.90625 -6.203125 L 26.90625 -20.046875 C 26.90625 -26.25 22.84375 -29.109375 15.8125 -29.109375 C 8.515625 -29.109375 4.5 -26.140625 4.015625 -19.875 L 9 -19.875 C 9.34375 -23.671875 11.375 -24.9375 15.4375 -24.9375 C 19.828125 -24.9375 21.796875 -23.5 21.796875 -20.546875 L 21.796875 -19.4375 C 21.796875 -18.125 21.140625 -17.46875 19.765625 -17.296875 L 12.515625 -16.359375 C 5.65625 -15.484375 2.859375 -12.1875 2.859375 -7.53125 C 2.859375 -2.3125 6.59375 0.71875 12.359375 0.71875 C 17.1875 0.71875 20.8125 -1.421875 22.625 -4.171875 C 22.84375 -1.375 24.5 0 27.515625 0 L 30.203125 0 L 30.203125 -3.734375 Z M 13.296875 -3.1875 C 10 -3.1875 7.859375 -4.828125 7.859375 -7.75 C 7.859375 -10.265625 9.390625 -12.03125 13.34375 -12.625 L 21.796875 -13.890625 L 21.796875 -9.9375 C 21.796875 -6.3125 17.84375 -3.1875 13.296875 -3.1875 Z M 13.296875 -3.1875 "/></g></g></g><g fill="#ffffff" fill-opacity="1"><g transform="translate(679.863897, 171.243328)"><g><path d="M 15.875 0.71875 C 23.015625 0.71875 27.125 -3.234375 28.125 -9.890625 L 23.390625 -9.890625 C 22.625 -5.875 20.328125 -3.515625 16.140625 -3.515625 C 10.765625 -3.515625 7.796875 -7.46875 7.796875 -14.171875 C 7.796875 -20.875 10.484375 -24.828125 16.203125 -24.828125 C 20.15625 -24.828125 22.578125 -22.90625 23.34375 -19.0625 L 28.125 -19.0625 C 27.125 -25.59375 22.6875 -29.046875 16.140625 -29.046875 C 7.96875 -29.046875 2.75 -23.5 2.75 -13.953125 C 2.75 -4.390625 7.96875 0.71875 15.875 0.71875 Z M 15.875 0.71875 "/></g></g></g><g fill="#ffffff" fill-opacity="1"><g transform="translate(706.333152, 171.243328)"><g><path d="M 29.046875 -14.828125 C 29.046875 -23.671875 24.0625 -29 16.09375 -29 C 7.640625 -29 2.75 -22.953125 2.75 -14.28125 C 2.75 -5.546875 7.75 0.65625 16.203125 0.65625 C 22.25 0.65625 26.859375 -2.53125 28.671875 -8.078125 L 24.0625 -8.625 C 22.734375 -5.328125 20.328125 -3.453125 16.359375 -3.453125 C 11.265625 -3.453125 7.96875 -6.59375 7.796875 -12.96875 L 29.046875 -12.96875 Z M 16.140625 -24.875 C 20.765625 -24.875 23.671875 -21.96875 24.328125 -16.59375 L 7.859375 -16.59375 C 8.34375 -22.140625 11.640625 -24.875 16.140625 -24.875 Z M 16.140625 -24.875 "/></g></g></g></svg>