<svg xmlns="http://www.w3.org/2000/svg" viewBox="0 0 163.11 59.97"><defs><style>.a{fill:#fff;}</style></defs><title>hyundai_logo_inverted</title><path class="a" d="M61.62,26.37c0,1.62-.47,2.93-2.43,2.94h0c-2,0-2.42-1.32-2.43-2.94V14.67H54.59v11.7C54.59,29,56.05,31,59.18,31h0c3.13,0,4.59-2.06,4.59-4.67V14.67H61.62Z"/><polygon class="a" points="21.11 21.53 16.25 21.53 16.25 14.67 14.09 14.67 14.09 30.9 16.25 30.9 16.25 23.34 21.11 23.34 21.11 30.9 23.27 30.9 23.27 14.67 21.11 14.67 21.11 21.53"/><polygon class="a" points="84.13 26.25 79.81 14.67 76.59 14.67 76.59 30.9 78.71 30.9 78.71 17.19 83.92 30.9 86.24 30.9 86.24 14.67 84.13 14.67 84.13 26.25"/><polygon class="a" points="38.87 21.56 35.99 14.67 33.74 14.67 37.78 24.05 37.78 30.9 39.93 30.9 39.93 24.01 43.92 14.67 41.67 14.67 38.87 21.56"/><rect class="a" x="147" y="14.67" width="2.09" height="16.23"/><path class="a" d="M118,0H0V45H163.11V0ZM93.2,43.59H1.45V1.45H93.2Zm15.61-14.42a5.15,5.15,0,0,1-4.31,1.73h-3.45V14.67h3.44a5.19,5.19,0,0,1,4.32,1.74c1,1.26,1.56,3.29,1.56,6.38S109.83,27.91,108.81,29.17Zm52.85,14.41H118V1.45h43.67Z"/><path class="a" d="M104.07,16.46h-.91V29.09h.91c2.68,0,4.17-.82,4.19-6.3S106.75,16.48,104.07,16.46Z"/><path class="a" d="M126.69,14.67v.07l-3.86,16.15H125l1-4.56h4.26l1,4.56h2.17l-3.85-16.22Zm-.36,9.83,1.81-8.13L130,24.5Z"/><path class="a" d="M74.15,59.8H70.59V51.85h.85V59h2.83Z"/><path class="a" d="M83.08,59.8,82.39,59a2.56,2.56,0,0,1-2,.93,2.14,2.14,0,0,1-2.41-2.14,2.18,2.18,0,0,1,1.45-2,2.64,2.64,0,0,1-1-1.78,1.84,1.84,0,0,1,1.86-1.83A1.78,1.78,0,0,1,82.15,54c0,.89-.54,1.35-1.49,1.91l1.67,1.84A4.93,4.93,0,0,0,82.51,56h.72a5.17,5.17,0,0,1-.38,2.39l1.32,1.46Zm-3.21-3.51a1.73,1.73,0,0,0-1.05,1.61,1.37,1.37,0,0,0,1.54,1.36,1.92,1.92,0,0,0,1.58-.74Zm.37-3.43a1,1,0,0,0-1,1c0,.44.16.73.94,1.49C81,55,81.25,54.53,81.25,54A1,1,0,0,0,80.24,52.86Z"/><path class="a" d="M90.54,59.92a2.67,2.67,0,0,1-2.09-1.05,4.86,4.86,0,0,1-.85-3c0-2.37,1.27-4.1,3-4.1a2.72,2.72,0,0,1,1.8.65l-.46.61a2,2,0,0,0-1.35-.5,1.84,1.84,0,0,0-1.76,1.37A5.62,5.62,0,0,0,88.52,56a4.82,4.82,0,0,0,.23,1.68,2,2,0,0,0,1.92,1.48,2.11,2.11,0,0,0,1.4-.51l.46.64A3.47,3.47,0,0,1,90.54,59.92Z"/></svg>