<svg xmlns="http://www.w3.org/2000/svg" xmlns:xlink="http://www.w3.org/1999/xlink" width="1241" zoomAndPan="magnify" viewBox="0 0 930.75 227.249992" height="303" preserveAspectRatio="xMidYMid meet" version="1.0"><defs><g/><clipPath id="e49b5bdaf6"><path d="M 86.15625 20 L 274.535156 20 L 274.535156 208.359375 L 86.15625 208.359375 Z M 86.15625 20 " clip-rule="nonzero"/></clipPath></defs><g clip-path="url(#e49b5bdaf6)"><path fill="#ed1c24" d="M 175.511719 20.132812 C 145.789062 21.667969 118.609375 37.121094 102.039062 61.898438 C 87.175781 84.121094 82.507812 111.535156 89.125 137.554688 C 89.457031 138.867188 89.964844 140.6875 90.257812 141.613281 L 90.78125 143.296875 L 110.1875 143.328125 C 127.90625 143.339844 129.6875 143.328125 130.695312 143.105469 C 133.554688 142.511719 135.722656 141.378906 137.515625 139.554688 C 138.703125 138.367188 138.953125 137.96875 140.347656 134.957031 C 141.023438 133.507812 142.460938 130.496094 143.550781 128.257812 C 144.628906 126.023438 145.898438 123.285156 146.371094 122.183594 C 147.238281 120.136719 149.40625 114.378906 150.25 111.90625 C 150.691406 110.582031 150.71875 110.554688 150.925781 110.871094 C 151.480469 111.714844 157.199219 119.683594 159.144531 122.320312 C 160.347656 123.949219 162.5 127.042969 163.921875 129.183594 C 167.15625 134.058594 167.914062 135.054688 170.25 137.375 C 172.238281 139.347656 173.136719 139.984375 175.097656 140.785156 C 176.449219 141.351562 177.566406 141.628906 179.363281 141.863281 C 180.621094 142.027344 181.035156 142.027344 182.320312 141.863281 C 184.265625 141.613281 185.648438 141.214844 187.25 140.46875 C 188.894531 139.695312 190.164062 138.714844 191.863281 136.960938 C 193.671875 135.066406 194.761719 133.632812 197.746094 129.15625 C 199.15625 127.03125 201.183594 124.101562 202.246094 122.664062 C 204.332031 119.847656 208.960938 113.398438 210.160156 111.644531 L 210.90625 110.566406 L 212.109375 113.949219 C 214.167969 119.683594 215.808594 123.644531 217.660156 127.359375 C 218.183594 128.425781 219.523438 131.214844 220.628906 133.574219 C 222.882812 138.355469 223.308594 139.015625 225.132812 140.480469 C 226.816406 141.835938 228.832031 142.71875 231.304688 143.1875 C 231.984375 143.3125 234.785156 143.355469 242.574219 143.328125 C 248.292969 143.296875 252.988281 143.339844 253.03125 143.410156 C 253.113281 143.546875 251.800781 146.558594 250.570312 149.042969 C 247.90625 154.457031 243.941406 160.425781 239.867188 165.203125 C 237.921875 167.46875 233.292969 172.066406 231.03125 173.972656 C 221.804688 181.734375 211.445312 187.121094 200.023438 190.0625 C 185.648438 193.789062 170.402344 193.347656 156.285156 188.804688 C 146.578125 185.671875 137.667969 180.710938 129.660156 173.972656 C 127.269531 171.957031 122.558594 167.246094 120.542969 164.855469 C 119.671875 163.835938 118.265625 162.039062 117.394531 160.878906 L 115.835938 158.78125 L 106.636719 158.78125 C 98.28125 158.78125 97.453125 158.792969 97.535156 159 C 97.769531 159.609375 100.0625 163.433594 101.582031 165.753906 C 113.609375 184.039062 131.328125 197.449219 152.113281 204.011719 C 165.332031 208.179688 179.820312 209.355469 193.671875 207.394531 C 218.433594 203.859375 240.765625 190.601562 255.792969 170.492188 C 264.714844 158.558594 270.761719 144.472656 273.152344 130.054688 C 273.304688 129.101562 273.46875 128.164062 273.511719 127.957031 L 273.59375 127.570312 L 256.550781 127.539062 L 239.523438 127.5 L 238.515625 125.773438 C 237.273438 123.632812 234.757812 118.578125 233.722656 116.121094 C 231.707031 111.339844 230.089844 106.714844 228.28125 100.5 C 226.75 95.210938 226.003906 93.195312 224.996094 91.46875 C 222.109375 86.535156 216.929688 84.273438 210.246094 85.03125 C 206.570312 85.460938 203.726562 86.6875 201.585938 88.789062 L 200.507812 89.835938 L 198.257812 94.382812 C 197.015625 96.867188 195.605469 99.585938 195.121094 100.429688 C 192.441406 105.058594 188.949219 110.582031 186.101562 114.65625 C 184.707031 116.65625 180.910156 121.769531 180.828125 121.769531 C 180.71875 121.769531 176.753906 116.410156 175.070312 113.964844 C 170.109375 106.796875 166.382812 100.539062 163.273438 94.1875 C 161.851562 91.261719 161.121094 89.921875 160.664062 89.382812 C 159.308594 87.808594 156.921875 86.328125 154.640625 85.667969 C 152.640625 85.101562 151.546875 84.960938 148.925781 84.976562 C 146.078125 84.976562 144.65625 85.238281 142.75 86.054688 C 141.039062 86.785156 140.210938 87.351562 138.898438 88.621094 C 136.453125 91.011719 135.542969 92.988281 133.25 100.84375 C 130.167969 111.394531 127.105469 118.867188 122.792969 126.324219 L 122.117188 127.5 L 112.589844 127.539062 L 103.046875 127.570312 L 102.742188 125.398438 C 101.859375 118.894531 101.707031 113.660156 102.257812 107.265625 C 103.667969 90.707031 110.351562 75.128906 121.46875 62.4375 C 134.078125 48.019531 151.660156 38.722656 170.746094 36.363281 C 174.085938 35.949219 176.351562 35.824219 180.34375 35.824219 C 187.289062 35.824219 192.996094 36.515625 199.5 38.144531 C 227.191406 45.089844 249.082031 66.828125 256.234375 94.492188 C 257.699219 100.140625 258.457031 105.484375 258.734375 111.988281 L 258.816406 114.308594 L 274.535156 114.308594 L 274.535156 113.496094 C 274.535156 111.960938 274.257812 107.046875 274.035156 104.917969 C 271.6875 81.082031 260.5 59.316406 242.421875 43.378906 C 232.078125 34.261719 219.566406 27.441406 206.101562 23.585938 C 196.449219 20.8125 185.730469 19.609375 175.511719 20.132812 Z M 175.511719 20.132812 " fill-opacity="1" fill-rule="nonzero"/></g><g fill="#000000" fill-opacity="1"><g transform="translate(289.92226, 114.53399)"><g><path d="M 39.015625 -14.0625 L 37 -8.125 L 35 -14.0625 L 18.078125 -59.609375 L 7.109375 -59.609375 L 7.109375 0 L 14.234375 0 L 14.234375 -39.515625 L 13.984375 -50.3125 L 17.921875 -40.9375 L 33.3125 0 L 40.6875 0 L 54.921875 -39.59375 L 59.1875 -50.234375 L 59.015625 -39.515625 L 59.015625 0 L 66.140625 0 L 66.140625 -59.609375 L 55.34375 -59.609375 Z M 39.015625 -14.0625 "/></g></g></g><g fill="#000000" fill-opacity="1"><g transform="translate(356.90119, 114.53399)"><g><path d="M 57.4375 0 L 34.40625 -59.609375 L 25.625 -59.609375 L 2.515625 0 L 10.796875 0 L 17.25 -17.5 L 42.53125 -17.5 L 48.8125 0 Z M 28.046875 -46.875 L 30.0625 -53.078125 L 31.984375 -46.875 L 40.09375 -24.28125 L 19.75 -24.28125 Z M 28.046875 -46.875 "/></g></g></g><g fill="#000000" fill-opacity="1"><g transform="translate(410.568056, 114.53399)"><g><path d="M 51.484375 -19 C 50.90625 -24.53125 47.546875 -27.96875 42.359375 -28.96875 C 48.640625 -30.71875 53 -36.171875 53 -43.875 C 53 -53.40625 46.125 -59.609375 34.75 -59.609375 L 7.109375 -59.609375 L 7.109375 0 L 14.90625 0 L 14.90625 -25.703125 L 33.3125 -25.703125 C 40.265625 -25.703125 43.28125 -22.9375 44.03125 -15.90625 L 45.796875 0 L 53.65625 0 Z M 14.90625 -32.484375 L 14.90625 -52.828125 L 33.40625 -52.828125 C 40.9375 -52.828125 45.046875 -49.390625 45.046875 -43.109375 C 45.046875 -36.328125 40.1875 -32.484375 32.0625 -32.484375 Z M 14.90625 -32.484375 "/></g></g></g><g fill="#000000" fill-opacity="1"><g transform="translate(464.234927, 114.53399)"><g><path d="M 55.59375 -59.609375 L 45.203125 -59.609375 L 14.90625 -30.390625 L 14.90625 -59.609375 L 7.109375 -59.609375 L 7.109375 0 L 14.90625 0 L 14.90625 -20.84375 L 24.953125 -30.640625 L 32.5625 -20.265625 L 47.546875 0 L 57.265625 0 L 30.390625 -35.578125 Z M 55.59375 -59.609375 "/></g></g></g><g fill="#000000" fill-opacity="1"><g transform="translate(517.744572, 114.53399)"><g/></g></g><g fill="#000000" fill-opacity="1"><g transform="translate(534.070683, 114.53399)"><g/></g></g><g fill="#000000" fill-opacity="1"><g transform="translate(550.402413, 114.53399)"><g><path d="M 27.375 -59.609375 L 7.109375 -59.609375 L 7.109375 0 L 25.703125 0 C 45.875 0 54.828125 -11.796875 54.828125 -29.796875 C 54.828125 -48.140625 46.21875 -59.609375 27.375 -59.609375 Z M 14.90625 -6.78125 L 14.90625 -52.828125 L 25.359375 -52.828125 C 40.1875 -52.828125 46.875 -45.625 46.875 -29.796875 C 46.875 -14.3125 40.515625 -6.78125 24.953125 -6.78125 Z M 14.90625 -6.78125 "/></g></g></g><g fill="#000000" fill-opacity="1"><g transform="translate(603.818109, 114.53399)"><g><path d="M 14.90625 -27.296875 L 46.625 -27.296875 L 46.625 -34.078125 L 14.90625 -34.078125 L 14.90625 -52.828125 L 49.3125 -52.828125 L 49.3125 -59.609375 L 7.109375 -59.609375 L 7.109375 0 L 50.0625 0 L 50.0625 -6.78125 L 14.90625 -6.78125 Z M 14.90625 -27.296875 "/></g></g></g><g fill="#000000" fill-opacity="1"><g transform="translate(653.047628, 114.53399)"><g><path d="M 32.3125 1.421875 C 46.296875 1.421875 55.5 -7.375 57.515625 -21.6875 L 49.8125 -21.6875 C 48.390625 -10.96875 41.9375 -5.53125 32.5625 -5.53125 C 20.421875 -5.53125 13.3125 -14.90625 13.3125 -29.796875 C 13.3125 -44.703125 20.515625 -53.75 32.5625 -53.75 C 40.765625 -53.75 46.96875 -49.484375 48.8125 -41.609375 L 56.765625 -41.609375 C 54.921875 -53.328125 44.703125 -60.703125 32.234375 -60.703125 C 15.828125 -60.703125 5.359375 -48.046875 5.359375 -29.796875 C 5.359375 -11.71875 15.578125 1.421875 32.3125 1.421875 Z M 32.3125 1.421875 "/></g></g></g><g fill="#000000" fill-opacity="1"><g transform="translate(708.054072, 114.53399)"><g><path d="M 33.484375 1.421875 C 50.234375 1.421875 61.703125 -11.390625 61.703125 -29.796875 C 61.703125 -47.890625 50.234375 -60.703125 33.484375 -60.703125 C 16.828125 -60.703125 5.359375 -47.890625 5.359375 -29.796875 C 5.359375 -11.546875 16.828125 1.421875 33.484375 1.421875 Z M 33.578125 -5.53125 C 21.6875 -5.53125 13.3125 -14.984375 13.3125 -29.796875 C 13.3125 -44.453125 21.6875 -53.75 33.578125 -53.75 C 45.375 -53.75 53.75 -44.453125 53.75 -29.796875 C 53.75 -14.8125 45.546875 -5.53125 33.578125 -5.53125 Z M 33.578125 -5.53125 "/></g></g></g><g fill="#000000" fill-opacity="1"><g transform="translate(768.837448, 114.53399)"><g><path d="M 51.484375 -19 C 50.90625 -24.53125 47.546875 -27.96875 42.359375 -28.96875 C 48.640625 -30.71875 53 -36.171875 53 -43.875 C 53 -53.40625 46.125 -59.609375 34.75 -59.609375 L 7.109375 -59.609375 L 7.109375 0 L 14.90625 0 L 14.90625 -25.703125 L 33.3125 -25.703125 C 40.265625 -25.703125 43.28125 -22.9375 44.03125 -15.90625 L 45.796875 0 L 53.65625 0 Z M 14.90625 -32.484375 L 14.90625 -52.828125 L 33.40625 -52.828125 C 40.9375 -52.828125 45.046875 -49.390625 45.046875 -43.109375 C 45.046875 -36.328125 40.1875 -32.484375 32.0625 -32.484375 Z M 14.90625 -32.484375 "/></g></g></g><g fill="#000000" fill-opacity="1"><g transform="translate(292.288112, 171.291784)"><g><path d="M 20.765625 -39.109375 L 4.671875 -39.109375 L 4.671875 0 L 9.78125 0 L 9.78125 -16.3125 L 20.65625 -16.3125 C 28.234375 -16.3125 33.34375 -20.15625 33.34375 -27.90625 C 33.34375 -35.375 28.34375 -39.109375 20.765625 -39.109375 Z M 9.78125 -20.765625 L 9.78125 -34.671875 L 20.484375 -34.671875 C 25.328125 -34.671875 28.234375 -32.515625 28.234375 -27.859375 C 28.234375 -23.234375 25.4375 -20.765625 20.765625 -20.765625 Z M 9.78125 -20.765625 "/></g></g></g><g fill="#000000" fill-opacity="1"><g transform="translate(323.873545, 171.291784)"><g><path d="M 17.859375 -29.109375 C 13.5625 -29.109375 10.828125 -26.703125 9.125 -22.90625 L 9.125 -28.34375 L 4.390625 -28.34375 L 4.390625 0 L 9.453125 0 L 9.453125 -15.5 C 9.671875 -21.265625 13.84375 -24.171875 17.578125 -24.171875 C 18.078125 -24.171875 18.625 -24.171875 19.390625 -24.125 L 19.390625 -29 C 18.90625 -29.0625 18.40625 -29.109375 17.859375 -29.109375 Z M 17.859375 -29.109375 "/></g></g></g><g fill="#000000" fill-opacity="1"><g transform="translate(339.968146, 171.291784)"><g><path d="M 29.0625 -14.828125 C 29.0625 -23.671875 24.0625 -29 16.09375 -29 C 7.640625 -29 2.75 -22.96875 2.75 -14.28125 C 2.75 -5.546875 7.75 0.65625 16.203125 0.65625 C 22.25 0.65625 26.859375 -2.53125 28.671875 -8.078125 L 24.0625 -8.625 C 22.75 -5.328125 20.328125 -3.46875 16.375 -3.46875 C 11.265625 -3.46875 7.96875 -6.59375 7.796875 -12.96875 L 29.0625 -12.96875 Z M 16.15625 -24.890625 C 20.765625 -24.890625 23.671875 -21.96875 24.34375 -16.59375 L 7.859375 -16.59375 C 8.34375 -22.140625 11.640625 -24.890625 16.15625 -24.890625 Z M 16.15625 -24.890625 "/></g></g></g><g fill="#000000" fill-opacity="1"><g transform="translate(367.653409, 171.291784)"><g><path d="M 34.5 -29.0625 C 30.375 -29.0625 27.359375 -27.40625 25.484375 -24.125 C 24.234375 -27.359375 21.484375 -29.0625 17.640625 -29.0625 C 13.734375 -29.0625 10.984375 -27.359375 9.125 -24.34375 L 9.125 -28.34375 L 4.390625 -28.34375 L 4.390625 0 L 9.453125 0 L 9.453125 -15.109375 C 9.453125 -22.421875 13.078125 -24.671875 16.375 -24.671875 C 19.5 -24.671875 21.265625 -22.6875 21.265625 -19.390625 L 21.265625 0 L 26.3125 0 L 26.3125 -15.375 C 26.3125 -22.6875 29.9375 -24.671875 33.234375 -24.671875 C 36.375 -24.671875 38.125 -22.6875 38.125 -19.390625 L 38.125 0 L 43.1875 0 L 43.1875 -19.453125 C 43.1875 -26.046875 40.046875 -29.0625 34.5 -29.0625 Z M 34.5 -29.0625 "/></g></g></g><g fill="#000000" fill-opacity="1"><g transform="translate(411.104155, 171.291784)"><g><path d="M 9.453125 -33.671875 L 9.453125 -39.109375 L 4.390625 -39.109375 L 4.390625 -33.671875 Z M 9.453125 0 L 9.453125 -28.34375 L 4.390625 -28.34375 L 4.390625 0 Z M 9.453125 0 "/></g></g></g><g fill="#000000" fill-opacity="1"><g transform="translate(420.826644, 171.291784)"><g><path d="M 23.1875 -12.578125 C 23.1875 -5.828125 19.015625 -3.6875 15.109375 -3.6875 C 11.265625 -3.6875 9.453125 -5.765625 9.453125 -9.671875 L 9.453125 -28.34375 L 4.390625 -28.34375 L 4.390625 -8.6875 C 4.390625 -2.6875 8.078125 0.71875 14.015625 0.71875 C 18.1875 0.71875 21.59375 -0.984375 23.515625 -4.015625 L 23.515625 0 L 28.234375 0 L 28.234375 -28.34375 L 23.1875 -28.34375 Z M 23.1875 -12.578125 "/></g></g></g><g fill="#000000" fill-opacity="1"><g transform="translate(449.335881, 171.291784)"><g><path d="M 34.5 -29.0625 C 30.375 -29.0625 27.359375 -27.40625 25.484375 -24.125 C 24.234375 -27.359375 21.484375 -29.0625 17.640625 -29.0625 C 13.734375 -29.0625 10.984375 -27.359375 9.125 -24.34375 L 9.125 -28.34375 L 4.390625 -28.34375 L 4.390625 0 L 9.453125 0 L 9.453125 -15.109375 C 9.453125 -22.421875 13.078125 -24.671875 16.375 -24.671875 C 19.5 -24.671875 21.265625 -22.6875 21.265625 -19.390625 L 21.265625 0 L 26.3125 0 L 26.3125 -15.375 C 26.3125 -22.6875 29.9375 -24.671875 33.234375 -24.671875 C 36.375 -24.671875 38.125 -22.6875 38.125 -19.390625 L 38.125 0 L 43.1875 0 L 43.1875 -19.453125 C 43.1875 -26.046875 40.046875 -29.0625 34.5 -29.0625 Z M 34.5 -29.0625 "/></g></g></g><g fill="#000000" fill-opacity="1"><g transform="translate(492.790439, 171.291784)"><g/></g></g><g fill="#000000" fill-opacity="1"><g transform="translate(503.501699, 171.291784)"><g/></g></g><g fill="#000000" fill-opacity="1"><g transform="translate(514.223604, 171.291784)"><g><path d="M 18.78125 0.828125 C 29.609375 0.828125 33.890625 -4.5625 33.890625 -10.765625 C 33.890625 -16.859375 29.9375 -20.328125 22.6875 -21.859375 L 15.828125 -23.34375 C 10.9375 -24.390625 9.015625 -26.15625 9.015625 -29.234375 C 9.015625 -33.34375 12.3125 -35.703125 17.90625 -35.703125 C 23.890625 -35.703125 27.359375 -33.078125 27.796875 -28.125 L 32.6875 -28.125 C 32.03125 -35.65625 26.75 -39.890625 18.078125 -39.890625 C 9.0625 -39.890625 4.171875 -35.375 4.171875 -28.78125 C 4.171875 -22.578125 8.796875 -19.9375 15.15625 -18.625 L 20.65625 -17.46875 C 26.75 -16.203125 28.953125 -14.171875 28.953125 -10.5 C 28.953125 -6.09375 25.65625 -3.34375 18.953125 -3.34375 C 12.203125 -3.34375 8.234375 -6.15625 7.6875 -12.640625 L 2.796875 -12.640625 C 3.46875 -3.625 9.015625 0.828125 18.78125 0.828125 Z M 18.78125 0.828125 "/></g></g></g><g fill="#000000" fill-opacity="1"><g transform="translate(546.797815, 171.291784)"><g><path d="M 16.375 0.71875 C 24.34375 0.71875 30.046875 -5.5 30.046875 -14.390625 C 30.046875 -23.40625 24.453125 -29.0625 16.53125 -29.0625 C 8.40625 -29.0625 2.75 -23.296875 2.75 -14.171875 C 2.75 -5.28125 8.234375 0.71875 16.375 0.71875 Z M 16.375 -3.515625 C 11.046875 -3.515625 7.796875 -7.75 7.796875 -14.171875 C 7.796875 -20.609375 10.984375 -24.828125 16.375 -24.828125 C 21.859375 -24.828125 25 -20.828125 25 -14.390625 C 25 -7.96875 21.859375 -3.515625 16.375 -3.515625 Z M 16.375 -3.515625 "/></g></g></g><g fill="#000000" fill-opacity="1"><g transform="translate(575.471843, 171.291784)"><g><path d="M 9.453125 0 L 9.453125 -39.109375 L 4.390625 -39.109375 L 4.390625 0 Z M 9.453125 0 "/></g></g></g><g fill="#000000" fill-opacity="1"><g transform="translate(585.194338, 171.291784)"><g><path d="M 9.453125 -33.671875 L 9.453125 -39.109375 L 4.390625 -39.109375 L 4.390625 -33.671875 Z M 9.453125 0 L 9.453125 -28.34375 L 4.390625 -28.34375 L 4.390625 0 Z M 9.453125 0 "/></g></g></g><g fill="#000000" fill-opacity="1"><g transform="translate(594.916828, 171.291784)"><g><path d="M 23.5625 -24.9375 C 21.75 -27.40625 18.671875 -28.953125 15 -28.953125 C 7.796875 -28.953125 2.75 -23.1875 2.75 -14.609375 C 2.75 -5.828125 7.421875 0.609375 15.109375 0.609375 C 19.234375 0.609375 22.53125 -1.53125 24.234375 -4.5 L 24.234375 0 L 28.625 0 L 28.625 -39.109375 L 23.5625 -39.109375 Z M 15.609375 -3.734375 C 10.71875 -3.734375 7.796875 -8.015625 7.796875 -14.609375 C 7.796875 -21.09375 10.828125 -24.609375 15.71875 -24.609375 C 20.4375 -24.609375 23.84375 -21.203125 23.84375 -14.5 C 23.84375 -7.796875 20.328125 -3.734375 15.609375 -3.734375 Z M 15.609375 -3.734375 "/></g></g></g><g fill="#000000" fill-opacity="1"><g transform="translate(623.818929, 171.291784)"><g/></g></g><g fill="#000000" fill-opacity="1"><g transform="translate(634.53019, 171.291784)"><g/></g></g><g fill="#000000" fill-opacity="1"><g transform="translate(645.252094, 171.291784)"><g><path d="M 18.78125 0.828125 C 29.609375 0.828125 33.890625 -4.5625 33.890625 -10.765625 C 33.890625 -16.859375 29.9375 -20.328125 22.6875 -21.859375 L 15.828125 -23.34375 C 10.9375 -24.390625 9.015625 -26.15625 9.015625 -29.234375 C 9.015625 -33.34375 12.3125 -35.703125 17.90625 -35.703125 C 23.890625 -35.703125 27.359375 -33.078125 27.796875 -28.125 L 32.6875 -28.125 C 32.03125 -35.65625 26.75 -39.890625 18.078125 -39.890625 C 9.0625 -39.890625 4.171875 -35.375 4.171875 -28.78125 C 4.171875 -22.578125 8.796875 -19.9375 15.15625 -18.625 L 20.65625 -17.46875 C 26.75 -16.203125 28.953125 -14.171875 28.953125 -10.5 C 28.953125 -6.09375 25.65625 -3.34375 18.953125 -3.34375 C 12.203125 -3.34375 8.234375 -6.15625 7.6875 -12.640625 L 2.796875 -12.640625 C 3.46875 -3.625 9.015625 0.828125 18.78125 0.828125 Z M 18.78125 0.828125 "/></g></g></g><g fill="#000000" fill-opacity="1"><g transform="translate(677.826305, 171.291784)"><g><path d="M 23.1875 -12.578125 C 23.1875 -5.828125 19.015625 -3.6875 15.109375 -3.6875 C 11.265625 -3.6875 9.453125 -5.765625 9.453125 -9.671875 L 9.453125 -28.34375 L 4.390625 -28.34375 L 4.390625 -8.6875 C 4.390625 -2.6875 8.078125 0.71875 14.015625 0.71875 C 18.1875 0.71875 21.59375 -0.984375 23.515625 -4.015625 L 23.515625 0 L 28.234375 0 L 28.234375 -28.34375 L 23.1875 -28.34375 Z M 23.1875 -12.578125 "/></g></g></g><g fill="#000000" fill-opacity="1"><g transform="translate(706.335544, 171.291784)"><g><path d="M 17.859375 -29.109375 C 13.5625 -29.109375 10.828125 -26.703125 9.125 -22.90625 L 9.125 -28.34375 L 4.390625 -28.34375 L 4.390625 0 L 9.453125 0 L 9.453125 -15.5 C 9.671875 -21.265625 13.84375 -24.171875 17.578125 -24.171875 C 18.078125 -24.171875 18.625 -24.171875 19.390625 -24.125 L 19.390625 -29 C 18.90625 -29.0625 18.40625 -29.109375 17.859375 -29.109375 Z M 17.859375 -29.109375 "/></g></g></g><g fill="#000000" fill-opacity="1"><g transform="translate(722.430148, 171.291784)"><g><path d="M 18.296875 -34.890625 L 18.296875 -39.109375 L 15.265625 -39.109375 C 9.34375 -39.109375 6.75 -36.53125 6.75 -30.59375 L 6.75 -28.1875 L 2.203125 -28.34375 L 2.203125 -24.453125 L 6.75 -24.671875 L 6.75 0 L 11.8125 0 L 11.8125 -24.671875 L 18.296875 -24.453125 L 18.296875 -28.34375 L 11.8125 -28.125 L 11.8125 -31.3125 C 11.8125 -34 12.6875 -34.890625 15.375 -34.890625 Z M 18.296875 -34.890625 "/></g></g></g><g fill="#000000" fill-opacity="1"><g transform="translate(737.975423, 171.291784)"><g><path d="M 29.390625 -3.734375 C 27.53125 -3.734375 26.921875 -4.34375 26.921875 -6.203125 L 26.921875 -20.046875 C 26.921875 -26.265625 22.859375 -29.109375 15.828125 -29.109375 C 8.515625 -29.109375 4.5 -26.15625 4.015625 -19.890625 L 9.015625 -19.890625 C 9.34375 -23.671875 11.375 -24.9375 15.4375 -24.9375 C 19.828125 -24.9375 21.8125 -23.515625 21.8125 -20.546875 L 21.8125 -19.453125 C 21.8125 -18.125 21.15625 -17.46875 19.78125 -17.3125 L 12.53125 -16.375 C 5.65625 -15.5 2.859375 -12.203125 2.859375 -7.53125 C 2.859375 -2.3125 6.59375 0.71875 12.359375 0.71875 C 17.203125 0.71875 20.828125 -1.421875 22.640625 -4.171875 C 22.859375 -1.375 24.5 0 27.53125 0 L 30.21875 0 L 30.21875 -3.734375 Z M 13.296875 -3.1875 C 10 -3.1875 7.859375 -4.828125 7.859375 -7.75 C 7.859375 -10.265625 9.390625 -12.03125 13.34375 -12.640625 L 21.8125 -13.90625 L 21.8125 -9.9375 C 21.8125 -6.3125 17.859375 -3.1875 13.296875 -3.1875 Z M 13.296875 -3.1875 "/></g></g></g><g fill="#000000" fill-opacity="1"><g transform="translate(765.166291, 171.291784)"><g><path d="M 15.875 0.71875 C 23.015625 0.71875 27.140625 -3.234375 28.125 -9.890625 L 23.40625 -9.890625 C 22.640625 -5.875 20.328125 -3.515625 16.15625 -3.515625 C 10.765625 -3.515625 7.796875 -7.46875 7.796875 -14.171875 C 7.796875 -20.875 10.5 -24.828125 16.203125 -24.828125 C 20.15625 -24.828125 22.578125 -22.90625 23.34375 -19.0625 L 28.125 -19.0625 C 27.140625 -25.59375 22.6875 -29.0625 16.15625 -29.0625 C 7.96875 -29.0625 2.75 -23.515625 2.75 -13.953125 C 2.75 -4.390625 7.96875 0.71875 15.875 0.71875 Z M 15.875 0.71875 "/></g></g></g><g fill="#000000" fill-opacity="1"><g transform="translate(791.643036, 171.291784)"><g><path d="M 29.0625 -14.828125 C 29.0625 -23.671875 24.0625 -29 16.09375 -29 C 7.640625 -29 2.75 -22.96875 2.75 -14.28125 C 2.75 -5.546875 7.75 0.65625 16.203125 0.65625 C 22.25 0.65625 26.859375 -2.53125 28.671875 -8.078125 L 24.0625 -8.625 C 22.75 -5.328125 20.328125 -3.46875 16.375 -3.46875 C 11.265625 -3.46875 7.96875 -6.59375 7.796875 -12.96875 L 29.0625 -12.96875 Z M 16.15625 -24.890625 C 20.765625 -24.890625 23.671875 -21.96875 24.34375 -16.59375 L 7.859375 -16.59375 C 8.34375 -22.140625 11.640625 -24.890625 16.15625 -24.890625 Z M 16.15625 -24.890625 "/></g></g></g></svg>