<?xml version="1.0" encoding="utf-8"?>
<!-- Generator: Adobe Illustrator 19.0.0, SVG Export Plug-In . SVG Version: 6.00 Build 0)  -->
<svg version="1.1" id="Ebene_1" xmlns="http://www.w3.org/2000/svg" xmlns:xlink="http://www.w3.org/1999/xlink" x="0px" y="0px"
	 viewBox="0 0 400 129" style="enable-background:new 0 0 400 129;" xml:space="preserve">
<style type="text/css">
	.st0{fill:#404040;}
</style>
<g id="XMLID_2_">
	<path id="XMLID_20_" class="st0" d="M332.2,87.8c-1,0-1.9,0.3-2.6,1c-0.9,0.9-1.3,2.3-1.3,4.1c0,1.8,0.4,3.2,1.3,4.1
		c0.7,0.7,1.5,1,2.6,1c1,0,1.9-0.3,2.5-1c0.9-0.9,1.3-2.2,1.3-4.1c0-1.8-0.5-3.2-1.3-4.1C334,88.2,333.2,87.8,332.2,87.8z
		 M363.1,94.3h-3.8v3.9h3.6c0.8,0,1.4-0.2,1.8-0.5c0.4-0.3,0.6-0.8,0.6-1.6c0-0.5-0.1-0.9-0.4-1.3C364.4,94.5,363.9,94.3,363.1,94.3
		z M361.5,84.7c-3.4,0-6.5,1.2-8.9,3.2c-2.2,1.3-4.8,0.6-4.8,0.6c-2.4-0.5-3.7-2.9-3.7-2.9l0,0c-2.3-4.6-7-7.7-12.5-7.7
		c-4.1,0-7.8,1.8-10.3,4.6c-0.4,0.4-1.9,1.5-4.1,1.5c-2.3-0.1-3.7-1.4-4-1.8c-2.5-3.5-6.7-5.8-11.4-5.8c-7.5,0-13.6,5.9-14,13.3
		c-0.4,2.3-2.1,3.7-2.1,3.7c-1.4,1.3-3.4,1.3-3.9,1.3c-1.5-0.5-3-0.8-4.7-0.8c-2.9,0-5.6,0.9-7.8,2.4c-0.4,0.2-2.7,1.6-5.4,0.9
		c0,0-2.4-0.6-4-3.3c-2.3-4.5-7-7.7-12.4-7.7c-7.7,0-13.9,6.2-13.9,13.9c0,7.7,6.2,13.9,13.9,13.9c3,0,5.7-0.9,7.9-2.5
		c1-0.5,2.7-1.1,4.4-0.9c0,0,3.1,0.4,4.6,3.3c0,0.1,0.1,0.2,0.1,0.3c0.1,0.2,0.2,0.3,0.2,0.5l0-0.1c2.4,4.3,7,7.3,12.3,7.3
		c7.7,0,14-6.3,14-14c0,0,0,0,0,0c0.8-2.3,2.4-3.3,2.4-3.3c1.5-1,3.2-1,3.6-1c1.5,0.5,3.1,0.8,4.7,0.8c4.2,0,8-1.9,10.5-4.8
		c0.5-0.4,2-1.4,4.1-1.3c2.3,0.2,3.6,1.4,4,1.8c2.5,3.4,6.6,5.6,11.2,5.6c3.2,0,6.2-1.1,8.6-3c2.3-1.4,4.6-0.8,4.6-0.8
		c3.2,0.9,4.1,3,4.1,3l0,0c2.3,4.5,7,7.6,12.5,7.6c7.7,0,14-6.3,14-14C375.5,90.9,369.2,84.7,361.5,84.7z M253.1,104.9
		c-1,1.8-2.6,2.7-4.7,2.7h-6.3V92.8h6.4c2.2,0,3.7,0.8,4.7,2.5c0.7,1.2,1.1,2.7,1.1,4.6C254.3,101.9,253.9,103.5,253.1,104.9z
		 M277.4,97.7h2.9l-4.5,2.6L277.4,97.7z M282.7,116.5h-10.8v-14.7h10.5v2.6h-7.6v3.1h6.9v2.6h-6.9v3.8h7.9V116.5z M298.9,94.3
		c0.6,1,1.6,1.5,2.8,1.5c0.8,0,1.5-0.2,2-0.7c0.5-0.5,0.9-1.2,1.1-2.1h3c-0.3,1.7-1,3-2,4c-1.1,1-2.5,1.6-4.2,1.6
		c-2,0-3.6-0.7-4.7-2c-1.2-1.4-1.9-3.3-1.9-5.8c0-2.5,0.6-4.4,1.9-5.8c1.2-1.3,2.8-2,4.7-2c2,0,3.5,0.6,4.7,1.8
		c0.9,1,1.5,2.1,1.6,3.5h-3c-0.2-0.7-0.4-1.3-0.7-1.6c-0.5-0.6-1.3-0.9-2.4-0.9c-0.9,0-1.7,0.3-2.4,1c-0.8,0.9-1.2,2.2-1.2,4.1
		C298.1,92.2,298.3,93.4,298.9,94.3z M336.4,99.4c-1.2,0.9-2.6,1.3-4.2,1.3c-1.6,0-3-0.4-4.2-1.3c-1.8-1.3-2.7-3.5-2.7-6.4
		c0-3,0.9-5.1,2.7-6.5c1.2-0.9,2.6-1.3,4.2-1.3c1.6,0,3,0.4,4.2,1.3c1.8,1.3,2.8,3.5,2.8,6.5C339.1,95.9,338.2,98.1,336.4,99.4z
		 M368.5,106.4h-3.4c-0.1-0.4-0.2-0.8-0.2-1.2c-0.1-0.5-0.1-1.1-0.1-1.8c0-1.1-0.1-1.8-0.3-2.1c-0.3-0.4-1-0.6-2-0.6h-3.2v5.7h-3
		V91.8h7.4c1.7,0,2.9,0.5,3.7,1.6c0.6,0.7,0.8,1.6,0.8,2.5c0,0.8-0.2,1.5-0.6,2.2c-0.4,0.6-1,1.1-1.7,1.3c0.7,0.3,1.1,0.6,1.4,1
		c0.3,0.5,0.5,1.4,0.5,2.7c0,1.1,0,1.8,0.1,2.1c0.1,0.4,0.3,0.6,0.6,0.7V106.4z M247.9,95.3h-2.8v9.7h2.9c1.1,0,2-0.5,2.5-1.6
		c0.5-0.9,0.7-2,0.7-3.4c0-1.9-0.4-3.3-1.2-4C249.5,95.6,248.8,95.3,247.9,95.3z"/>
	<g id="XMLID_3_">
		<path id="XMLID_18_" class="st0" d="M80.4,20.4l-7.6,7.5c-4.8-5.1-10.5-7.7-16.9-7.7c-5.6,0-10.3,1.9-14.1,5.6
			c-3.8,3.7-5.7,8.2-5.7,13.6c0,5.5,2,10.2,5.9,14c3.9,3.8,8.8,5.7,14.5,5.7c3.7,0,6.9-0.8,9.5-2.3c2.6-1.6,4.6-4,6.2-7.3H55.6V39.3
			h28.8l0.1,2.4c0,5-1.3,9.7-3.9,14.2c-2.6,4.5-5.9,7.9-10.1,10.2c-4.1,2.4-8.9,3.5-14.5,3.5c-5.9,0-11.2-1.3-15.9-3.9
			c-4.6-2.6-8.3-6.2-11-11c-2.7-4.8-4.1-9.9-4.1-15.4c0-7.5,2.5-14.1,7.5-19.7c5.9-6.6,13.6-10,23.1-10c5,0,9.6,0.9,13.9,2.7
			C73.3,14,76.9,16.7,80.4,20.4z"/>
		<path id="XMLID_16_" class="st0" d="M94.4,11.1h10.8v46.6h16.1v10.5H94.4V11.1z"/>
		<path id="XMLID_13_" class="st0" d="M156.4,9.7c8.1,0,15,2.9,20.8,8.8c5.8,5.8,8.7,13,8.7,21.4c0,8.3-2.9,15.4-8.6,21.1
			c-5.7,5.8-12.7,8.6-20.9,8.6c-8.6,0-15.7-3-21.4-8.9c-5.7-5.9-8.5-12.9-8.5-21.1c0-5.5,1.3-10.5,4-15c2.6-4.6,6.3-8.2,10.9-10.9
			C146.1,11.1,151,9.7,156.4,9.7z M156.2,20.2c-5.3,0-9.7,1.8-13.3,5.5c-3.6,3.7-5.4,8.4-5.4,14c0,6.3,2.3,11.3,6.8,15
			c3.5,2.9,7.6,4.3,12.1,4.3c5.1,0,9.5-1.9,13.2-5.6c3.6-3.7,5.4-8.3,5.4-13.8c0-5.4-1.8-10.1-5.5-13.8
			C165.9,22.1,161.4,20.2,156.2,20.2z"/>
		<path id="XMLID_11_" class="st0" d="M192.5,49.7l11.2-1.1c0.7,3.8,2,6.5,4.1,8.3c2.1,1.8,4.8,2.6,8.3,2.6c3.7,0,6.5-0.8,8.4-2.4
			c1.9-1.6,2.8-3.4,2.8-5.5c0-1.3-0.4-2.5-1.2-3.4c-0.8-0.9-2.2-1.8-4.1-2.5c-1.3-0.5-4.4-1.3-9.2-2.5c-6.2-1.5-10.5-3.4-13-5.6
			c-3.5-3.1-5.2-7-5.2-11.5c0-2.9,0.8-5.6,2.5-8.1c1.6-2.5,4-4.5,7.1-5.8c3.1-1.3,6.8-2,11.2-2c7.1,0,12.5,1.6,16.1,4.7
			c3.6,3.2,5.5,7.4,5.7,12.6l-11.5,0.4c-0.5-2.9-1.5-5-3.1-6.3c-1.6-1.3-4-1.9-7.2-1.9c-3.3,0-5.9,0.7-7.8,2.1
			c-1.2,0.9-1.8,2.1-1.8,3.5c0,1.3,0.6,2.5,1.7,3.5c1.4,1.2,5,2.5,10.5,3.8c5.6,1.3,9.7,2.7,12.4,4.1c2.7,1.4,4.8,3.4,6.3,5.8
			c1.5,2.5,2.3,5.5,2.3,9.1c0,3.3-0.9,6.3-2.7,9.2c-1.8,2.9-4.4,5-7.7,6.4c-3.3,1.4-7.4,2.1-12.4,2.1c-7.2,0-12.7-1.7-16.6-5
			C195.6,61,193.3,56.1,192.5,49.7z"/>
		<path id="XMLID_9_" class="st0" d="M245.6,49.7l11.2-1.1c0.7,3.8,2,6.5,4.1,8.3c2.1,1.8,4.8,2.6,8.3,2.6c3.7,0,6.5-0.8,8.4-2.4
			c1.9-1.6,2.8-3.4,2.8-5.5c0-1.3-0.4-2.5-1.2-3.4c-0.8-0.9-2.2-1.8-4.1-2.5c-1.3-0.5-4.4-1.3-9.2-2.5c-6.2-1.5-10.5-3.4-13-5.6
			c-3.5-3.1-5.2-7-5.2-11.5c0-2.9,0.8-5.6,2.5-8.1c1.6-2.5,4-4.5,7.1-5.8c3.1-1.3,6.8-2,11.2-2c7.1,0,12.5,1.6,16.1,4.7
			c3.6,3.2,5.5,7.4,5.7,12.6l-11.5,0.4c-0.5-2.9-1.5-5-3.1-6.3c-1.6-1.3-4-1.9-7.2-1.9c-3.3,0-5.9,0.7-7.8,2.1
			c-1.2,0.9-1.8,2.1-1.8,3.5c0,1.3,0.6,2.5,1.7,3.5c1.4,1.2,5,2.5,10.5,3.8c5.6,1.3,9.7,2.7,12.4,4.1c2.7,1.4,4.8,3.4,6.3,5.8
			c1.5,2.5,2.3,5.5,2.3,9.1c0,3.3-0.9,6.3-2.7,9.2c-1.8,2.9-4.4,5-7.7,6.4c-3.3,1.4-7.4,2.1-12.4,2.1c-7.2,0-12.7-1.7-16.6-5
			C248.6,61,246.3,56.1,245.6,49.7z"/>
		<path id="XMLID_7_" class="st0" d="M301.6,11.1h10.8v57.1h-10.8V11.1z"/>
		<path id="XMLID_4_" class="st0" d="M341.9,11.1h11l22,57.1h-11.3l-4.5-11.8h-23.3l-4.6,11.8h-11.3L341.9,11.1z M347.5,26.3
			L339.8,46h15.4L347.5,26.3z"/>
	</g>
</g>
</svg>
