<?xml version="1.0" encoding="utf-8"?>
<!-- Generator: Adobe Illustrator 19.0.0, SVG Export Plug-In . SVG Version: 6.00 Build 0)  -->
<svg version="1.1" id="Ebene_1" xmlns="http://www.w3.org/2000/svg" xmlns:xlink="http://www.w3.org/1999/xlink" x="0px" y="0px"
	 viewBox="0 0 400 129" style="enable-background:new 0 0 400 129;" xml:space="preserve">
<style type="text/css">
	.st0{fill:#404040;}
</style>
<g id="XMLID_87_">
	<g id="XMLID_111_">
		<path id="XMLID_130_" class="st0" d="M76,23.1h13.7c0,0-1.5,0.8-2,1.4c-0.7,0.8-1.1,1.3-1.1,2.3v42.1c0,0.9,0.4,1.5,1,2.2
			c0.6,0.7,2,1.4,2,1.4H76c0.2-0.1,1.7-0.9,2.2-1.7c0.5-0.7,0.9-1.2,0.9-1.9V46.7H46.7v22.1c0,0.9,0.4,1.5,1,2.2
			c0.6,0.7,2,1.4,2,1.4H36c0.2-0.1,1.7-0.9,2.3-1.7c0.5-0.7,0.9-1.2,0.9-1.9V26.7c0-0.8-0.3-1.3-0.7-1.9c-0.6-0.8-2.1-1.6-2.3-1.7
			h13.7c-0.1,0-1.4,0.8-2,1.4c-0.7,0.9-1.2,1.2-1.2,2.7v16.4H79V27.3c0-1-0.2-1.6-0.8-2.5C77.7,24,76.2,23.2,76,23.1"/>
		<path id="XMLID_127_" class="st0" d="M99.5,42.1c3.4-3.1,7-4.1,12-4.1c8.5,0,13.9,3.3,13.9,9v21.5c0,0.8,0.4,1.3,1,1.8
			c0.6,0.5,1.2,0.8,2,0.8l-6.4,2.4l-2.7-1.9l-0.3-2.6c-0.1,0.1-6.5,4.8-12.8,4.7c-6-0.1-10.5-4.7-10.4-9.8c0.2-6.5,7.7-9.4,15.2-11
			c5.4-1.1,7.8-2.5,7.9-2.5l0-4.7c0-3.1-4-4.8-7.6-4.7c-9.3,0.1-11.8,10.7-11.7,10.9L99.5,42.1z M109.5,69.7c4.1,0.1,9.4-3,9.5-3.2
			V53.8c-0.3,0-3.7,1.1-6,1.7c-5.2,1.3-9.9,3.3-10.1,8C102.7,67.2,105.7,69.6,109.5,69.7"/>
		<path id="XMLID_126_" class="st0" d="M145.2,72.5H136c0.1-0.1,0.7-0.7,1-1.1c0.4-0.7,0.4-0.9,0.4-1.5V42.2c0-0.7-0.3-1.3-0.8-1.8
			c-0.7-0.6-2.1-1-2.4-1l9.7-1.9l-0.1,5.1c3-2,7.3-5.2,13.2-5.1c7.9,0.2,11.8,5.1,11.8,10.8l0.1,21.3c0,0.7,0,1.2,0.4,1.9
			c0.3,0.6,0.6,0.9,1.2,1.3H161c0.6-0.2,0.9-0.5,1.2-1c0.3-0.4,0.2-1.5,0.2-1.9V48.3c0-3.9-3.1-7.4-8.4-7.3c-2.7,0-6.5,1-10.2,3.9
			v24.6c0,0.8,0.2,1.3,0.6,1.9C144.6,71.9,144.9,72.1,145.2,72.5"/>
		<path id="XMLID_125_" class="st0" d="M209.4,34.8c0-0.3-4.1-9.5-13.5-9.4c-5.2,0-9.7,3-9.8,7.9c0,5.9,8.6,8.6,13.8,11
			c7.4,3.3,13.3,6.6,13.4,14.3c0.1,8.4-7.7,14.6-18.9,14.6c-6.3,0-12.7-2.9-15.3-5.2l0.2-10.3c0,0,3.6,12,15.4,12
			c5.7,0,11-2.7,11.3-8.8c0.3-6-6.5-8.5-12.9-11c-7.7-3.1-13.8-7.4-13.7-14.6c0.2-8.2,8.2-13.2,17-13c8.7,0.2,12.3,3.4,12.4,3.5
			L209.4,34.8z"/>
		<path id="XMLID_124_" class="st0" d="M220.9,41.3l9.8-9.3v6.5h11v2.9h-11.1v22.5c0,3.4,3.3,6.4,7.4,6.4c3.6,0,5.4-1.6,5.8-2
			c-0.1,0.1-1.1,5.3-8.6,5.3c-6,0-10.5-3.8-10.5-9.8V41.3H220.9z"/>
		<path id="XMLID_121_" class="st0" d="M283.7,55.5c0.1,9.1-7.7,18.1-18,18c-10.6,0-18-8.3-18-17.9c0-9.1,7.3-17.8,18.1-17.9
			C276,37.8,283.6,46.5,283.7,55.5 M254.9,55.7c0,7,2.2,15.4,11,15.5c8.3,0,10.7-8.8,10.5-15.8c-0.1-6.9-3.4-15.2-10.9-15.2
			C257.3,40.3,254.9,48.8,254.9,55.7"/>
		<path id="XMLID_120_" class="st0" d="M299.4,72.5h-9.2c0.1-0.1,0.7-0.7,1-1.1c0.4-0.7,0.4-0.9,0.4-1.5V42.2c0-0.7-0.3-1.3-0.8-1.8
			c-0.7-0.6-2.1-1-2.4-1l9.7-1.9l-0.1,5.1c3-2,7.3-5.2,13.2-5.1c7.9,0.2,11.8,5.1,11.8,10.8l0,21.3c0,0.7,0,1.2,0.4,1.9
			c0.3,0.6,0.6,0.9,1.2,1.3h-9.4c0.6-0.2,0.9-0.5,1.2-1c0.3-0.4,0.2-1.5,0.2-1.9V48.3c0-3.9-3.1-7.4-8.4-7.3c-2.8,0-6.5,1-10.2,3.9
			v24.6c0,0.8,0.2,1.3,0.6,1.9C298.8,71.9,299.1,72.1,299.4,72.5"/>
		<path id="XMLID_117_" class="st0" d="M365.1,62.4c0,0.1-1.3,11-16.1,11.2C339,73.7,331.1,66,331,56c-0.1-9.5,7.8-17.9,18.6-17.6
			c14,0.3,15.7,12.1,15.7,14.9l-26.9,0c-2,5.3,2.9,15.6,13.1,16C360.3,69.5,365,62.5,365.1,62.4 M358.1,50.2
			c0.6-3.1-3.1-9.6-8.6-9.7c-8.1-0.1-11.1,7.9-10.8,9.7H358.1z"/>
		<g id="XMLID_112_">
			<path id="XMLID_113_" class="st0" d="M367.8,30.7c6.4,0,6.4,9.6,0,9.6C361.4,40.3,361.4,30.7,367.8,30.7z M367.8,39.8
				c5.7,0,5.7-8.6,0-8.6C362.1,31.2,362.1,39.8,367.8,39.8z M367.3,35.3l0.3,0c0.7,0,1.5-0.5,1.4-1.2c0-0.5-0.3-0.9-0.9-1
				c-0.4-0.1-0.9,0-1,0l-0.1,0v4.2c0,0.1,0,0.2,0.1,0.3c0.1,0.1,0.3,0.1,0.4,0.1l0.2,0v0.2h-0.1c-0.1,0-0.6-0.1-0.9-0.1
				c-0.4,0-0.8,0.1-1,0.1h-0.1v-0.2l0.2,0c0.1,0,0.3,0,0.4-0.1c0.1-0.1,0.1-0.2,0.1-0.3v-3.9c0-0.2,0-0.2-0.1-0.3
				c-0.1-0.1-0.5-0.1-0.5-0.1h-0.1v-0.2h0.1c0.1,0,0.6,0,1,0c0.5,0,1.3,0,1.4,0l0.1,0c0.5,0,1.2,0.2,1.4,0.8c0.2,0.6,0,1.2-0.6,1.6
				c-0.2,0.2-0.6,0.2-0.7,0.3l-0.1,0l1.7,2.2c0,0,0.1,0.1,0.2,0.1c0,0,0.2,0.1,0.2,0.1h0v0.2l-0.1,0c-0.2,0-0.3,0-0.4,0
				c-0.2,0-0.3,0-0.4,0l-0.1,0l-2.1-2.7L367.3,35.3z"/>
		</g>
	</g>
	<g id="XMLID_88_">
		<path id="XMLID_108_" class="st0" d="M36.5,95.1c0-5.7,5.4-10.3,11.6-10.1c5.9,0.1,11,4.1,11,9.8c0,5.8-5.3,9.6-8.6,10.2
			c2,1.3,3.2,2,5.4,3.1c2.6,1.2,4.1,1.8,6.8,2.6c-1.1,0.2-1.7,0.3-2.8,0.3c-2.1,0-4.5-0.2-6.6-1.5c-2.4-1.4-3.5-2.2-5.2-4.1
			C41.9,105.6,36.5,100.9,36.5,95.1 M39.7,95.2c0.1,4.5,3.2,8.8,8.2,8.8c5.5,0,8-4.6,7.9-9.1c-0.1-4.4-3-8.5-7.6-8.7
			C42.8,86,39.7,90.2,39.7,95.2"/>
		<path id="XMLID_107_" class="st0" d="M80.8,93.7c0-0.5-0.1-0.9-0.4-1.3c-0.1-0.2-0.6-0.4-1-0.4l3.8-0.9v12.6
			c0,0.3,0.1,0.5,0.3,0.8c0.2,0.2,0.5,0.3,0.8,0.3l-2.5,0.9c-0.3-0.2-0.4-0.3-0.6-0.6c-0.3-0.5-0.4-0.9-0.3-1.6
			c-1.1,1.3-2.8,2.3-4.8,2.2c-2.9-0.1-4.5-2-4.5-4.4l0-8.1c0-0.4-0.3-0.6-0.6-0.9c-0.3-0.2-0.8-0.3-0.9-0.3l3.8-1v9.6
			c0,1.8,1.2,3.6,3.2,3.5c1.1,0,2.9-0.8,3.7-1.6V93.7z"/>
		<path id="XMLID_104_" class="st0" d="M96.2,92.9c1.3-1.3,2.6-1.7,4.4-1.7c3.2,0,5.1,1.3,5.1,3.7v8.7c0,0.3,0.2,0.5,0.4,0.7
			c0.2,0.2,0.4,0.3,0.8,0.3l-2.4,1l-1-0.8l-0.1-1.1c0,0.1-2.4,1.9-4.7,1.9c-2.2,0-3.9-1.9-3.8-4c0.1-2.6,2.8-3.8,5.6-4.5
			c2-0.4,2.9-1,2.9-1l0-1.9c0-1.3-1.5-1.9-2.8-1.9c-3.4,0.1-4.3,4.3-4.3,4.4L96.2,92.9z M99.9,104.1c1.5,0,3.5-1.2,3.5-1.3v-5.1
			c-0.1,0-1.4,0.4-2.2,0.7c-1.9,0.5-3.7,1.3-3.7,3.3C97.4,103,98.5,104,99.9,104.1"/>
		<path id="XMLID_103_" class="st0" d="M120.9,104.1c0,0.3,0.1,0.4,0.3,0.6c0.2,0.2,0.3,0.3,0.6,0.5h-4.1c0,0,0.4-0.3,0.6-0.4
			c0.2-0.2,0.3-0.4,0.3-0.6V92.6c0-0.2-0.2-0.4-0.4-0.5c-0.3-0.2-0.7-0.3-0.8-0.3l3.5-0.9v2.9c1-1.3,2.2-2.7,3.6-2.7
			c0.5,0,0.8,0.1,1.2,0.3v2.1c-0.6-0.4-1.1-0.5-1.9-0.5c-0.9,0-2,0.6-2.9,1.7V104.1z"/>
		<path id="XMLID_102_" class="st0" d="M137.9,92.5v9.1c0,2.4,1.6,4,3.9,4c2.8,0,3.2-2.1,3.2-2.1c-0.1,0.1-0.8,0.8-2.1,0.8
			c-1.5,0-2.7-1.2-2.7-2.6v-9.2h4.1v-1.2h-4v-2.6l-3.6,3.8H137.9z"/>
		<path id="XMLID_101_" class="st0" d="M156.3,91.4h11.3l-8.3,12.5h6.9c0.4,0,0.6-0.1,1-0.3c0.4-0.2,0.6-0.4,0.8-0.8l0,2.3h-12.3
			l8.3-12.6h-5.5c-0.5,0-0.8,0-1.2,0.2c-0.5,0.2-0.8,0.5-1,0.9V91.4z"/>
		<path id="XMLID_100_" class="st0" d="M210.4,89.9c0-0.1-1.5-3.9-5-3.8c-1.9,0-3.6,1.2-3.6,3.2c0,2.4,3.2,3.5,5.1,4.5
			c2.7,1.3,4.9,2.7,4.9,5.8c0,3.4-2.8,5.9-7,5.9c-2.3,0-4.7-1.2-5.6-2.1l0.1-4.2c0,0,1.3,4.9,5.7,4.9c2.1,0,4.1-1.1,4.2-3.6
			c0.1-2.4-2.4-3.5-4.8-4.5c-2.8-1.2-5.1-3-5-5.9c0.1-3.3,3-5.4,6.3-5.3c3.2,0.1,4.6,1.4,4.6,1.4L210.4,89.9z"/>
		<path id="XMLID_99_" class="st0" d="M233.5,93.7c0-0.5-0.1-0.9-0.4-1.3c-0.1-0.2-0.6-0.4-1-0.4l3.8-0.9v12.6
			c0,0.3,0.1,0.5,0.3,0.8c0.2,0.2,0.4,0.3,0.8,0.3l-2.5,0.9c-0.3-0.2-0.4-0.3-0.6-0.6c-0.3-0.5-0.4-0.9-0.3-1.6
			c-1.1,1.3-2.8,2.3-4.8,2.2c-2.9-0.1-4.5-2-4.5-4.4l0-8.1c0-0.4-0.3-0.6-0.6-0.9c-0.3-0.2-0.8-0.3-0.9-0.3l3.7-1v9.6
			c0,1.8,1.2,3.6,3.2,3.5c1.1,0,2.9-0.8,3.7-1.6V93.7z"/>
		<path id="XMLID_98_" class="st0" d="M250.7,104.1c0,0.3,0.1,0.4,0.3,0.6c0.2,0.2,0.3,0.3,0.6,0.5h-4.1c0,0,0.4-0.3,0.6-0.4
			c0.2-0.2,0.3-0.4,0.3-0.6V92.6c0-0.2-0.2-0.4-0.4-0.5c-0.3-0.2-0.7-0.3-0.8-0.3l3.5-0.9v2.9c1-1.3,2.2-2.7,3.6-2.7
			c0.5,0,0.8,0.1,1.2,0.3v2.1c-0.6-0.4-1.1-0.5-1.9-0.5c-0.9,0-2,0.6-2.9,1.7V104.1z"/>
		<path id="XMLID_97_" class="st0" d="M266.5,91.3h1.7v-2.2c0-2.2,1.8-4.2,4.2-4.2c1.1,0,1.7,0.2,2.5,0.8v2.1c0,0-0.6-1.9-2.5-1.9
			c-1.1,0-1.9,0.8-1.9,1.8v3.5h4.4v1.1h-4.4v11.5c0,0.4,0.1,0.6,0.3,0.9c0.2,0.2,0.4,0.3,0.8,0.4h-4.4c0.3-0.1,0.5-0.2,0.7-0.4
			c0.2-0.2,0.1-0.5,0.1-0.8V92.3h-1.7V91.3z"/>
		<path id="XMLID_94_" class="st0" d="M287.8,92.9c1.3-1.3,2.6-1.7,4.4-1.7c3.2,0,5.1,1.3,5.1,3.7v8.7c0,0.3,0.2,0.5,0.4,0.7
			c0.2,0.2,0.4,0.3,0.8,0.3l-2.4,1l-1-0.8l-0.1-1.1c0,0.1-2.4,1.9-4.7,1.9c-2.2,0-3.9-1.9-3.8-4c0.1-2.6,2.9-3.8,5.6-4.5
			c2-0.4,2.9-1,2.9-1l0-1.9c0-1.3-1.5-1.9-2.8-1.9c-3.4,0.1-4.3,4.3-4.3,4.4L287.8,92.9z M291.4,104.1c1.5,0,3.5-1.2,3.5-1.3v-5.1
			c-0.1,0-1.4,0.4-2.2,0.7c-1.9,0.5-3.7,1.3-3.7,3.3C289,103,290,104,291.4,104.1"/>
		<path id="XMLID_93_" class="st0" d="M320.5,96.2c0,0-1.3-3.9-4.3-4c-2.8-0.1-4.4,3-4.4,5.7c0,3,1.9,6.1,5.1,6
			c2.7-0.1,4.4-2,4.4-2.1c0,0-0.8,3.7-5.4,3.7c-4,0-6.7-3.2-6.7-7.2c0-3.8,3-7.3,7.1-7.3c1.7,0,3.2,0.6,4.2,1.3V96.2z"/>
		<path id="XMLID_90_" class="st0" d="M345.1,101.1c0,0-0.5,4.5-5.9,4.5c-3.7,0.1-6.6-3.1-6.6-7.1c0-3.9,2.9-7.3,6.9-7.2
			c5.2,0.1,5.8,4.9,5.8,6.1l-9.9,0c-0.7,2.1,1.1,6.3,4.8,6.5C343.3,104,345,101.1,345.1,101.1 M342.5,96.2c0.2-1.3-1.1-3.9-3.2-3.9
			c-3,0-4.1,3.2-4,3.9H342.5z"/>
		<path id="XMLID_89_" class="st0" d="M364.1,95.3c0-0.1-0.7-3-3.4-3.1c-1.2,0-2.5,0.3-2.5,1.8c0,1.7,2.4,2.8,3.7,3.4
			c1.9,0.9,3.3,2.9,3.2,4.1c-0.1,2.4-2,4.1-4.9,4.1c-1.7,0-3.3-0.7-4-1.3v-3.7c0,0,1.3,4,4.1,3.9c1,0,2.6-0.8,2.5-2.5
			c0-1.1-1.2-2.2-2.6-2.8c-2-0.9-4.1-2.2-4.1-4.5c0-2.4,2.2-3.6,4.5-3.6c2.3,0.1,3.4,1.2,3.4,1.2V95.3z"/>
	</g>
</g>
</svg>
