<?xml version="1.0" encoding="utf-8"?>
<!-- Generator: Adobe Illustrator 19.0.0, SVG Export Plug-In . SVG Version: 6.00 Build 0)  -->
<svg version="1.1" id="Ebene_1" xmlns="http://www.w3.org/2000/svg" xmlns:xlink="http://www.w3.org/1999/xlink" x="0px" y="0px"
	 viewBox="50 61 400 129" style="enable-background:new 50 61 400 129;" xml:space="preserve">
<style type="text/css">
	.st0{fill:#404040;}
</style>
<path class="st0" d="M240.9,179.7v0.9c0,1.3,0.3,2.2,0.8,2.7c0.5,0.6,1.4,0.8,2.6,0.8c1.1,0,2-0.3,2.6-0.9c0.6-0.6,0.9-1.4,0.9-2.4
	c0-0.9-0.1-1.6-0.4-2c-0.3-0.4-0.7-0.8-1.4-1l-3.7-1.5c-1.3-0.5-2.1-1.2-2.5-1.9c-0.4-0.7-0.6-1.7-0.6-2.7c0-1.5,0.5-2.7,1.4-3.6
	c0.9-1,2.1-1.4,3.6-1.4c1.7,0,2.9,0.4,3.8,1.3c0.9,0.8,1.3,1.9,1.3,3.1c0,0.3,0,0.6,0,0.9h-2.1c0-0.2,0-0.4,0-0.7
	c0-0.7-0.3-1.3-0.8-1.9c-0.5-0.5-1.2-0.8-2-0.8c-1.1,0-2,0.3-2.5,0.8c-0.5,0.5-0.8,1.4-0.8,2.5c0,1.2,0.6,2.1,1.8,2.6l3.3,1.3
	c1.4,0.6,2.4,1.2,2.9,1.9c0.5,0.7,0.8,1.7,0.8,2.9c0,1.7-0.5,3-1.4,4.1c-0.9,1-2.3,1.5-4.2,1.5c-1.6,0-2.9-0.5-3.9-1.4
	c-1-0.9-1.4-2.3-1.4-4.2v-0.7H240.9z M252.7,167.1h1.9v6.4c0.9-1.3,2-1.9,3.3-1.9c1.1,0,1.9,0.3,2.4,0.9c0.5,0.6,0.8,1.5,0.8,2.7
	v10.4h-1.9v-9.9c0-1.6-0.7-2.5-2-2.5c-0.9,0-1.6,0.3-2,0.9c-0.5,0.6-0.7,1.3-0.7,2.1v9.4h-1.9V167.1z M265,185.5v-13.6h1.8v2.1
	c0.7-1.7,1.9-2.5,3.5-2.5c0.2,0,0.3,0,0.5,0v1.9c-0.2,0-0.4-0.1-0.8-0.1c-1,0-1.8,0.3-2.3,1c-0.5,0.7-0.8,1.6-0.8,2.7v8.4H265z
	 M272.8,167.1h1.9v2.5h-1.9V167.1z M272.8,171.9h1.9v13.6h-1.9V171.9z M278.1,185.5v-13.6h1.8v1.6c0.9-1.3,2-1.9,3.4-1.9
	c1,0,1.8,0.3,2.4,0.9c0.6,0.6,0.8,1.5,0.8,2.7v10.4h-1.9v-9.9c0-1.6-0.7-2.5-2-2.5c-0.8,0-1.4,0.3-2,0.8c-0.5,0.6-0.8,1.3-0.8,2.1
	v9.4H278.1z M290.1,185.5v-18.4h1.9v11.2l4.7-6.4h2.3l-4.2,5.3l4.3,8.3h-2.2l-3.4-6.8l-1.4,1.9v4.8H290.1z M307,185.5v-18.4h8.4v1.8
	H309v6h5.9v1.8H309v8.7H307z M317.6,167.1h1.9v2.5h-1.9V167.1z M317.6,171.9h1.9v13.6h-1.9V171.9z M323,185.5v-18.4h1.9v18.4H323z
	 M328.4,171.9h1.8v1.8c0.8-1.4,1.9-2.1,3.2-2.1c1.4,0,2.4,0.7,3.2,2.1c0.9-1.4,2.1-2.1,3.6-2.1c0.9,0,1.7,0.3,2.3,0.8
	c0.6,0.6,1,1.5,1,2.7v10.4h-1.9v-9.9c0-0.9-0.2-1.5-0.5-1.9c-0.3-0.4-0.8-0.6-1.5-0.6c-0.7,0-1.3,0.3-1.8,0.8
	c-0.5,0.5-0.8,1.2-0.8,2.1v9.4H335v-9.9c0-1.6-0.7-2.5-2-2.5c-0.7,0-1.4,0.3-1.9,0.8c-0.5,0.5-0.8,1.3-0.8,2.5v9.1h-1.9V171.9z
	 M348.2,181.5c0,0.9,0.1,1.6,0.4,2.1c0.3,0.5,0.9,0.7,1.8,0.7c1.7,0,2.6-0.8,2.6-2.3c0-0.6-0.2-1.1-0.6-1.4c-0.4-0.3-1.1-0.7-2-1
	c-1.7-0.6-2.8-1.2-3.3-1.8c-0.5-0.6-0.7-1.4-0.7-2.3c0-1.3,0.4-2.3,1.1-2.9c0.8-0.7,1.7-1,2.9-1c2.7,0,4.1,1.3,4.1,4h-1.8
	c0-0.8-0.1-1.4-0.4-1.8c-0.3-0.4-0.9-0.6-1.7-0.6c-1.4,0-2.2,0.7-2.2,2.1c0,0.5,0.2,1,0.5,1.3c0.3,0.4,1.1,0.8,2.4,1.3
	c1.5,0.6,2.5,1.2,3,1.7c0.5,0.5,0.7,1.2,0.7,2.1c0,1.4-0.4,2.4-1.3,3.1c-0.8,0.7-1.9,1.1-3.2,1.1c-1.3,0-2.3-0.3-3-1
	c-0.7-0.7-1.1-1.6-1.1-2.7v-0.7H348.2z M204.8,79.8h-4.1c-0.9,0-1.5,0.1-2,0.3c-0.7,0.3-1.1,1-1.1,1.9c0,0.9,0.3,1.4,1,1.7
	c0.4,0.2,1,0.3,2,0.3h3.4c1.2,0,2-0.2,2.5-0.6c0.5-0.3,0.7-0.9,0.7-1.7C207.3,80.4,206.4,79.8,204.8,79.8z M128.1,79.8H124
	c-0.9,0-1.5,0.1-2,0.3c-0.7,0.3-1.1,1-1.1,1.9c0,0.9,0.3,1.4,1,1.7c0.4,0.2,1,0.3,2,0.3h3.4c1.2,0,2-0.2,2.5-0.6
	c0.5-0.3,0.7-0.9,0.7-1.7C130.5,80.4,129.7,79.8,128.1,79.8z M211.4,63.1H96.1c-4.7,0-8.6,3.9-8.6,8.6v11.1c0,4.7,3.9,8.6,8.6,8.6
	h115.3c4.7,0,8.6-3.9,8.6-8.6V71.7C220,67,216.1,63.1,211.4,63.1z M115.4,86.3H113V77h-11.2v9.3h-2.3V68.4h2.3v5.9H113v-5.9h2.3
	V86.3z M133,80.6c0,0.7,0,1.3,0,2c0,1-0.3,1.9-0.8,2.6c-0.5,0.7-1.2,1.1-2.1,1.1c-0.8,0-1.6,0-2.4,0h-3.9c-1.8,0-3-0.2-3.8-0.7
	c-1-0.7-1.5-1.9-1.5-3.8c0-1.8,0.6-3,1.6-3.6c0.7-0.5,2-0.7,3.7-0.7c0,0,6.7,0,6.7,0c0-0.7-0.2-1.5-0.9-1.9
	c-0.7-0.4-1.5-0.4-2.2-0.4h-7.5l0.1-2.4h7.6c2.2,0,3.7,0.6,4.6,2C133.4,76.4,133,78.7,133,80.6z M149.5,86.3h-2.3v-7.9
	c0-1.1-0.3-1.6-0.9-2.2c-0.6-0.6-1.4-1-2.4-1h-2.1c-1,0-1.8,0.3-2.4,1c-0.6,0.6-0.9,1.1-0.9,2.2v7.9H136v-7.9c0-2,0.5-3,1.4-4
	c1-1,2.3-1.5,4-1.5h2.6c1.7,0,3.1,0.5,4,1.5c1,1,1.4,2.1,1.4,4V86.3z M175.9,80.7c0,2-0.5,3-1.4,4c-1,1-2.3,1.5-4,1.5h-1.9
	c-1.7,0-3.1-0.5-4-1.5c-0.1-0.1-0.2-0.2-0.3-0.4c-0.1,0.1-0.2,0.2-0.3,0.4c-1,1-2.3,1.5-4,1.5h-1.9c-1.7,0-3.1-0.5-4-1.5
	c-1-1-1.4-2.1-1.4-4v-7.9h2.3v7.6c0,1.1,0.3,1.6,0.9,2.2c0.6,0.6,1.4,1,2.4,1h1.5c1,0,1.8-0.3,2.4-1c0.6-0.6,0.9-1.1,0.9-2.2v-7.6
	h2.5v7.6c0,1.1,0.3,1.6,0.9,2.2c0.6,0.6,1.4,1,2.4,1h1.5c1,0,1.8-0.3,2.4-1c0.6-0.6,0.9-1.1,0.9-2.2v-7.6h2.3V80.7z M192.5,86.3
	h-2.3v-7.9c0-1.1-0.3-1.6-0.9-2.2c-0.6-0.6-1.4-1-2.4-1h-2.1c-1,0-1.8,0.3-2.4,1c-0.6,0.6-0.9,1.1-0.9,2.2v7.9h-2.4v-18h2.4v5.4
	c0.8-0.5,1.9-0.8,3.1-0.8h2.6c1.7,0,3.1,0.5,4,1.5c1,1,1.4,2.1,1.4,4V86.3z M209.8,80.6c0,0.7,0,1.3,0,2c0,1-0.3,1.9-0.8,2.6
	c-0.5,0.7-1.2,1.1-2.1,1.1c-0.8,0-1.6,0-2.4,0h-3.9c-1.8,0-3-0.2-3.8-0.7c-1-0.7-1.5-1.9-1.5-3.8c0-1.8,0.6-3,1.6-3.6
	c0.7-0.5,2-0.7,3.7-0.7c0,0,6.6,0,6.6,0c0-0.7-0.2-1.5-0.9-1.9c-0.7-0.4-1.5-0.4-2.2-0.4h-7.5l0.1-2.4h7.6c2.2,0,3.7,0.6,4.6,2
	C210.1,76.4,209.8,78.7,209.8,80.6z M88.7,161.4v-58.8h31.2v8.6H99.6v14.9h18.7v8.6H99.6v18h20.2v8.6H88.7z M157.5,140.6h11
	c0,6.8-1.2,12.2-3.7,16.1c-2.5,3.9-6.8,5.9-12.9,5.9c-7.2,0-12.2-1.9-15-5.6c-2.8-3.7-4.2-9.9-4.2-18.6V126c0-9.3,1.5-15.7,4.4-19.2
	c2.9-3.6,7.6-5.4,13.9-5.4c6,0,10.3,1.6,12.9,4.8c2.7,3.2,4,8.1,4,14.8h-10.8c0-3.6-0.4-6.3-1.1-8.1c-0.7-1.8-2.1-2.6-4.2-2.6
	c-5.2,0-7.8,4.1-7.8,12.2v19.1c0,4.4,0.7,7.5,2,9.4c1.4,1.9,3.3,2.8,5.9,2.8c1.9,0,3.4-1,4.3-2.9C157,148.8,157.5,145.4,157.5,140.6
	z M181.2,138.5v-11.7c0-9.7,1.5-16.3,4.4-19.9c3-3.6,7.9-5.4,14.7-5.4c7.7,0,12.8,2,15.3,6.1c2.6,4.1,3.8,10.5,3.8,19.2v11.8
	c0,8.7-1.4,14.9-4.2,18.6c-2.8,3.7-7.7,5.5-14.8,5.5c-6.9,0-11.8-1.8-14.8-5.3C182.7,153.8,181.2,147.5,181.2,138.5z M192.5,122.5
	v19.1c0,8.1,2.5,12.2,7.6,12.2c5.3,0,8-3.9,8-11.7v-18.7c0-8.7-2.6-13-7.8-13C195.1,110.3,192.5,114.4,192.5,122.5z M240.8,102.6
	h11.3l-2.7,45h0l17.6-45h9.1l-0.9,45.2l15.9-45.2h11.3L279,161.4h-13.2l1-36.5h0l-14.2,36.5h-13.2L240.8,102.6z M313,102.6h11
	l-12.5,58.8h-11L313,102.6z M372,161.4l12.5-58.8h31.2l-1.8,8.6h-20.2l-3.2,14.9h18.7l-1.8,8.6h-18.6l-3.8,18H405l-1.8,8.6H372z
	 M357,119.5l11.1-3.1c0.5-4.6,0-8.1-1.5-10.4c-1.9-3-6-4.5-12.1-4.5c-11.5,0-18.4,5.2-20.6,15.5c-0.8,3.8-0.4,7,1.3,9.7
	c1.7,2.7,4.4,5.4,8.2,8.2c3.6,2.7,6.1,4.7,7.3,6.3c1.2,1.5,1.5,3.5,1,5.9c-1,4.5-3.5,6.7-7.7,6.7c-4.6,0-6.3-3.3-4.9-9.8l0.2-1
	l-11.5,2.5c-2.3,11.4,2.4,17.1,14.3,17.1c5.7,0,10.3-1.5,14-4.6c3.7-3,6.1-7.2,7.2-12.6c0.9-4.1,0.5-7.4-1-9.9
	c-1.5-2.5-4.4-5.4-8.7-8.6c-4-3.1-6.4-5.2-7.4-6.4c-0.9-1.2-1.2-2.8-0.7-4.8c0.8-3.7,3.1-5.5,7.1-5.5c4.2,0,5.8,2.7,4.6,8.2
	L357,119.5z"/>
</svg>
