<svg xmlns="http://www.w3.org/2000/svg" xmlns:xlink="http://www.w3.org/1999/xlink" width="801" zoomAndPan="magnify" viewBox="0 0 600.75 158.249993" height="211" preserveAspectRatio="xMidYMid meet" version="1.0"><defs><filter x="0%" y="0%" width="100%" height="100%" id="c9459e3ed6"><feColorMatrix values="0 0 0 0 1 0 0 0 0 1 0 0 0 0 1 0 0 0 1 0" color-interpolation-filters="sRGB"/></filter><g/><clipPath id="7d12b8e1d8"><path d="M 1.292969 15.089844 L 143.332031 15.089844 L 143.332031 157.128906 L 1.292969 157.128906 Z M 1.292969 15.089844 " clip-rule="nonzero"/></clipPath><mask id="c45a2767b7"><g filter="url(#c9459e3ed6)"><rect x="-60.075" width="720.9" fill="#000000" y="-15.824999" height="189.899992" fill-opacity="0.89"/></g></mask><clipPath id="4680743c52"><rect x="0" width="405" y="0" height="94"/></clipPath><mask id="f5b748d79a"><g filter="url(#c9459e3ed6)"><rect x="-60.075" width="720.9" fill="#000000" y="-15.824999" height="189.899992" fill-opacity="0.93"/></g></mask><clipPath id="be322368b5"><rect x="0" width="401" y="0" height="62"/></clipPath></defs><g clip-path="url(#7d12b8e1d8)"><path fill="#ed1c24" d="M 68.667969 15.207031 C 46.257812 16.359375 25.765625 28.011719 13.269531 46.695312 C 2.0625 63.449219 -1.457031 84.121094 3.53125 103.738281 C 3.78125 104.730469 4.167969 106.105469 4.386719 106.800781 L 4.78125 108.070312 L 19.410156 108.09375 C 32.773438 108.101562 34.117188 108.09375 34.875 107.925781 C 37.03125 107.476562 38.667969 106.625 40.019531 105.25 C 40.914062 104.355469 41.101562 104.050781 42.15625 101.78125 C 42.664062 100.6875 43.746094 98.417969 44.570312 96.730469 C 45.382812 95.042969 46.339844 92.984375 46.695312 92.148438 C 47.351562 90.609375 48.984375 86.265625 49.621094 84.402344 C 49.953125 83.402344 49.976562 83.382812 50.132812 83.621094 C 50.546875 84.257812 54.859375 90.265625 56.328125 92.253906 C 57.234375 93.484375 58.859375 95.816406 59.929688 97.429688 C 62.367188 101.105469 62.941406 101.855469 64.699219 103.605469 C 66.199219 105.09375 66.875 105.574219 68.355469 106.175781 C 69.375 106.605469 70.21875 106.8125 71.574219 106.988281 C 72.519531 107.113281 72.832031 107.113281 73.800781 106.988281 C 75.269531 106.800781 76.3125 106.5 77.519531 105.9375 C 78.757812 105.355469 79.714844 104.613281 80.996094 103.292969 C 82.359375 101.867188 83.183594 100.78125 85.433594 97.410156 C 86.496094 95.804688 88.027344 93.597656 88.828125 92.515625 C 90.398438 90.390625 93.886719 85.527344 94.792969 84.203125 L 95.355469 83.390625 L 96.261719 85.945312 C 97.816406 90.265625 99.054688 93.253906 100.449219 96.054688 C 100.84375 96.855469 101.855469 98.960938 102.6875 100.742188 C 104.386719 104.34375 104.707031 104.84375 106.082031 105.949219 C 107.351562 106.96875 108.875 107.632812 110.738281 107.988281 C 111.246094 108.082031 113.363281 108.113281 119.234375 108.09375 C 123.546875 108.070312 127.085938 108.101562 127.117188 108.15625 C 127.179688 108.257812 126.191406 110.53125 125.265625 112.402344 C 123.253906 116.484375 120.265625 120.984375 117.195312 124.585938 C 115.726562 126.296875 112.238281 129.761719 110.527344 131.199219 C 103.574219 137.050781 95.761719 141.113281 87.152344 143.332031 C 76.3125 146.144531 64.8125 145.808594 54.171875 142.382812 C 46.851562 140.019531 40.132812 136.28125 34.09375 131.199219 C 32.292969 129.679688 28.742188 126.128906 27.222656 124.328125 C 26.566406 123.558594 25.503906 122.203125 24.847656 121.328125 L 23.671875 119.746094 L 16.734375 119.746094 C 10.433594 119.746094 9.8125 119.757812 9.875 119.910156 C 10.050781 120.371094 11.777344 123.253906 12.925781 125.003906 C 21.996094 138.792969 35.355469 148.902344 51.027344 153.847656 C 60.992188 156.996094 71.917969 157.878906 82.359375 156.402344 C 101.03125 153.734375 117.871094 143.738281 129.199219 128.574219 C 135.925781 119.578125 140.488281 108.957031 142.289062 98.085938 C 142.40625 97.367188 142.53125 96.660156 142.5625 96.503906 L 142.625 96.210938 L 129.773438 96.191406 L 116.933594 96.160156 L 116.171875 94.855469 C 115.234375 93.242188 113.339844 89.433594 112.558594 87.578125 C 111.039062 83.976562 109.820312 80.488281 108.457031 75.800781 C 107.300781 71.8125 106.738281 70.292969 105.980469 68.992188 C 103.800781 65.273438 99.898438 63.566406 94.855469 64.136719 C 92.085938 64.460938 89.941406 65.386719 88.328125 66.96875 L 87.515625 67.761719 L 85.816406 71.1875 C 84.882812 73.0625 83.820312 75.113281 83.453125 75.75 C 81.433594 79.238281 78.800781 83.402344 76.65625 86.472656 C 75.601562 87.984375 72.738281 91.835938 72.675781 91.835938 C 72.59375 91.835938 69.605469 87.796875 68.335938 85.953125 C 64.59375 80.550781 61.785156 75.832031 59.441406 71.042969 C 58.367188 68.835938 57.816406 67.824219 57.472656 67.417969 C 56.453125 66.230469 54.652344 65.117188 52.933594 64.617188 C 51.421875 64.191406 50.601562 64.085938 48.621094 64.097656 C 46.476562 64.097656 45.402344 64.292969 43.964844 64.910156 C 42.675781 65.460938 42.050781 65.886719 41.0625 66.84375 C 39.21875 68.648438 38.53125 70.136719 36.800781 76.0625 C 34.480469 84.015625 32.167969 89.652344 28.917969 95.273438 L 28.410156 96.160156 L 21.222656 96.191406 L 14.027344 96.210938 L 13.800781 94.578125 C 13.132812 89.671875 13.019531 85.726562 13.433594 80.902344 C 14.496094 68.417969 19.535156 56.671875 27.917969 47.101562 C 37.425781 36.230469 50.683594 29.222656 65.074219 27.441406 C 67.59375 27.128906 69.300781 27.035156 72.3125 27.035156 C 77.550781 27.035156 81.851562 27.554688 86.753906 28.785156 C 107.632812 34.023438 124.140625 50.414062 129.535156 71.269531 C 130.636719 75.53125 131.210938 79.558594 131.417969 84.464844 L 131.480469 86.214844 L 143.332031 86.214844 L 143.332031 85.601562 C 143.332031 84.445312 143.125 80.738281 142.957031 79.132812 C 141.1875 61.160156 132.75 44.746094 119.121094 32.730469 C 111.320312 25.859375 101.886719 20.714844 91.734375 17.808594 C 84.453125 15.714844 76.375 14.808594 68.667969 15.207031 Z M 68.667969 15.207031 " fill-opacity="1" fill-rule="nonzero"/></g><g mask="url(#c45a2767b7)"><g transform="matrix(1, 0, 0, 1, 154, 16)"><g clip-path="url(#4680743c52)"><g fill="#ffffff" fill-opacity="1"><g transform="translate(1.202299, 70.497195)"><g><path d="M 29.453125 -10.625 L 27.9375 -6.125 L 26.421875 -10.625 L 13.65625 -45.015625 L 5.375 -45.015625 L 5.375 0 L 10.75 0 L 10.75 -29.84375 L 10.5625 -38 L 13.53125 -30.90625 L 25.15625 0 L 30.71875 0 L 41.46875 -29.90625 L 44.703125 -37.9375 L 44.5625 -29.84375 L 44.5625 0 L 49.9375 0 L 49.9375 -45.015625 L 41.78125 -45.015625 Z M 29.453125 -10.625 "/></g></g></g><g fill="#ffffff" fill-opacity="1"><g transform="translate(51.774327, 70.497195)"><g><path d="M 43.375 0 L 25.984375 -45.015625 L 19.34375 -45.015625 L 1.890625 0 L 8.15625 0 L 13.015625 -13.21875 L 32.109375 -13.21875 L 36.859375 0 Z M 21.171875 -35.40625 L 22.703125 -40.078125 L 24.15625 -35.40625 L 30.28125 -18.328125 L 14.921875 -18.328125 Z M 21.171875 -35.40625 "/></g></g></g><g fill="#ffffff" fill-opacity="1"><g transform="translate(92.295017, 70.497195)"><g><path d="M 38.875 -14.34375 C 38.4375 -18.515625 35.90625 -21.109375 31.984375 -21.875 C 36.734375 -23.203125 40.015625 -27.3125 40.015625 -33.125 C 40.015625 -40.328125 34.828125 -45.015625 26.234375 -45.015625 L 5.375 -45.015625 L 5.375 0 L 11.25 0 L 11.25 -19.40625 L 25.15625 -19.40625 C 30.40625 -19.40625 32.6875 -17.328125 33.25 -12.015625 L 34.578125 0 L 40.515625 0 Z M 11.25 -24.53125 L 11.25 -39.890625 L 25.21875 -39.890625 C 30.90625 -39.890625 34.015625 -37.296875 34.015625 -32.5625 C 34.015625 -27.4375 30.34375 -24.53125 24.21875 -24.53125 Z M 11.25 -24.53125 "/></g></g></g><g fill="#ffffff" fill-opacity="1"><g transform="translate(132.815707, 70.497195)"><g><path d="M 41.984375 -45.015625 L 34.140625 -45.015625 L 11.25 -22.953125 L 11.25 -45.015625 L 5.375 -45.015625 L 5.375 0 L 11.25 0 L 11.25 -15.734375 L 18.84375 -23.140625 L 24.59375 -15.296875 L 35.90625 0 L 43.234375 0 L 22.953125 -26.875 Z M 41.984375 -45.015625 "/></g></g></g><g fill="#ffffff" fill-opacity="1"><g transform="translate(173.215187, 70.497195)"><g/></g></g><g fill="#ffffff" fill-opacity="1"><g transform="translate(185.541542, 70.497195)"><g/></g></g><g fill="#ffffff" fill-opacity="1"><g transform="translate(197.871766, 70.497195)"><g><path d="M 20.671875 -45.015625 L 5.375 -45.015625 L 5.375 0 L 19.40625 0 C 34.640625 0 41.40625 -8.90625 41.40625 -22.5 C 41.40625 -36.34375 34.890625 -45.015625 20.671875 -45.015625 Z M 11.25 -5.125 L 11.25 -39.890625 L 19.15625 -39.890625 C 30.34375 -39.890625 35.40625 -34.453125 35.40625 -22.5 C 35.40625 -10.8125 30.59375 -5.125 18.84375 -5.125 Z M 11.25 -5.125 "/></g></g></g><g fill="#ffffff" fill-opacity="1"><g transform="translate(238.202811, 70.497195)"><g><path d="M 11.25 -20.609375 L 35.21875 -20.609375 L 35.21875 -25.734375 L 11.25 -25.734375 L 11.25 -39.890625 L 37.234375 -39.890625 L 37.234375 -45.015625 L 5.375 -45.015625 L 5.375 0 L 37.8125 0 L 37.8125 -5.125 L 11.25 -5.125 Z M 11.25 -20.609375 "/></g></g></g><g fill="#ffffff" fill-opacity="1"><g transform="translate(275.373054, 70.497195)"><g><path d="M 24.40625 1.078125 C 34.953125 1.078125 41.921875 -5.5625 43.4375 -16.375 L 37.609375 -16.375 C 36.546875 -8.28125 31.671875 -4.171875 24.59375 -4.171875 C 15.421875 -4.171875 10.046875 -11.25 10.046875 -22.5 C 10.046875 -33.765625 15.484375 -40.59375 24.59375 -40.59375 C 30.78125 -40.59375 35.46875 -37.359375 36.859375 -31.421875 L 42.859375 -31.421875 C 41.46875 -40.265625 33.765625 -45.828125 24.34375 -45.828125 C 11.953125 -45.828125 4.046875 -36.28125 4.046875 -22.5 C 4.046875 -8.84375 11.765625 1.078125 24.40625 1.078125 Z M 24.40625 1.078125 "/></g></g></g><g fill="#ffffff" fill-opacity="1"><g transform="translate(316.905197, 70.497195)"><g><path d="M 25.28125 1.078125 C 37.9375 1.078125 46.59375 -8.59375 46.59375 -22.5 C 46.59375 -36.15625 37.9375 -45.828125 25.28125 -45.828125 C 12.703125 -45.828125 4.046875 -36.15625 4.046875 -22.5 C 4.046875 -8.71875 12.703125 1.078125 25.28125 1.078125 Z M 25.34375 -4.171875 C 16.375 -4.171875 10.046875 -11.3125 10.046875 -22.5 C 10.046875 -33.5625 16.375 -40.59375 25.34375 -40.59375 C 34.265625 -40.59375 40.59375 -33.5625 40.59375 -22.5 C 40.59375 -11.1875 34.390625 -4.171875 25.34375 -4.171875 Z M 25.34375 -4.171875 "/></g></g></g><g fill="#ffffff" fill-opacity="1"><g transform="translate(362.79925, 70.497195)"><g><path d="M 38.875 -14.34375 C 38.4375 -18.515625 35.90625 -21.109375 31.984375 -21.875 C 36.734375 -23.203125 40.015625 -27.3125 40.015625 -33.125 C 40.015625 -40.328125 34.828125 -45.015625 26.234375 -45.015625 L 5.375 -45.015625 L 5.375 0 L 11.25 0 L 11.25 -19.40625 L 25.15625 -19.40625 C 30.40625 -19.40625 32.6875 -17.328125 33.25 -12.015625 L 34.578125 0 L 40.515625 0 Z M 11.25 -24.53125 L 11.25 -39.890625 L 25.21875 -39.890625 C 30.90625 -39.890625 34.015625 -37.296875 34.015625 -32.5625 C 34.015625 -27.4375 30.34375 -24.53125 24.21875 -24.53125 Z M 11.25 -24.53125 "/></g></g></g></g></g></g><g mask="url(#f5b748d79a)"><g transform="matrix(1, 0, 0, 1, 156, 83)"><g clip-path="url(#be322368b5)"><g fill="#ffffff" fill-opacity="1"><g transform="translate(0.992796, 46.426066)"><g><path d="M 15.6875 -29.53125 L 3.53125 -29.53125 L 3.53125 0 L 7.390625 0 L 7.390625 -12.328125 L 15.59375 -12.328125 C 21.328125 -12.328125 25.1875 -15.21875 25.1875 -21.078125 C 25.1875 -26.71875 21.40625 -29.53125 15.6875 -29.53125 Z M 7.390625 -15.6875 L 7.390625 -26.171875 L 15.46875 -26.171875 C 19.125 -26.171875 21.328125 -24.5625 21.328125 -21.03125 C 21.328125 -17.546875 19.203125 -15.6875 15.6875 -15.6875 Z M 7.390625 -15.6875 "/></g></g></g><g fill="#ffffff" fill-opacity="1"><g transform="translate(24.841518, 46.426066)"><g><path d="M 13.484375 -21.984375 C 10.25 -21.984375 8.171875 -20.15625 6.890625 -17.296875 L 6.890625 -21.40625 L 3.3125 -21.40625 L 3.3125 0 L 7.140625 0 L 7.140625 -11.703125 C 7.296875 -16.046875 10.453125 -18.25 13.28125 -18.25 C 13.640625 -18.25 14.0625 -18.25 14.640625 -18.21875 L 14.640625 -21.90625 C 14.265625 -21.9375 13.890625 -21.984375 13.484375 -21.984375 Z M 13.484375 -21.984375 "/></g></g></g><g fill="#ffffff" fill-opacity="1"><g transform="translate(36.993602, 46.426066)"><g><path d="M 21.9375 -11.203125 C 21.9375 -17.875 18.171875 -21.90625 12.15625 -21.90625 C 5.765625 -21.90625 2.078125 -17.34375 2.078125 -10.78125 C 2.078125 -4.1875 5.84375 0.5 12.234375 0.5 C 16.796875 0.5 20.28125 -1.90625 21.65625 -6.09375 L 18.171875 -6.515625 C 17.171875 -4.03125 15.34375 -2.609375 12.359375 -2.609375 C 8.5 -2.609375 6.015625 -4.984375 5.890625 -9.796875 L 21.9375 -9.796875 Z M 12.203125 -18.796875 C 15.6875 -18.796875 17.875 -16.59375 18.375 -12.53125 L 5.9375 -12.53125 C 6.3125 -16.71875 8.796875 -18.796875 12.203125 -18.796875 Z M 12.203125 -18.796875 "/></g></g></g><g fill="#ffffff" fill-opacity="1"><g transform="translate(57.897424, 46.426066)"><g><path d="M 26.046875 -21.9375 C 22.9375 -21.9375 20.65625 -20.703125 19.25 -18.21875 C 18.296875 -20.65625 16.21875 -21.9375 13.3125 -21.9375 C 10.375 -21.9375 8.296875 -20.65625 6.890625 -18.375 L 6.890625 -21.40625 L 3.3125 -21.40625 L 3.3125 0 L 7.140625 0 L 7.140625 -11.40625 C 7.140625 -16.921875 9.875 -18.625 12.359375 -18.625 C 14.734375 -18.625 16.046875 -17.140625 16.046875 -14.640625 L 16.046875 0 L 19.875 0 L 19.875 -11.609375 C 19.875 -17.140625 22.609375 -18.625 25.09375 -18.625 C 27.46875 -18.625 28.796875 -17.140625 28.796875 -14.640625 L 28.796875 0 L 32.609375 0 L 32.609375 -14.6875 C 32.609375 -19.65625 30.234375 -21.9375 26.046875 -21.9375 Z M 26.046875 -21.9375 "/></g></g></g><g fill="#ffffff" fill-opacity="1"><g transform="translate(90.705276, 46.426066)"><g><path d="M 7.140625 -25.4375 L 7.140625 -29.53125 L 3.3125 -29.53125 L 3.3125 -25.4375 Z M 7.140625 0 L 7.140625 -21.40625 L 3.3125 -21.40625 L 3.3125 0 Z M 7.140625 0 "/></g></g></g><g fill="#ffffff" fill-opacity="1"><g transform="translate(98.045975, 46.426066)"><g><path d="M 17.5 -9.5 C 17.5 -4.390625 14.359375 -2.78125 11.40625 -2.78125 C 8.5 -2.78125 7.140625 -4.359375 7.140625 -7.296875 L 7.140625 -21.40625 L 3.3125 -21.40625 L 3.3125 -6.546875 C 3.3125 -2.03125 6.09375 0.546875 10.578125 0.546875 C 13.734375 0.546875 16.296875 -0.75 17.75 -3.03125 L 17.75 0 L 21.328125 0 L 21.328125 -21.40625 L 17.5 -21.40625 Z M 17.5 -9.5 "/></g></g></g><g fill="#ffffff" fill-opacity="1"><g transform="translate(119.571956, 46.426066)"><g><path d="M 26.046875 -21.9375 C 22.9375 -21.9375 20.65625 -20.703125 19.25 -18.21875 C 18.296875 -20.65625 16.21875 -21.9375 13.3125 -21.9375 C 10.375 -21.9375 8.296875 -20.65625 6.890625 -18.375 L 6.890625 -21.40625 L 3.3125 -21.40625 L 3.3125 0 L 7.140625 0 L 7.140625 -11.40625 C 7.140625 -16.921875 9.875 -18.625 12.359375 -18.625 C 14.734375 -18.625 16.046875 -17.140625 16.046875 -14.640625 L 16.046875 0 L 19.875 0 L 19.875 -11.609375 C 19.875 -17.140625 22.609375 -18.625 25.09375 -18.625 C 27.46875 -18.625 28.796875 -17.140625 28.796875 -14.640625 L 28.796875 0 L 32.609375 0 L 32.609375 -14.6875 C 32.609375 -19.65625 30.234375 -21.9375 26.046875 -21.9375 Z M 26.046875 -21.9375 "/></g></g></g><g fill="#ffffff" fill-opacity="1"><g transform="translate(152.387524, 46.426066)"><g/></g></g><g fill="#ffffff" fill-opacity="1"><g transform="translate(160.474819, 46.426066)"><g/></g></g><g fill="#ffffff" fill-opacity="1"><g transform="translate(168.568509, 46.426066)"><g><path d="M 14.1875 0.625 C 22.359375 0.625 25.59375 -3.4375 25.59375 -8.125 C 25.59375 -12.734375 22.609375 -15.34375 17.140625 -16.515625 L 11.953125 -17.625 C 8.25 -18.421875 6.796875 -19.75 6.796875 -22.0625 C 6.796875 -25.1875 9.296875 -26.96875 13.53125 -26.96875 C 18.046875 -26.96875 20.65625 -24.96875 20.984375 -21.234375 L 24.6875 -21.234375 C 24.1875 -26.921875 20.203125 -30.125 13.640625 -30.125 C 6.84375 -30.125 3.15625 -26.71875 3.15625 -21.734375 C 3.15625 -17.046875 6.640625 -15.0625 11.453125 -14.0625 L 15.59375 -13.1875 C 20.203125 -12.234375 21.859375 -10.703125 21.859375 -7.921875 C 21.859375 -4.609375 19.375 -2.53125 14.3125 -2.53125 C 9.203125 -2.53125 6.21875 -4.640625 5.8125 -9.546875 L 2.109375 -9.546875 C 2.609375 -2.734375 6.796875 0.625 14.1875 0.625 Z M 14.1875 0.625 "/></g></g></g><g fill="#ffffff" fill-opacity="1"><g transform="translate(193.163832, 46.426066)"><g><path d="M 12.359375 0.546875 C 18.375 0.546875 22.6875 -4.140625 22.6875 -10.875 C 22.6875 -17.671875 18.453125 -21.9375 12.484375 -21.9375 C 6.34375 -21.9375 2.078125 -17.59375 2.078125 -10.703125 C 2.078125 -3.984375 6.21875 0.546875 12.359375 0.546875 Z M 12.359375 -2.65625 C 8.34375 -2.65625 5.890625 -5.84375 5.890625 -10.703125 C 5.890625 -15.5625 8.296875 -18.75 12.359375 -18.75 C 16.515625 -18.75 18.875 -15.71875 18.875 -10.875 C 18.875 -6.015625 16.515625 -2.65625 12.359375 -2.65625 Z M 12.359375 -2.65625 "/></g></g></g><g fill="#ffffff" fill-opacity="1"><g transform="translate(214.814255, 46.426066)"><g><path d="M 7.140625 0 L 7.140625 -29.53125 L 3.3125 -29.53125 L 3.3125 0 Z M 7.140625 0 "/></g></g></g><g fill="#ffffff" fill-opacity="1"><g transform="translate(222.154958, 46.426066)"><g><path d="M 7.140625 -25.4375 L 7.140625 -29.53125 L 3.3125 -29.53125 L 3.3125 -25.4375 Z M 7.140625 0 L 7.140625 -21.40625 L 3.3125 -21.40625 L 3.3125 0 Z M 7.140625 0 "/></g></g></g><g fill="#ffffff" fill-opacity="1"><g transform="translate(229.495661, 46.426066)"><g><path d="M 17.796875 -18.828125 C 16.421875 -20.703125 14.109375 -21.859375 11.328125 -21.859375 C 5.890625 -21.859375 2.078125 -17.5 2.078125 -11.03125 C 2.078125 -4.390625 5.59375 0.453125 11.40625 0.453125 C 14.515625 0.453125 17.015625 -1.15625 18.296875 -3.40625 L 18.296875 0 L 21.609375 0 L 21.609375 -29.53125 L 17.796875 -29.53125 Z M 11.78125 -2.828125 C 8.09375 -2.828125 5.890625 -6.0625 5.890625 -11.03125 C 5.890625 -15.9375 8.171875 -18.578125 11.859375 -18.578125 C 15.4375 -18.578125 18 -16.015625 18 -10.953125 C 18 -5.890625 15.34375 -2.828125 11.78125 -2.828125 Z M 11.78125 -2.828125 "/></g></g></g><g fill="#ffffff" fill-opacity="1"><g transform="translate(251.313979, 46.426066)"><g/></g></g><g fill="#ffffff" fill-opacity="1"><g transform="translate(259.401274, 46.426066)"><g/></g></g><g fill="#ffffff" fill-opacity="1"><g transform="translate(267.494969, 46.426066)"><g><path d="M 14.1875 0.625 C 22.359375 0.625 25.59375 -3.4375 25.59375 -8.125 C 25.59375 -12.734375 22.609375 -15.34375 17.140625 -16.515625 L 11.953125 -17.625 C 8.25 -18.421875 6.796875 -19.75 6.796875 -22.0625 C 6.796875 -25.1875 9.296875 -26.96875 13.53125 -26.96875 C 18.046875 -26.96875 20.65625 -24.96875 20.984375 -21.234375 L 24.6875 -21.234375 C 24.1875 -26.921875 20.203125 -30.125 13.640625 -30.125 C 6.84375 -30.125 3.15625 -26.71875 3.15625 -21.734375 C 3.15625 -17.046875 6.640625 -15.0625 11.453125 -14.0625 L 15.59375 -13.1875 C 20.203125 -12.234375 21.859375 -10.703125 21.859375 -7.921875 C 21.859375 -4.609375 19.375 -2.53125 14.3125 -2.53125 C 9.203125 -2.53125 6.21875 -4.640625 5.8125 -9.546875 L 2.109375 -9.546875 C 2.609375 -2.734375 6.796875 0.625 14.1875 0.625 Z M 14.1875 0.625 "/></g></g></g><g fill="#ffffff" fill-opacity="1"><g transform="translate(292.090292, 46.426066)"><g><path d="M 17.5 -9.5 C 17.5 -4.390625 14.359375 -2.78125 11.40625 -2.78125 C 8.5 -2.78125 7.140625 -4.359375 7.140625 -7.296875 L 7.140625 -21.40625 L 3.3125 -21.40625 L 3.3125 -6.546875 C 3.3125 -2.03125 6.09375 0.546875 10.578125 0.546875 C 13.734375 0.546875 16.296875 -0.75 17.75 -3.03125 L 17.75 0 L 21.328125 0 L 21.328125 -21.40625 L 17.5 -21.40625 Z M 17.5 -9.5 "/></g></g></g><g fill="#ffffff" fill-opacity="1"><g transform="translate(313.616277, 46.426066)"><g><path d="M 13.484375 -21.984375 C 10.25 -21.984375 8.171875 -20.15625 6.890625 -17.296875 L 6.890625 -21.40625 L 3.3125 -21.40625 L 3.3125 0 L 7.140625 0 L 7.140625 -11.703125 C 7.296875 -16.046875 10.453125 -18.25 13.28125 -18.25 C 13.640625 -18.25 14.0625 -18.25 14.640625 -18.21875 L 14.640625 -21.90625 C 14.265625 -21.9375 13.890625 -21.984375 13.484375 -21.984375 Z M 13.484375 -21.984375 "/></g></g></g><g fill="#ffffff" fill-opacity="1"><g transform="translate(325.76836, 46.426066)"><g><path d="M 13.8125 -26.34375 L 13.8125 -29.53125 L 11.53125 -29.53125 C 7.046875 -29.53125 5.109375 -27.59375 5.109375 -23.109375 L 5.109375 -21.28125 L 1.65625 -21.40625 L 1.65625 -18.453125 L 5.109375 -18.625 L 5.109375 0 L 8.921875 0 L 8.921875 -18.625 L 13.8125 -18.453125 L 13.8125 -21.40625 L 8.921875 -21.234375 L 8.921875 -23.640625 C 8.921875 -25.671875 9.578125 -26.34375 11.609375 -26.34375 Z M 13.8125 -26.34375 "/></g></g></g><g fill="#ffffff" fill-opacity="1"><g transform="translate(337.505671, 46.426066)"><g><path d="M 22.1875 -2.828125 C 20.78125 -2.828125 20.328125 -3.28125 20.328125 -4.6875 L 20.328125 -15.140625 C 20.328125 -19.828125 17.25 -21.984375 11.953125 -21.984375 C 6.4375 -21.984375 3.40625 -19.75 3.03125 -15.015625 L 6.796875 -15.015625 C 7.046875 -17.875 8.59375 -18.828125 11.65625 -18.828125 C 14.96875 -18.828125 16.46875 -17.75 16.46875 -15.515625 L 16.46875 -14.6875 C 16.46875 -13.6875 15.96875 -13.1875 14.9375 -13.0625 L 9.453125 -12.359375 C 4.265625 -11.703125 2.15625 -9.203125 2.15625 -5.6875 C 2.15625 -1.75 4.984375 0.546875 9.328125 0.546875 C 12.984375 0.546875 15.71875 -1.078125 17.09375 -3.15625 C 17.25 -1.03125 18.5 0 20.78125 0 L 22.8125 0 L 22.8125 -2.828125 Z M 10.046875 -2.40625 C 7.546875 -2.40625 5.9375 -3.65625 5.9375 -5.84375 C 5.9375 -7.75 7.09375 -9.078125 10.078125 -9.546875 L 16.46875 -10.5 L 16.46875 -7.515625 C 16.46875 -4.765625 13.484375 -2.40625 10.046875 -2.40625 Z M 10.046875 -2.40625 "/></g></g></g><g fill="#ffffff" fill-opacity="1"><g transform="translate(358.036193, 46.426066)"><g><path d="M 11.984375 0.546875 C 17.375 0.546875 20.5 -2.453125 21.234375 -7.46875 L 17.671875 -7.46875 C 17.09375 -4.4375 15.34375 -2.65625 12.203125 -2.65625 C 8.125 -2.65625 5.890625 -5.640625 5.890625 -10.703125 C 5.890625 -15.765625 7.921875 -18.75 12.234375 -18.75 C 15.21875 -18.75 17.046875 -17.296875 17.625 -14.390625 L 21.234375 -14.390625 C 20.5 -19.328125 17.140625 -21.9375 12.203125 -21.9375 C 6.015625 -21.9375 2.078125 -17.75 2.078125 -10.53125 C 2.078125 -3.3125 6.015625 0.546875 11.984375 0.546875 Z M 11.984375 0.546875 "/></g></g></g><g fill="#ffffff" fill-opacity="1"><g transform="translate(378.027522, 46.426066)"><g><path d="M 21.9375 -11.203125 C 21.9375 -17.875 18.171875 -21.90625 12.15625 -21.90625 C 5.765625 -21.90625 2.078125 -17.34375 2.078125 -10.78125 C 2.078125 -4.1875 5.84375 0.5 12.234375 0.5 C 16.796875 0.5 20.28125 -1.90625 21.65625 -6.09375 L 18.171875 -6.515625 C 17.171875 -4.03125 15.34375 -2.609375 12.359375 -2.609375 C 8.5 -2.609375 6.015625 -4.984375 5.890625 -9.796875 L 21.9375 -9.796875 Z M 12.203125 -18.796875 C 15.6875 -18.796875 17.875 -16.59375 18.375 -12.53125 L 5.9375 -12.53125 C 6.3125 -16.71875 8.796875 -18.796875 12.203125 -18.796875 Z M 12.203125 -18.796875 "/></g></g></g></g></g></g></svg>