<?xml version="1.0" encoding="UTF-8" standalone="no"?>
<svg
   width="984.69659"
   zoomAndPan="magnify"
   viewBox="0 0 738.52245 188.86742"
   height="251.82323"
   preserveAspectRatio="xMidYMid"
   version="1.0"
   id="svg106"
   sodipodi:docname="widelogo.svg"
   inkscape:version="1.4 (86a8ad7, 2024-10-11)"
   xmlns:inkscape="http://www.inkscape.org/namespaces/inkscape"
   xmlns:sodipodi="http://sodipodi.sourceforge.net/DTD/sodipodi-0.dtd"
   xmlns="http://www.w3.org/2000/svg"
   xmlns:svg="http://www.w3.org/2000/svg">
  <sodipodi:namedview
     id="namedview1"
     pagecolor="#ffffff"
     bordercolor="#111111"
     borderopacity="1"
     inkscape:showpageshadow="0"
     inkscape:pageopacity="0"
     inkscape:pagecheckerboard="1"
     inkscape:deskcolor="#d1d1d1"
     inkscape:zoom="0.43319147"
     inkscape:cx="319.72005"
     inkscape:cy="594.42537"
     inkscape:window-width="2560"
     inkscape:window-height="1361"
     inkscape:window-x="-9"
     inkscape:window-y="-9"
     inkscape:window-maximized="1"
     inkscape:current-layer="svg106" />
  <defs
     id="defs2">
    <clipPath
       id="1b5e56bd9a">
      <path
         d="m 0,0.125 h 809.75391 v 809.75 H 0 Z m 0,0"
         clip-rule="nonzero"
         id="path1" />
    </clipPath>
    <clipPath
       id="2cc3cefd59">
      <path
         d="M 24.921875,271.25391 H 213.86328 v 188.9414 H 24.921875 Z m 0,0"
         clip-rule="nonzero"
         id="path2" />
    </clipPath>
  </defs>
  <g
     clip-path="url(#2cc3cefd59)"
     id="g4"
     transform="translate(-24.953739,-271.28519)">
    <path
       fill="#ed1c24"
       d="m 114.54297,271.40625 c -29.808595,1.53516 -57.070314,17.03516 -73.691408,41.88672 -14.90625,22.28906 -19.585937,49.78515 -12.953124,75.88281 0.332031,1.31641 0.847656,3.14453 1.136718,4.07031 l 0.527344,1.69141 19.460938,0.0273 c 17.773437,0.0156 19.558593,0 20.570312,-0.22265 2.867188,-0.59375 5.042969,-1.73047 6.84375,-3.5586 1.191406,-1.1914 1.441406,-1.59375 2.839844,-4.61328 0.679687,-1.45312 2.117187,-4.47265 3.214844,-6.71875 1.078124,-2.24219 2.351562,-4.98437 2.824218,-6.09375 0.871094,-2.05078 3.046875,-7.82812 3.890625,-10.30469 0.445313,-1.33203 0.472657,-1.35937 0.679688,-1.03906 0.554687,0.84375 6.289062,8.83594 8.242187,11.48047 1.207032,1.63672 3.367184,4.73828 4.792974,6.88672 3.24218,4.89062 4.0039,5.88672 6.34375,8.21484 1.99609,1.98047 2.89453,2.61719 4.86328,3.42188 1.35547,0.5664 2.48047,0.84375 4.28125,1.07812 1.25781,0.16797 1.67578,0.16797 2.96484,0 1.95313,-0.25 3.33594,-0.64843 4.94531,-1.39843 1.64844,-0.77735 2.92188,-1.75782 4.625,-3.51954 1.81641,-1.89453 2.91016,-3.33593 5.90235,-7.82421 1.41015,-2.13282 3.44921,-5.07032 4.51562,-6.51172 2.08984,-2.82422 6.73047,-9.29297 7.9375,-11.05469 l 0.74609,-1.07813 1.20704,3.39063 c 2.0625,5.75 3.71093,9.72656 5.5664,13.45312 0.52735,1.06641 1.8711,3.86329 2.98047,6.23438 2.25781,4.79297 2.6875,5.45703 4.51563,6.92578 1.6875,1.35547 3.71093,2.24219 6.1914,2.71484 0.67578,0.125 3.48828,0.16407 11.30078,0.13672 5.73438,-0.0273 10.44532,0.0156 10.48828,0.082 0.082,0.14063 -1.23437,3.16016 -2.46484,5.65235 -2.67578,5.42969 -6.65234,11.41406 -10.73828,16.20703 -1.95313,2.27344 -6.59375,6.88672 -8.86328,8.79687 -9.25391,7.78516 -19.64453,13.1875 -31.09766,16.13672 -14.42187,3.74219 -29.71484,3.29688 -43.871091,-1.25781 -9.738281,-3.14453 -18.671875,-8.12109 -26.707031,-14.87891 -2.394532,-2.02343 -7.121094,-6.74609 -9.140626,-9.14062 -0.875,-1.02734 -2.285156,-2.82813 -3.160156,-3.99219 l -1.5625,-2.10547 h -9.226562 c -8.382813,0 -9.210938,0.0156 -9.128906,0.22266 0.234374,0.60937 2.535156,4.44531 4.058593,6.77344 12.066407,18.33984 29.835938,31.78906 50.683594,38.37109 13.257815,4.18359 27.789065,5.35938 41.683595,3.39453 24.83594,-3.54687 47.23437,-16.84375 62.30469,-37.01562 8.94921,-11.96875 15.01562,-26.09766 17.41406,-40.5586 0.15234,-0.95312 0.3164,-1.89843 0.35937,-2.10547 l 0.082,-0.38671 -17.09375,-0.0274 -17.07812,-0.043 -1.01172,-1.73047 c -1.24609,-2.14843 -3.76953,-7.21875 -4.80859,-9.68359 -2.01953,-4.79297 -3.64063,-9.43359 -5.45703,-15.66406 -1.53907,-5.3086 -2.28516,-7.32813 -3.29688,-9.0625 -2.89453,-4.94531 -8.08984,-7.21485 -14.79297,-6.45313 -3.68359,0.42969 -6.53906,1.66016 -8.6875,3.76563 l -1.07812,1.05469 -2.25782,4.55859 c -1.24609,2.49219 -2.66015,5.22266 -3.14453,6.06641 -2.6875,4.64062 -6.1914,10.17968 -9.04687,14.26562 -1.39844,2.01172 -5.20703,7.13672 -5.28906,7.13672 -0.11328,0 -4.08985,-5.375 -5.77735,-7.82813 -4.97265,-7.1875 -8.71484,-13.46484 -11.83203,-19.83593 -1.42578,-2.9375 -2.16015,-4.28125 -2.617186,-4.82032 -1.355469,-1.57812 -3.753906,-3.0625 -6.039063,-3.72656 -2.007812,-0.5664 -3.101562,-0.70703 -5.734375,-0.6914 -2.851562,0 -4.28125,0.26171 -6.191406,1.07812 -1.71875,0.73438 -2.550781,1.30469 -3.863281,2.57813 -2.453125,2.39453 -3.367188,4.375 -5.667969,12.25781 -3.089844,10.58203 -6.164062,18.07812 -10.484375,25.55859 l -0.679687,1.17578 -9.558594,0.043 -9.570313,0.0274 -0.304687,-2.17579 c -0.886719,-6.52343 -1.039063,-11.77343 -0.484375,-18.1875 1.410156,-16.60937 8.117187,-32.23437 19.265625,-44.96484 12.648437,-14.46094 30.28125,-23.78125 49.425786,-26.15234 3.35156,-0.41407 5.625,-0.53907 9.625,-0.53907 6.96875,0 12.6914,0.69141 19.21484,2.32813 27.77344,6.96484 49.73047,28.76953 56.90234,56.51562 1.46875,5.66407 2.23047,11.02735 2.50781,17.55079 l 0.0859,2.32812 h 15.76172 v -0.82031 c 0,-1.53516 -0.27734,-6.46875 -0.5,-8.60156 -2.35156,-23.90625 -13.57422,-45.73829 -31.70703,-61.72266 -10.375,-9.14453 -22.92188,-15.98438 -36.42969,-19.85156 -9.68359,-2.78516 -20.43359,-3.98828 -30.68359,-3.46094 z m 0,0"
       fill-opacity="1"
       fill-rule="nonzero"
       id="path4" />
  </g>
  <g
     fill="#000000"
     fill-opacity="1"
     id="g7"
     transform="translate(-24.953739,-271.28519)">
    <g
       transform="translate(229.2988,366.08663)"
       id="g6">
      <g
         id="g5">
        <path
           d="m 39.125,-14.109375 -2.015625,5.96875 -2.015625,-5.96875 -16.953125,-45.671875 h -11 V 0 H 14.28125 V -39.640625 L 14.015625,-50.46875 17.96875,-41.0625 33.421875,0 H 40.8125 l 14.265625,-39.71875 4.28125,-10.65625 -0.15625,10.734375 V 0 h 7.125 V -59.78125 H 55.5 Z m 0,0"
           id="path5" />
      </g>
    </g>
  </g>
  <g
     fill="#000000"
     fill-opacity="1"
     id="g10"
     transform="translate(-24.953739,-271.28519)">
    <g
       transform="translate(296.47829,366.08663)"
       id="g9">
      <g
         id="g8">
        <path
           d="M 57.609375,0 34.515625,-59.78125 H 25.6875 L 2.515625,0 h 8.3125 l 6.46875,-17.546875 H 42.65625 L 48.953125,0 Z M 28.125,-47.015625 l 2.015625,-6.21875 1.9375,6.21875 8.140625,22.671875 H 19.8125 Z m 0,0"
           id="path7" />
      </g>
    </g>
  </g>
  <g
     fill="#000000"
     fill-opacity="1"
     id="g13"
     transform="translate(-24.953739,-271.28519)">
    <g
       transform="translate(350.30586,366.08663)"
       id="g12">
      <g
         id="g11">
        <path
           d="m 51.640625,-19.0625 c -0.59375,-5.546875 -3.953125,-8.984375 -9.15625,-9.984375 C 48.78125,-30.8125 53.15625,-36.28125 53.15625,-44 c 0,-9.578125 -6.890625,-15.78125 -18.3125,-15.78125 H 7.140625 V 0 h 7.8125 v -25.78125 h 18.46875 c 6.96875,0 9.984375,2.78125 10.75,9.828125 L 45.9375,0 h 7.890625 z m -36.6875,-13.515625 v -20.40625 H 33.5 c 7.5625,0 11.671875,3.4375 11.671875,9.734375 0,6.8125 -4.859375,10.671875 -13.015625,10.671875 z m 0,0"
           id="path10" />
      </g>
    </g>
  </g>
  <g
     fill="#000000"
     fill-opacity="1"
     id="g16"
     transform="translate(-24.953739,-271.28519)">
    <g
       transform="translate(404.13344,366.08663)"
       id="g15">
      <g
         id="g14">
        <path
           d="M 55.75,-59.78125 H 45.34375 L 14.953125,-30.484375 V -59.78125 h -7.8125 V 0 h 7.8125 v -20.90625 l 10.0625,-9.828125 7.640625,10.40625 L 47.6875,0 h 9.75 L 30.484375,-35.6875 Z m 0,0"
           id="path13" />
      </g>
    </g>
  </g>
  <g
     fill="#000000"
     fill-opacity="1"
     id="g25"
     transform="translate(-24.953739,-271.28519)">
    <g
       transform="translate(490.55895,366.08663)"
       id="g24">
      <g
         id="g23">
        <path
           d="M 27.453125,-59.78125 H 7.140625 V 0 H 25.78125 C 46.015625,0 55,-11.84375 55,-29.890625 55,-48.28125 46.34375,-59.78125 27.453125,-59.78125 Z m -12.5,52.984375 v -46.1875 H 25.4375 c 14.875,0 21.578125,7.21875 21.578125,23.09375 0,15.53125 -6.375,23.09375 -22,23.09375 z m 0,0"
           id="path22" />
      </g>
    </g>
  </g>
  <g
     fill="#000000"
     fill-opacity="1"
     id="g28"
     transform="translate(-24.953739,-271.28519)">
    <g
       transform="translate(544.1346,366.08663)"
       id="g27">
      <g
         id="g26">
        <path
           d="m 14.953125,-27.375 h 31.8125 v -6.796875 h -31.8125 v -18.8125 h 34.5 V -59.78125 H 7.140625 V 0 H 50.21875 V -6.796875 H 14.953125 Z m 0,0"
           id="path25" />
      </g>
    </g>
  </g>
  <g
     fill="#000000"
     fill-opacity="1"
     id="g31"
     transform="translate(-24.953739,-271.28519)">
    <g
       transform="translate(593.51154,366.08663)"
       id="g30">
      <g
         id="g29">
        <path
           d="m 32.40625,1.421875 c 14.03125,0 23.265625,-8.8125 25.28125,-23.171875 h -7.71875 c -1.4375,10.75 -7.90625,16.203125 -17.3125,16.203125 -12.171875,0 -19.3125,-9.40625 -19.3125,-24.34375 0,-14.953125 7.234375,-24.015625 19.3125,-24.015625 8.234375,0 14.453125,4.28125 16.296875,12.171875 H 56.9375 C 55.078125,-53.484375 44.84375,-60.875 32.328125,-60.875 15.875,-60.875 5.375,-48.203125 5.375,-29.890625 c 0,18.140625 10.25,31.3125 27.03125,31.3125 z m 0,0"
           id="path28" />
      </g>
    </g>
  </g>
  <g
     fill="#000000"
     fill-opacity="1"
     id="g34"
     transform="translate(-24.953739,-271.28519)">
    <g
       transform="translate(648.6827,366.08663)"
       id="g33">
      <g
         id="g32">
        <path
           d="m 33.59375,1.421875 c 16.78125,0 28.296875,-12.84375 28.296875,-31.3125 C 61.890625,-48.03125 50.375,-60.875 33.59375,-60.875 16.875,-60.875 5.375,-48.03125 5.375,-29.890625 c 0,18.296875 11.5,31.3125 28.21875,31.3125 z m 0.07813,-6.96875 c -11.921875,0 -20.328125,-9.484375 -20.328125,-24.34375 0,-14.703125 8.40625,-24.015625 20.328125,-24.015625 11.84375,0 20.234375,9.3125 20.234375,24.015625 0,15.03125 -8.234375,24.34375 -20.234375,24.34375 z m 0,0"
           id="path31" />
      </g>
    </g>
  </g>
  <g
     fill="#000000"
     fill-opacity="1"
     id="g37"
     transform="translate(-24.953739,-271.28519)">
    <g
       transform="translate(709.64809,366.08663)"
       id="g36">
      <g
         id="g35">
        <path
           d="m 51.640625,-19.0625 c -0.59375,-5.546875 -3.953125,-8.984375 -9.15625,-9.984375 C 48.78125,-30.8125 53.15625,-36.28125 53.15625,-44 c 0,-9.578125 -6.890625,-15.78125 -18.3125,-15.78125 H 7.140625 V 0 h 7.8125 v -25.78125 h 18.46875 c 6.96875,0 9.984375,2.78125 10.75,9.828125 L 45.9375,0 h 7.890625 z m -36.6875,-13.515625 v -20.40625 H 33.5 c 7.5625,0 11.671875,3.4375 11.671875,9.734375 0,6.8125 -4.859375,10.671875 -13.015625,10.671875 z m 0,0"
           id="path34" />
      </g>
    </g>
  </g>
  <g
     fill="#000000"
     fill-opacity="1"
     id="g40"
     transform="translate(-24.953739,-271.28519)">
    <g
       transform="translate(231.67173,423.01437)"
       id="g39">
      <g
         id="g38">
        <path
           d="M 20.828125,-39.234375 H 4.6875 V 0 h 5.125 v -16.359375 h 10.90625 c 7.59375,0 12.71875,-3.859375 12.71875,-11.625 0,-7.5 -5.015625,-11.25 -12.609375,-11.25 z M 9.8125,-20.828125 v -13.9375 h 10.734375 c 4.84375,0 7.765625,2.15625 7.765625,6.828125 0,4.640625 -2.796875,7.109375 -7.484375,7.109375 z m 0,0"
           id="path37" />
      </g>
    </g>
  </g>
  <g
     fill="#000000"
     fill-opacity="1"
     id="g43"
     transform="translate(-24.953739,-271.28519)">
    <g
       transform="translate(263.35175,423.01437)"
       id="g42">
      <g
         id="g41">
        <path
           d="m 17.90625,-29.203125 c -4.296875,0 -7.046875,2.421875 -8.765625,6.234375 v -5.453125 H 4.40625 V 0 h 5.0625 v -15.53125 c 0.234375,-5.796875 4.421875,-8.703125 8.15625,-8.703125 0.5,0 1.046875,0 1.828125,0.04687 v -4.90625 c -0.5,-0.04687 -1,-0.109375 -1.546875,-0.109375 z m 0,0"
           id="path40" />
      </g>
    </g>
  </g>
  <g
     fill="#000000"
     fill-opacity="1"
     id="g46"
     transform="translate(-24.953739,-271.28519)">
    <g
       transform="translate(279.49455,423.01437)"
       id="g45">
      <g
         id="g44">
        <path
           d="m 29.140625,-14.875 c 0,-8.875 -5.015625,-14.21875 -13,-14.21875 -8.484375,0 -13.390625,6.0625 -13.390625,14.765625 0,8.765625 5.015625,14.984375 13.5,14.984375 6.0625,0 10.6875,-3.1875 12.515625,-8.75 L 24.125,-8.65625 c -1.3125,3.3125 -3.734375,5.1875 -7.703125,5.1875 -5.125,0 -8.4375,-3.140625 -8.59375,-9.53125 h 21.3125 z m -12.9375,-10.078125 c 4.625,0 7.546875,2.921875 8.203125,8.3125 H 7.875 c 0.5,-5.5625 3.8125,-8.3125 8.328125,-8.3125 z m 0,0"
           id="path43" />
      </g>
    </g>
  </g>
  <g
     fill="#000000"
     fill-opacity="1"
     id="g49"
     transform="translate(-24.953739,-271.28519)">
    <g
       transform="translate(307.26271,423.01437)"
       id="g48">
      <g
         id="g47">
        <path
           d="m 34.59375,-29.140625 c -4.125,0 -7.15625,1.65625 -9.03125,4.953125 -1.265625,-3.25 -4.015625,-4.953125 -7.875,-4.953125 -3.90625,0 -6.671875,1.703125 -8.546875,4.734375 v -4.015625 H 4.40625 V 0 h 5.0625 v -15.15625 c 0,-7.328125 3.640625,-9.578125 6.953125,-9.578125 3.140625,0 4.90625,1.984375 4.90625,5.28125 V 0 h 5.0625 v -15.421875 c 0,-7.328125 3.640625,-9.3125 6.9375,-9.3125 3.140625,0 4.90625,1.984375 4.90625,5.28125 V 0 h 5.0625 v -19.5 c 0,-6.609375 -3.140625,-9.640625 -8.703125,-9.640625 z m 0,0"
           id="path46" />
      </g>
    </g>
  </g>
  <g
     fill="#000000"
     fill-opacity="1"
     id="g52"
     transform="translate(-24.953739,-271.28519)">
    <g
       transform="translate(350.84357,423.01437)"
       id="g51">
      <g
         id="g50">
        <path
           d="m 9.46875,-33.765625 v -5.46875 h -5.0625 v 5.46875 z M 9.46875,0 V -28.421875 H 4.40625 V 0 Z m 0,0"
           id="path49" />
      </g>
    </g>
  </g>
  <g
     fill="#000000"
     fill-opacity="1"
     id="g55"
     transform="translate(-24.953739,-271.28519)">
    <g
       transform="translate(360.59517,423.01437)"
       id="g54">
      <g
         id="g53">
        <path
           d="m 23.25,-12.609375 c 0,6.765625 -4.1875,8.921875 -8.09375,8.921875 -3.859375,0 -5.6875,-2.09375 -5.6875,-6.015625 v -18.71875 h -5.0625 v 19.71875 c 0,6 3.6875,9.421875 9.640625,9.421875 4.1875,0 7.609375,-1.703125 9.53125,-4.734375 V 0 H 28.3125 V -28.421875 H 23.25 Z m 0,0"
           id="path52" />
      </g>
    </g>
  </g>
  <g
     fill="#000000"
     fill-opacity="1"
     id="g58"
     transform="translate(-24.953739,-271.28519)">
    <g
       transform="translate(389.18978,423.01437)"
       id="g57">
      <g
         id="g56">
        <path
           d="m 34.59375,-29.140625 c -4.125,0 -7.15625,1.65625 -9.03125,4.953125 -1.265625,-3.25 -4.015625,-4.953125 -7.875,-4.953125 -3.90625,0 -6.671875,1.703125 -8.546875,4.734375 v -4.015625 H 4.40625 V 0 h 5.0625 v -15.15625 c 0,-7.328125 3.640625,-9.578125 6.953125,-9.578125 3.140625,0 4.90625,1.984375 4.90625,5.28125 V 0 h 5.0625 v -15.421875 c 0,-7.328125 3.640625,-9.3125 6.9375,-9.3125 3.140625,0 4.90625,1.984375 4.90625,5.28125 V 0 h 5.0625 v -19.5 c 0,-6.609375 -3.140625,-9.640625 -8.703125,-9.640625 z m 0,0"
           id="path55" />
      </g>
    </g>
  </g>
  <g
     fill="#000000"
     fill-opacity="1"
     id="g67"
     transform="translate(-24.953739,-271.28519)">
    <g
       transform="translate(454.27181,423.01437)"
       id="g66">
      <g
         id="g65">
        <path
           d="m 18.84375,0.828125 c 10.859375,0 15.15625,-5.40625 15.15625,-11.625 0,-6.109375 -3.96875,-9.59375 -11.25,-11.125 l -6.890625,-1.5 C 10.96875,-24.46875 9.03125,-26.21875 9.03125,-29.3125 c 0,-4.125 3.3125,-6.5 8.921875,-6.5 6.015625,0 9.484375,2.640625 9.921875,7.609375 h 4.90625 C 32.125,-35.75 26.828125,-40 18.125,-40 c -9.03125,0 -13.9375,4.515625 -13.9375,11.125 0,6.234375 4.625,8.875 11.015625,10.203125 l 5.515625,1.15625 c 6.109375,1.265625 8.3125,3.296875 8.3125,7 0,4.40625 -3.296875,7.15625 -10.03125,7.15625 -6.765625,0 -10.734375,-2.8125 -11.28125,-9.3125 H 2.8125 c 0.65625,9.03125 6.21875,13.5 16.03125,13.5 z m 0,0"
           id="path64" />
      </g>
    </g>
  </g>
  <g
     fill="#000000"
     fill-opacity="1"
     id="g70"
     transform="translate(-24.953739,-271.28519)">
    <g
       transform="translate(486.94356,423.01437)"
       id="g69">
      <g
         id="g68">
        <path
           d="m 16.421875,0.71875 c 7.984375,0 13.71875,-6.234375 13.71875,-15.15625 0,-9.03125 -5.625,-14.703125 -13.5625,-14.703125 -8.15625,0 -13.828125,5.78125 -13.828125,14.921875 0,8.9375 5.515625,14.9375 13.671875,14.9375 z m 0,-4.25 c -5.34375,0 -8.59375,-4.234375 -8.59375,-10.6875 0,-6.4375 3.1875,-10.6875 8.59375,-10.6875 5.5,0 8.640625,4.03125 8.640625,10.46875 0,6.453125 -3.140625,10.90625 -8.640625,10.90625 z m 0,0"
           id="path67" />
      </g>
    </g>
  </g>
  <g
     fill="#000000"
     fill-opacity="1"
     id="g73"
     transform="translate(-24.953739,-271.28519)">
    <g
       transform="translate(515.70345,423.01437)"
       id="g72">
      <g
         id="g71">
        <path
           d="M 9.46875,0 V -39.234375 H 4.40625 V 0 Z m 0,0"
           id="path70" />
      </g>
    </g>
  </g>
  <g
     fill="#000000"
     fill-opacity="1"
     id="g76"
     transform="translate(-24.953739,-271.28519)">
    <g
       transform="translate(525.45506,423.01437)"
       id="g75">
      <g
         id="g74">
        <path
           d="m 9.46875,-33.765625 v -5.46875 h -5.0625 v 5.46875 z M 9.46875,0 V -28.421875 H 4.40625 V 0 Z m 0,0"
           id="path73" />
      </g>
    </g>
  </g>
  <g
     fill="#000000"
     fill-opacity="1"
     id="g79"
     transform="translate(-24.953739,-271.28519)">
    <g
       transform="translate(535.20667,423.01437)"
       id="g78">
      <g
         id="g77">
        <path
           d="m 23.640625,-25.015625 c -1.828125,-2.46875 -4.90625,-4.015625 -8.59375,-4.015625 -7.21875,0 -12.296875,5.78125 -12.296875,14.375 0,8.8125 4.6875,15.265625 12.40625,15.265625 4.125,0 7.4375,-2.15625 9.140625,-5.125 V 0 h 4.40625 v -39.234375 h -5.0625 z m -8,21.265625 c -4.890625,0 -7.8125,-4.296875 -7.8125,-10.90625 0,-6.5 3.03125,-10.03125 7.921875,-10.03125 4.75,0 8.15625,3.421875 8.15625,10.140625 0,6.71875 -3.515625,10.796875 -8.265625,10.796875 z m 0,0"
           id="path76" />
      </g>
    </g>
  </g>
  <g
     fill="#000000"
     fill-opacity="1"
     id="g88"
     transform="translate(-24.953739,-271.28519)">
    <g
       transform="translate(585.69266,423.01437)"
       id="g87">
      <g
         id="g86">
        <path
           d="m 18.84375,0.828125 c 10.859375,0 15.15625,-5.40625 15.15625,-11.625 0,-6.109375 -3.96875,-9.59375 -11.25,-11.125 l -6.890625,-1.5 C 10.96875,-24.46875 9.03125,-26.21875 9.03125,-29.3125 c 0,-4.125 3.3125,-6.5 8.921875,-6.5 6.015625,0 9.484375,2.640625 9.921875,7.609375 h 4.90625 C 32.125,-35.75 26.828125,-40 18.125,-40 c -9.03125,0 -13.9375,4.515625 -13.9375,11.125 0,6.234375 4.625,8.875 11.015625,10.203125 l 5.515625,1.15625 c 6.109375,1.265625 8.3125,3.296875 8.3125,7 0,4.40625 -3.296875,7.15625 -10.03125,7.15625 -6.765625,0 -10.734375,-2.8125 -11.28125,-9.3125 H 2.8125 c 0.65625,9.03125 6.21875,13.5 16.03125,13.5 z m 0,0"
           id="path85" />
      </g>
    </g>
  </g>
  <g
     fill="#000000"
     fill-opacity="1"
     id="g91"
     transform="translate(-24.953739,-271.28519)">
    <g
       transform="translate(618.36441,423.01437)"
       id="g90">
      <g
         id="g89">
        <path
           d="m 23.25,-12.609375 c 0,6.765625 -4.1875,8.921875 -8.09375,8.921875 -3.859375,0 -5.6875,-2.09375 -5.6875,-6.015625 v -18.71875 h -5.0625 v 19.71875 c 0,6 3.6875,9.421875 9.640625,9.421875 4.1875,0 7.609375,-1.703125 9.53125,-4.734375 V 0 H 28.3125 V -28.421875 H 23.25 Z m 0,0"
           id="path88" />
      </g>
    </g>
  </g>
  <g
     fill="#000000"
     fill-opacity="1"
     id="g94"
     transform="translate(-24.953739,-271.28519)">
    <g
       transform="translate(646.95902,423.01437)"
       id="g93">
      <g
         id="g92">
        <path
           d="m 17.90625,-29.203125 c -4.296875,0 -7.046875,2.421875 -8.765625,6.234375 v -5.453125 H 4.40625 V 0 h 5.0625 v -15.53125 c 0.234375,-5.796875 4.421875,-8.703125 8.15625,-8.703125 0.5,0 1.046875,0 1.828125,0.04687 v -4.90625 c -0.5,-0.04687 -1,-0.109375 -1.546875,-0.109375 z m 0,0"
           id="path91" />
      </g>
    </g>
  </g>
  <g
     fill="#000000"
     fill-opacity="1"
     id="g97"
     transform="translate(-24.953739,-271.28519)">
    <g
       transform="translate(663.10182,423.01437)"
       id="g96">
      <g
         id="g95">
        <path
           d="m 18.34375,-34.984375 v -4.25 H 15.3125 c -5.953125,0 -8.53125,2.59375 -8.53125,8.546875 v 2.421875 l -4.578125,-0.15625 v 3.90625 l 4.578125,-0.21875 V 0 h 5.0625 v -24.734375 l 6.5,0.21875 v -3.90625 l -6.5,0.21875 v -3.203125 c 0,-2.703125 0.890625,-3.578125 3.578125,-3.578125 z m 0,0"
           id="path94" />
      </g>
    </g>
  </g>
  <g
     fill="#000000"
     fill-opacity="1"
     id="g100"
     transform="translate(-24.953739,-271.28519)">
    <g
       transform="translate(678.69365,423.01437)"
       id="g99">
      <g
         id="g98">
        <path
           d="M 29.46875,-3.75 C 27.609375,-3.75 27,-4.359375 27,-6.21875 v -13.890625 c 0,-6.21875 -4.078125,-9.09375 -11.140625,-9.09375 -7.3125,0 -11.34375,2.984375 -11.84375,9.265625 H 9.03125 c 0.328125,-3.8125 2.375,-5.078125 6.453125,-5.078125 4.40625,0 6.390625,1.4375 6.390625,4.40625 V -19.5 c 0,1.3125 -0.65625,1.984375 -2.046875,2.140625 l -7.265625,0.9375 c -6.890625,0.890625 -9.703125,4.1875 -9.703125,8.875 0,5.234375 3.75,8.265625 9.53125,8.265625 4.859375,0 8.484375,-2.15625 10.3125,-4.90625 0.21875,2.8125 1.875,4.1875 4.90625,4.1875 h 2.6875 v -3.75 z m -16.140625,0.546875 c -3.296875,0 -5.453125,-1.640625 -5.453125,-4.5625 0,-2.53125 1.546875,-4.296875 5.515625,-4.90625 L 21.875,-13.9375 v 3.96875 c 0,3.640625 -3.96875,6.765625 -8.546875,6.765625 z m 0,0"
           id="path97" />
      </g>
    </g>
  </g>
  <g
     fill="#000000"
     fill-opacity="1"
     id="g103"
     transform="translate(-24.953739,-271.28519)">
    <g
       transform="translate(705.96594,423.01437)"
       id="g102">
      <g
         id="g101">
        <path
           d="m 15.921875,0.71875 c 7.15625,0 11.296875,-3.96875 12.28125,-10.640625 H 23.46875 c -0.765625,4.03125 -3.078125,6.390625 -7.265625,6.390625 -5.40625,0 -8.375,-3.96875 -8.375,-10.6875 0,-6.71875 2.6875,-10.6875 8.421875,-10.6875 3.96875,0 6.390625,1.9375 7.171875,5.78125 h 4.78125 C 27.21875,-25.671875 22.75,-29.140625 16.203125,-29.140625 7.984375,-29.140625 2.75,-23.578125 2.75,-14 c 0,9.59375 5.234375,14.71875 13.171875,14.71875 z m 0,0"
           id="path100" />
      </g>
    </g>
  </g>
  <g
     fill="#000000"
     fill-opacity="1"
     id="g106"
     transform="translate(-24.953739,-271.28519)">
    <g
       transform="translate(732.52197,423.01437)"
       id="g105">
      <g
         id="g104">
        <path
           d="m 29.140625,-14.875 c 0,-8.875 -5.015625,-14.21875 -13,-14.21875 -8.484375,0 -13.390625,6.0625 -13.390625,14.765625 0,8.765625 5.015625,14.984375 13.5,14.984375 6.0625,0 10.6875,-3.1875 12.515625,-8.75 L 24.125,-8.65625 c -1.3125,3.3125 -3.734375,5.1875 -7.703125,5.1875 -5.125,0 -8.4375,-3.140625 -8.59375,-9.53125 h 21.3125 z m -12.9375,-10.078125 c 4.625,0 7.546875,2.921875 8.203125,8.3125 H 7.875 c 0.5,-5.5625 3.8125,-8.3125 8.328125,-8.3125 z m 0,0"
           id="path103" />
      </g>
    </g>
  </g>
</svg>
