<?xml version="1.0" encoding="utf-8"?>
<!-- Generator: Adobe Illustrator 19.0.0, SVG Export Plug-In . SVG Version: 6.00 Build 0)  -->
<svg version="1.1" id="Ebene_1" xmlns="http://www.w3.org/2000/svg" xmlns:xlink="http://www.w3.org/1999/xlink" x="0px" y="0px"
	 viewBox="0 0 400 129" style="enable-background:new 0 0 400 129;" xml:space="preserve">
<style type="text/css">
	.st0{fill:#404040;}
</style>
<g id="XMLID_32_">
	<g id="XMLID_33_">
		<g id="XMLID_71_">
			<path id="XMLID_84_" class="st0" d="M226.9,73.1c-2.9,3.4-6.8,5-11.8,5c-5.1,0-9.3-1.7-12.4-5.2c-3.1-3.3-4.6-7.5-4.6-12.6
				c0-4.8,1.6-8.7,4.7-11.5c3-2.8,7.1-4.1,12.1-4.1c4.9,0,8.8,1.5,11.7,4.5c2.9,3,4.4,6.9,4.4,11.7
				C230.9,65.9,229.6,69.9,226.9,73.1 M215.7,42.1c-6.1,0-11.6,1.7-16.5,5.2c-5.2,3.7-7.8,8.1-7.8,13.3c0,5.9,1.8,10.7,5.4,14.3
				c3.8,3.9,9,5.8,15.7,5.8c6.8,0,12.7-1.9,17.5-5.8c4.8-3.9,7.3-8.7,7.3-14.6C237.3,48.1,230.1,42.1,215.7,42.1"/>
			<path id="XMLID_81_" class="st0" d="M272.9,69.5c-1.1,2.5-2.9,4.5-5.4,6c-2,1.3-6.2,1.9-12.6,1.9c-2.2,0-3.9-0.1-5-0.3
				c-0.8-0.2-1.3-0.4-1.4-0.7c-0.1-0.1-0.1-0.8-0.1-1.9c0-1.4,0-3.6,0-6.6c0-3,0.1-5.2,0.1-6.6c0-7.9,0-12.9,0.1-14.9
				c0-0.6,0.2-0.9,0.6-1.1c0.2,0,1.1-0.1,2.8-0.3c1.7-0.2,3.4-0.3,5.1-0.3c2.1,0,4,0.2,5.6,0.5c1.6,0.3,2.8,0.6,3.7,1
				c1.2,0.5,2.3,1.3,3.4,2.4c3.1,3.1,4.6,6.9,4.6,11.5C274.4,64,273.9,67.1,272.9,69.5 M277.7,49.2c-2.1-2.8-4.9-4.7-8.4-5.7
				c-2.7-0.8-6-1.2-9.7-1.2c-1.4,0-3.6,0.1-6.4,0.3c-2.9,0.2-5.8,0.3-8.7,0.3c-0.9,0-2.5,0-4.8-0.1c-0.6,0-0.8,0.1-0.8,0.3
				c0,0.2,0.6,0.4,1.7,0.6c1.1,0.2,1.8,0.8,1.9,1.7c0.1,0.5,0.2,6.1,0.2,16.8v11c-0.1,2.7-0.4,4.3-0.8,4.9c-0.6,0.9-0.9,1.2-0.9,1.1
				c0,0.2,0.1,0.3,0.2,0.3c0,0,0.3,0,1-0.1c0.7-0.1,1.5-0.1,2.4-0.1c1.6,0,3.7,0,6.2,0.1c2.5,0.1,4.3,0.1,5.3,0.1
				c3.5,0,6.2-0.3,8.1-0.8c4.4-1.2,8.1-3.4,11.2-6.6c3.7-3.8,5.5-8.1,5.5-13C280.8,55.4,279.8,52.1,277.7,49.2"/>
			<path id="XMLID_78_" class="st0" d="M300,48.7c0.3,0.5,1.2,2.2,2.6,4.9c1.5,2.9,2.2,4.3,2.2,4.4c0,0.3-0.9,0.4-2.6,0.4h-4.6
				c-2.4,0-3.7-0.1-3.7-0.4c0-0.2,0.7-1.7,2.2-4.4c1.7-3.1,2.6-4.7,2.7-4.9c0.2-0.5,0.4-0.7,0.6-0.7C299.6,48.1,299.8,48.3,300,48.7
				 M322.5,78.3c-0.4-0.1-0.9-0.2-1.3-0.3c-1.4-0.6-2.6-1.7-3.4-3.3c-11.2-22.1-17.1-33.2-17.6-33.4c-0.2,0-0.4,0.2-0.7,0.7
				c-0.1,0.3-0.2,0.6-0.4,1c-1.9,3.7-3.5,6.6-4.6,8.5L285.5,68c-2.3,4.3-3.9,7.1-4.7,8.4c-0.4,0.7-0.8,1.2-1.1,1.4
				c-0.3,0.2-0.9,0.4-1.7,0.6c-0.3,0-0.6,0.1-1,0.1c-0.4,0-0.5,0.2-0.5,0.4c0,0.3,0.2,0.4,0.6,0.4h9c0.5,0,0.7-0.1,0.7-0.4
				c0-0.2-0.5-0.4-1.4-0.5c-0.9-0.1-1.4-0.4-1.4-1c0-0.4,1.2-2.8,3.6-7.3c2.1-4.1,3.5-6.7,4.2-7.8c0.3-0.5,0.6-0.8,0.8-0.9
				c0.2-0.1,0.7-0.1,1.4-0.1h11.7c0.4,0,0.7,0.2,1,0.6c0.6,1,2,3.7,4.3,8.1c2.4,4.6,3.6,7,3.6,7.3c0,0.5-0.5,0.8-1.6,1
				c-1.1,0.1-1.6,0.3-1.6,0.6c0,0.2,0.2,0.3,0.6,0.3c0.6,0,1.4,0,2.6,0c1.1,0,2.8-0.1,3.4-0.1c0.6,0,1.4,0,2.5,0.1
				c1.1,0,1.9,0,2.5,0c0.4,0,0.6-0.1,0.6-0.3C323.4,78.6,323.1,78.5,322.5,78.3"/>
			<path id="XMLID_75_" class="st0" d="M348.1,77.6c-1.4,0.3-2.7,0.4-4.1,0.4c-5.1,0-9.3-1.8-12.5-5.2c-3.1-3.4-4.7-7.6-4.7-12.7
				c0-4.9,1.6-8.9,4.7-11.8c3.1-3,7.2-4.4,12.3-4.4c5,0,9.1,1.5,12.3,4.5c3.2,3,4.8,7,4.8,11.9C361,70,356.7,75.8,348.1,77.6
				 M374.1,85.4c-0.3,0.1-0.6,0.2-0.7,0.2c-1.7,0.7-3.5,1.1-5.4,1.1c-2.1,0-4.7-0.4-7.6-1.3c-4.1-1.3-7.2-2.2-9.2-2.9
				c-2.9-0.7-5.1-1.3-6.6-1.6c-0.1,0-0.2-0.1-0.2-0.2l0.3-0.4c6.5-0.6,11.9-2.8,16.1-6.4c4.4-3.8,6.6-8.5,6.6-14.1
				c0-12.1-7.6-18.1-22.7-18.1c-6.1,0-11.7,1.8-16.7,5.3c-5.3,3.8-7.9,8.3-7.9,13.5c0,4.3,1,8,2.9,11.1c2.2,3.5,5.4,6,9.7,7.4
				c1.7,0.5,4,0.9,6.7,1.2c0.9,0.1,1.4,0.2,1.4,0.4c0,0.2-0.2,0.4-0.7,0.5c-2.5,0.6-4,1-4.5,1.2c-1.5,0.6-2.5,1.5-3.1,2.8
				c-0.1,0.3-0.2,0.5-0.2,0.6c0,0.1,0,0.1,0.1,0.1c-0.1,0,0.7-0.4,2.5-1.3c1.8-0.9,3.5-1.3,5.2-1.3c2,0,4.9,0.5,8.7,1.6
				c2.9,0.9,5.7,1.7,8.6,2.6c2.5,0.7,5.2,1,8.1,1c3.8,0,6.3-0.3,7.3-0.8c0.3-0.3,0.5-0.6,0.5-0.7c0-0.1,0.2-0.3,0.4-0.8
				C374,85.9,374.1,85.6,374.1,85.4C374.1,85.5,374.1,85.5,374.1,85.4"/>
			<path id="XMLID_72_" class="st0" d="M177,71.4c-3.4,3.5-9.9,5.3-19.7,5.3c-5.1,0-8.9-0.2-11.3-0.5c-1.2-0.2-1.8-0.4-2-0.5
				c-0.1-0.2-0.3-0.8-0.3-1.8c-0.3-5.1-0.5-13.3-0.5-24.4c0-2.3,0.1-5.3,0.2-9c0.1-3.7,0.2-6.2,0.2-7.5v-4.9c0-0.5,0.7-0.8,2.2-0.9
				c4.4-0.2,7.7-0.3,9.7-0.3c5.4-0.1,9.9,0.9,13.3,2.8c3.2,1.9,4.8,4.3,4.8,7.2c0,1.7-0.6,3.4-1.8,5.2c-2.5,3.6-7.4,5.8-14.9,6.6
				c-1.1,0.1-1.9,0.3-2.3,0.6c-0.4,0.3-1.2,0.8-2.4,1.3c-0.7,0.3-1.1,0.5-1.1,0.7c0,0.1,0.3,0.2,1.1,0.1c0.7-0.1,2.6-0.1,5.8-0.1
				c6.2,0,11.5,1.1,15.9,3.4c4.1,2.2,6.2,4.7,6.2,7.6C180,66.2,179,69.3,177,71.4 M179.6,51.3c-2.8-1.4-6.5-2.3-10.9-2.9
				c-1.3-0.1-1.5-0.5-0.6-1c4.8-2.9,7.4-4.5,7.6-4.7c3.5-2.8,5.2-6,5.2-9.4c0-2.3-1.3-4.3-3.9-6c-3.5-2.3-8.7-3.4-15.8-3.4
				c-1.3,0-4,0.1-8.1,0.4c-4.1,0.3-8.2,0.4-12.2,0.4c-2.9,0-5.7,0-8.7-0.1c-1.9,0-3,0-3.3,0c-0.4,0-0.6,0.2-0.6,0.6
				c0,0.3,0.2,0.5,0.5,0.6c0.1,0.1,1,0.1,2.7,0.2c2.6,0.2,4,1.4,4.1,3.5c0.4,9.3,0.6,15.7,0.6,19.3c0.1,3.1,0.1,6.5,0,10.4
				c0,2.6,0,5.4-0.1,8.6c-0.1,2.8-0.1,4.2-0.1,4.4c0,3-0.7,5-2.3,6.2c-0.6,0.4-0.9,0.6-0.9,0.6c0,0.2,0.4,0.4,1.1,0.4h6.2
				c2.9,0,5.8,0,8.5,0.1c2.8,0.1,5.2,0.1,7.3,0.1c7.3,0,14.7-2.2,22.3-6.7c6.2-3.7,9.4-7.7,9.4-12.1C187.7,57.1,185,53.9,179.6,51.3
				"/>
		</g>
		<g id="XMLID_68_">
			<path id="XMLID_70_" class="st0" d="M63.6,69.3c0,0-16,4.8-35.9-4.1l38.4,39.9C62.3,100.4,54,87.2,63.6,69.3"/>
			<path id="XMLID_69_" class="st0" d="M26.4,22.4V61c0,0,31,14.7,46-0.3c0,0-21.2,24.9,0,46.1h41.3V22.4H26.4z"/>
		</g>
		<g id="XMLID_34_">
			<polygon id="XMLID_67_" class="st0" points="136.2,94.9 136.2,99.6 143.5,99.6 143.5,94.9 145.4,94.9 145.4,106.1 143.5,106.1 
				143.5,100.8 136.2,100.8 136.2,106.1 134.3,106.1 134.3,94.9 			"/>
			<path id="XMLID_64_" class="st0" d="M152,102.6l-1.6,3.5h-2l5.1-11.3h2.3l5.1,11.3h-2.1l-1.6-3.5H152z M156.9,101.4l-1.5-3.2
				c-0.3-0.7-0.6-1.4-0.8-2.1h0c-0.2,0.7-0.5,1.4-0.8,2l-1.5,3.3H156.9z"/>
			<path id="XMLID_63_" class="st0" d="M164,106.1V94.9h2.1l4.8,5.7c1.1,1.3,2,2.5,2.7,3.7l0,0c-0.2-1.5-0.2-2.9-0.2-4.6v-4.7h1.8
				v11.3h-2l-4.8-5.7c-1-1.2-2-2.5-2.8-3.8l-0.1,0c0.1,1.4,0.2,2.8,0.2,4.6v4.8H164z"/>
			<path id="XMLID_62_" class="st0" d="M181.8,106.1L178,94.9h2l1.8,5.7c0.4,1.4,0.8,2.8,1.1,3.9h0c0.2-1.1,0.7-2.5,1.2-3.9l2-5.7h2
				l1.8,5.7c0.4,1.3,0.8,2.7,1,3.9h0c0.3-1.2,0.7-2.5,1.2-3.9l2-5.7h2l-4.2,11.3h-2l-1.9-5.9c-0.5-1.4-0.8-2.5-1-3.7h0
				c-0.3,1.1-0.6,2.2-1.1,3.7l-2.1,5.9H181.8z"/>
			<polygon id="XMLID_61_" class="st0" points="200.9,94.9 200.9,99.6 208.2,99.6 208.2,94.9 210.1,94.9 210.1,106.1 208.2,106.1 
				208.2,100.8 200.9,100.8 200.9,106.1 199,106.1 199,94.9 			"/>
			<path id="XMLID_58_" class="st0" d="M216.7,102.6l-1.6,3.5h-2l5.1-11.3h2.3l5.1,11.3h-2.1l-1.6-3.5H216.7z M221.6,101.4l-1.5-3.2
				c-0.3-0.7-0.6-1.4-0.8-2.1h0c-0.2,0.7-0.5,1.4-0.8,2l-1.5,3.3H221.6z"/>
			<polygon id="XMLID_57_" class="st0" points="327.7,94.9 335.8,94.9 335.8,96.1 329.6,96.1 329.6,99.8 335.3,99.8 335.3,101 
				329.6,101 329.6,106.1 327.7,106.1 			"/>
			<rect id="XMLID_56_" x="339.3" y="94.9" class="st0" width="1.9" height="11.3"/>
			<polygon id="XMLID_55_" class="st0" points="345.4,94.9 347.4,94.9 347.4,104.9 353.8,104.9 353.8,106.1 345.4,106.1 			"/>
			<path id="XMLID_54_" class="st0" d="M369.3,101.2c-0.1-1.6-0.2-3.5-0.2-4.9H369c-0.5,1.3-1.1,2.7-1.9,4.3l-2.6,5.5H363l-2.4-5.4
				c-0.7-1.6-1.3-3-1.7-4.4h0c0,1.4-0.2,3.3-0.3,5l-0.4,4.8h-1.8l1-11.3h2.5l2.6,5.4c0.6,1.4,1.1,2.6,1.5,3.8h0.1
				c0.4-1.1,0.9-2.4,1.6-3.8l2.7-5.4h2.5l0.9,11.3h-1.9L369.3,101.2z"/>
			<path id="XMLID_52_" class="st0" d="M232.5,106.2V94.8h1.9v11.4H232.5z"/>
			<path id="XMLID_50_" class="st0" d="M238.6,106.2V94.8h1.9l6.9,8.8v-8.8h1.7v11.4h-1.9l-6.9-8.8v8.8H238.6z"/>
			<path id="XMLID_48_" class="st0" d="M256.4,106.2V96h-4.9v-1.2h11.7V96h-4.9v10.2H256.4z"/>
			<path id="XMLID_46_" class="st0" d="M265.7,106.2V94.8h7.7V96h-5.7v3.7h4.8v1.2h-4.8v4.1h6.1v1.2H265.7z"/>
			<path id="XMLID_43_" class="st0" d="M276.6,106.2V94.8h4.1c1.3,0,2.3,0.2,3,0.7c0.7,0.5,1.1,1.2,1.1,2.1c0,0.7-0.2,1.4-0.7,1.9
				c-0.5,0.6-1.2,1-2,1.3l4.6,5.3h-2.4l-3.9-4.8h-1.8v4.8H276.6z M278.5,100.2h0.6c1.2,0,2.1-0.2,2.7-0.6c0.6-0.4,0.9-1,0.9-1.8
				c0-1.2-1-1.8-3.1-1.8h-1.2V100.2z"/>
			<path id="XMLID_41_" class="st0" d="M289.1,106.2V94.8h1.9v11.4H289.1z"/>
			<path id="XMLID_38_" class="st0" d="M300.8,106.5c-1.9,0-3.5-0.5-4.7-1.6c-1.2-1.1-1.7-2.5-1.7-4.3c0-1.8,0.6-3.3,1.7-4.3
				c1.2-1.1,2.7-1.6,4.7-1.6c1.9,0,3.5,0.5,4.7,1.6c1.2,1.1,1.7,2.5,1.7,4.3c0,1.8-0.6,3.3-1.7,4.3
				C304.3,105.9,302.7,106.5,300.8,106.5z M300.8,105.3c1.4,0,2.4-0.4,3.2-1.3c0.8-0.8,1.1-2,1.1-3.5c0-1.5-0.4-2.7-1.1-3.5
				c-0.8-0.8-1.8-1.3-3.2-1.3c-1.4,0-2.4,0.4-3.2,1.3c-0.8,0.8-1.1,2-1.1,3.5c0,1.5,0.4,2.7,1.1,3.5
				C298.3,104.8,299.4,105.3,300.8,105.3z"/>
			<path id="XMLID_35_" class="st0" d="M310.5,106.2V94.8h4.1c1.3,0,2.3,0.2,3,0.7c0.7,0.5,1.1,1.2,1.1,2.1c0,0.7-0.2,1.4-0.7,1.9
				c-0.5,0.6-1.2,1-2,1.3l4.6,5.3h-2.4l-3.9-4.8h-1.8v4.8H310.5z M312.4,100.2h0.6c1.2,0,2.1-0.2,2.7-0.6c0.6-0.4,0.9-1,0.9-1.8
				c0-1.2-1-1.8-3.1-1.8h-1.2V100.2z"/>
		</g>
	</g>
</g>
</svg>
