<svg xmlns="http://www.w3.org/2000/svg" xmlns:xlink="http://www.w3.org/1999/xlink" width="1093" zoomAndPan="magnify" viewBox="0 0 819.75 809.999993" height="1080" preserveAspectRatio="xMidYMid meet" version="1.0"><defs><g/><clipPath id="1b5e56bd9a"><path d="M 0 0.125 L 809.753906 0.125 L 809.753906 809.875 L 0 809.875 Z M 0 0.125 " clip-rule="nonzero"/></clipPath><clipPath id="2cc3cefd59"><path d="M 24.921875 271.253906 L 213.863281 271.253906 L 213.863281 460.195312 L 24.921875 460.195312 Z M 24.921875 271.253906 " clip-rule="nonzero"/></clipPath></defs><g clip-path="url(#1b5e56bd9a)"><path fill="#ffffff" d="M 0 0.125 L 809.753906 0.125 L 809.753906 809.875 L 0 809.875 Z M 0 0.125 " fill-opacity="1" fill-rule="nonzero"/></g><g clip-path="url(#2cc3cefd59)"><path fill="#ed1c24" d="M 114.542969 271.40625 C 84.734375 272.941406 57.472656 288.441406 40.851562 313.292969 C 25.945312 335.582031 21.265625 363.078125 27.898438 389.175781 C 28.230469 390.492188 28.746094 392.320312 29.035156 393.246094 L 29.5625 394.9375 L 49.023438 394.964844 C 66.796875 394.980469 68.582031 394.964844 69.59375 394.742188 C 72.460938 394.148438 74.636719 393.011719 76.4375 391.183594 C 77.628906 389.992188 77.878906 389.589844 79.277344 386.570312 C 79.957031 385.117188 81.394531 382.097656 82.492188 379.851562 C 83.570312 377.609375 84.84375 374.867188 85.316406 373.757812 C 86.1875 371.707031 88.363281 365.929688 89.207031 363.453125 C 89.652344 362.121094 89.679688 362.09375 89.886719 362.414062 C 90.441406 363.257812 96.175781 371.25 98.128906 373.894531 C 99.335938 375.53125 101.496094 378.632812 102.921875 380.78125 C 106.164062 385.671875 106.925781 386.667969 109.265625 388.996094 C 111.261719 390.976562 112.160156 391.613281 114.128906 392.417969 C 115.484375 392.984375 116.609375 393.261719 118.410156 393.496094 C 119.667969 393.664062 120.085938 393.664062 121.375 393.496094 C 123.328125 393.246094 124.710938 392.847656 126.320312 392.097656 C 127.96875 391.320312 129.242188 390.339844 130.945312 388.578125 C 132.761719 386.683594 133.855469 385.242188 136.847656 380.753906 C 138.257812 378.621094 140.296875 375.683594 141.363281 374.242188 C 143.453125 371.417969 148.09375 364.949219 149.300781 363.1875 L 150.046875 362.109375 L 151.253906 365.5 C 153.316406 371.25 154.964844 375.226562 156.820312 378.953125 C 157.347656 380.019531 158.691406 382.816406 159.800781 385.1875 C 162.058594 389.980469 162.488281 390.644531 164.316406 392.113281 C 166.003906 393.46875 168.027344 394.355469 170.507812 394.828125 C 171.183594 394.953125 173.996094 394.992188 181.808594 394.964844 C 187.542969 394.9375 192.253906 394.980469 192.296875 395.046875 C 192.378906 395.1875 191.0625 398.207031 189.832031 400.699219 C 187.15625 406.128906 183.179688 412.113281 179.09375 416.90625 C 177.140625 419.179688 172.5 423.792969 170.230469 425.703125 C 160.976562 433.488281 150.585938 438.890625 139.132812 441.839844 C 124.710938 445.582031 109.417969 445.136719 95.261719 440.582031 C 85.523438 437.4375 76.589844 432.460938 68.554688 425.703125 C 66.160156 423.679688 61.433594 418.957031 59.414062 416.5625 C 58.539062 415.535156 57.128906 413.734375 56.253906 412.570312 L 54.691406 410.464844 L 45.464844 410.464844 C 37.082031 410.464844 36.253906 410.480469 36.335938 410.6875 C 36.570312 411.296875 38.871094 415.132812 40.394531 417.460938 C 52.460938 435.800781 70.230469 449.25 91.078125 455.832031 C 104.335938 460.015625 118.867188 461.191406 132.761719 459.226562 C 157.597656 455.679688 179.996094 442.382812 195.066406 422.210938 C 204.015625 410.242188 210.082031 396.113281 212.480469 381.652344 C 212.632812 380.699219 212.796875 379.753906 212.839844 379.546875 L 212.921875 379.160156 L 195.828125 379.132812 L 178.75 379.089844 L 177.738281 377.359375 C 176.492188 375.210938 173.96875 370.140625 172.929688 367.675781 C 170.910156 362.882812 169.289062 358.242188 167.472656 352.011719 C 165.933594 346.703125 165.1875 344.683594 164.175781 342.949219 C 161.28125 338.003906 156.085938 335.734375 149.382812 336.496094 C 145.699219 336.925781 142.84375 338.15625 140.695312 340.261719 L 139.617188 341.316406 L 137.359375 345.875 C 136.113281 348.367188 134.699219 351.097656 134.214844 351.941406 C 131.527344 356.582031 128.023438 362.121094 125.167969 366.207031 C 123.769531 368.21875 119.960938 373.34375 119.878906 373.34375 C 119.765625 373.34375 115.789062 367.96875 114.101562 365.515625 C 109.128906 358.328125 105.386719 352.050781 102.269531 345.679688 C 100.84375 342.742188 100.109375 341.398438 99.652344 340.859375 C 98.296875 339.28125 95.898438 337.796875 93.613281 337.132812 C 91.605469 336.566406 90.511719 336.425781 87.878906 336.441406 C 85.027344 336.441406 83.597656 336.703125 81.6875 337.519531 C 79.96875 338.253906 79.136719 338.824219 77.824219 340.097656 C 75.371094 342.492188 74.457031 344.472656 72.15625 352.355469 C 69.066406 362.9375 65.992188 370.433594 61.671875 377.914062 L 60.992188 379.089844 L 51.433594 379.132812 L 41.863281 379.160156 L 41.558594 376.984375 C 40.671875 370.460938 40.519531 365.210938 41.074219 358.796875 C 42.484375 342.1875 49.191406 326.5625 60.339844 313.832031 C 72.988281 299.371094 90.621094 290.050781 109.765625 287.679688 C 113.117188 287.265625 115.390625 287.140625 119.390625 287.140625 C 126.359375 287.140625 132.082031 287.832031 138.605469 289.46875 C 166.378906 296.433594 188.335938 318.238281 195.507812 345.984375 C 196.976562 351.648438 197.738281 357.011719 198.015625 363.535156 L 198.101562 365.863281 L 213.863281 365.863281 L 213.863281 365.042969 C 213.863281 363.507812 213.585938 358.574219 213.363281 356.441406 C 211.011719 332.535156 199.789062 310.703125 181.65625 294.71875 C 171.28125 285.574219 158.734375 278.734375 145.226562 274.867188 C 135.542969 272.082031 124.792969 270.878906 114.542969 271.40625 Z M 114.542969 271.40625 " fill-opacity="1" fill-rule="nonzero"/></g><g fill="#000000" fill-opacity="1"><g transform="translate(229.298797, 366.086633)"><g><path d="M 39.125 -14.109375 L 37.109375 -8.140625 L 35.09375 -14.109375 L 18.140625 -59.78125 L 7.140625 -59.78125 L 7.140625 0 L 14.28125 0 L 14.28125 -39.640625 L 14.015625 -50.46875 L 17.96875 -41.0625 L 33.421875 0 L 40.8125 0 L 55.078125 -39.71875 L 59.359375 -50.375 L 59.203125 -39.640625 L 59.203125 0 L 66.328125 0 L 66.328125 -59.78125 L 55.5 -59.78125 Z M 39.125 -14.109375 "/></g></g></g><g fill="#000000" fill-opacity="1"><g transform="translate(296.478294, 366.086633)"><g><path d="M 57.609375 0 L 34.515625 -59.78125 L 25.6875 -59.78125 L 2.515625 0 L 10.828125 0 L 17.296875 -17.546875 L 42.65625 -17.546875 L 48.953125 0 Z M 28.125 -47.015625 L 30.140625 -53.234375 L 32.078125 -47.015625 L 40.21875 -24.34375 L 19.8125 -24.34375 Z M 28.125 -47.015625 "/></g></g></g><g fill="#000000" fill-opacity="1"><g transform="translate(350.305865, 366.086633)"><g><path d="M 51.640625 -19.0625 C 51.046875 -24.609375 47.6875 -28.046875 42.484375 -29.046875 C 48.78125 -30.8125 53.15625 -36.28125 53.15625 -44 C 53.15625 -53.578125 46.265625 -59.78125 34.84375 -59.78125 L 7.140625 -59.78125 L 7.140625 0 L 14.953125 0 L 14.953125 -25.78125 L 33.421875 -25.78125 C 40.390625 -25.78125 43.40625 -23 44.171875 -15.953125 L 45.9375 0 L 53.828125 0 Z M 14.953125 -32.578125 L 14.953125 -52.984375 L 33.5 -52.984375 C 41.0625 -52.984375 45.171875 -49.546875 45.171875 -43.25 C 45.171875 -36.4375 40.3125 -32.578125 32.15625 -32.578125 Z M 14.953125 -32.578125 "/></g></g></g><g fill="#000000" fill-opacity="1"><g transform="translate(404.133441, 366.086633)"><g><path d="M 55.75 -59.78125 L 45.34375 -59.78125 L 14.953125 -30.484375 L 14.953125 -59.78125 L 7.140625 -59.78125 L 7.140625 0 L 14.953125 0 L 14.953125 -20.90625 L 25.015625 -30.734375 L 32.65625 -20.328125 L 47.6875 0 L 57.4375 0 L 30.484375 -35.6875 Z M 55.75 -59.78125 "/></g></g></g><g fill="#000000" fill-opacity="1"><g transform="translate(457.803319, 366.086633)"><g/></g></g><g fill="#000000" fill-opacity="1"><g transform="translate(474.178318, 366.086633)"><g/></g></g><g fill="#000000" fill-opacity="1"><g transform="translate(490.558953, 366.086633)"><g><path d="M 27.453125 -59.78125 L 7.140625 -59.78125 L 7.140625 0 L 25.78125 0 C 46.015625 0 55 -11.84375 55 -29.890625 C 55 -48.28125 46.34375 -59.78125 27.453125 -59.78125 Z M 14.953125 -6.796875 L 14.953125 -52.984375 L 25.4375 -52.984375 C 40.3125 -52.984375 47.015625 -45.765625 47.015625 -29.890625 C 47.015625 -14.359375 40.640625 -6.796875 25.015625 -6.796875 Z M 14.953125 -6.796875 "/></g></g></g><g fill="#000000" fill-opacity="1"><g transform="translate(544.134602, 366.086633)"><g><path d="M 14.953125 -27.375 L 46.765625 -27.375 L 46.765625 -34.171875 L 14.953125 -34.171875 L 14.953125 -52.984375 L 49.453125 -52.984375 L 49.453125 -59.78125 L 7.140625 -59.78125 L 7.140625 0 L 50.21875 0 L 50.21875 -6.796875 L 14.953125 -6.796875 Z M 14.953125 -27.375 "/></g></g></g><g fill="#000000" fill-opacity="1"><g transform="translate(593.511537, 366.086633)"><g><path d="M 32.40625 1.421875 C 46.4375 1.421875 55.671875 -7.390625 57.6875 -21.75 L 49.96875 -21.75 C 48.53125 -11 42.0625 -5.546875 32.65625 -5.546875 C 20.484375 -5.546875 13.34375 -14.953125 13.34375 -29.890625 C 13.34375 -44.84375 20.578125 -53.90625 32.65625 -53.90625 C 40.890625 -53.90625 47.109375 -49.625 48.953125 -41.734375 L 56.9375 -41.734375 C 55.078125 -53.484375 44.84375 -60.875 32.328125 -60.875 C 15.875 -60.875 5.375 -48.203125 5.375 -29.890625 C 5.375 -11.75 15.625 1.421875 32.40625 1.421875 Z M 32.40625 1.421875 "/></g></g></g><g fill="#000000" fill-opacity="1"><g transform="translate(648.682697, 366.086633)"><g><path d="M 33.59375 1.421875 C 50.375 1.421875 61.890625 -11.421875 61.890625 -29.890625 C 61.890625 -48.03125 50.375 -60.875 33.59375 -60.875 C 16.875 -60.875 5.375 -48.03125 5.375 -29.890625 C 5.375 -11.59375 16.875 1.421875 33.59375 1.421875 Z M 33.671875 -5.546875 C 21.75 -5.546875 13.34375 -15.03125 13.34375 -29.890625 C 13.34375 -44.59375 21.75 -53.90625 33.671875 -53.90625 C 45.515625 -53.90625 53.90625 -44.59375 53.90625 -29.890625 C 53.90625 -14.859375 45.671875 -5.546875 33.671875 -5.546875 Z M 33.671875 -5.546875 "/></g></g></g><g fill="#000000" fill-opacity="1"><g transform="translate(709.648088, 366.086633)"><g><path d="M 51.640625 -19.0625 C 51.046875 -24.609375 47.6875 -28.046875 42.484375 -29.046875 C 48.78125 -30.8125 53.15625 -36.28125 53.15625 -44 C 53.15625 -53.578125 46.265625 -59.78125 34.84375 -59.78125 L 7.140625 -59.78125 L 7.140625 0 L 14.953125 0 L 14.953125 -25.78125 L 33.421875 -25.78125 C 40.390625 -25.78125 43.40625 -23 44.171875 -15.953125 L 45.9375 0 L 53.828125 0 Z M 14.953125 -32.578125 L 14.953125 -52.984375 L 33.5 -52.984375 C 41.0625 -52.984375 45.171875 -49.546875 45.171875 -43.25 C 45.171875 -36.4375 40.3125 -32.578125 32.15625 -32.578125 Z M 14.953125 -32.578125 "/></g></g></g><g fill="#000000" fill-opacity="1"><g transform="translate(231.671734, 423.014367)"><g><path d="M 20.828125 -39.234375 L 4.6875 -39.234375 L 4.6875 0 L 9.8125 0 L 9.8125 -16.359375 L 20.71875 -16.359375 C 28.3125 -16.359375 33.4375 -20.21875 33.4375 -27.984375 C 33.4375 -35.484375 28.421875 -39.234375 20.828125 -39.234375 Z M 9.8125 -20.828125 L 9.8125 -34.765625 L 20.546875 -34.765625 C 25.390625 -34.765625 28.3125 -32.609375 28.3125 -27.9375 C 28.3125 -23.296875 25.515625 -20.828125 20.828125 -20.828125 Z M 9.8125 -20.828125 "/></g></g></g><g fill="#000000" fill-opacity="1"><g transform="translate(263.351749, 423.014367)"><g><path d="M 17.90625 -29.203125 C 13.609375 -29.203125 10.859375 -26.78125 9.140625 -22.96875 L 9.140625 -28.421875 L 4.40625 -28.421875 L 4.40625 0 L 9.46875 0 L 9.46875 -15.53125 C 9.703125 -21.328125 13.890625 -24.234375 17.625 -24.234375 C 18.125 -24.234375 18.671875 -24.234375 19.453125 -24.1875 L 19.453125 -29.09375 C 18.953125 -29.140625 18.453125 -29.203125 17.90625 -29.203125 Z M 17.90625 -29.203125 "/></g></g></g><g fill="#000000" fill-opacity="1"><g transform="translate(279.494545, 423.014367)"><g><path d="M 29.140625 -14.875 C 29.140625 -23.75 24.125 -29.09375 16.140625 -29.09375 C 7.65625 -29.09375 2.75 -23.03125 2.75 -14.328125 C 2.75 -5.5625 7.765625 0.65625 16.25 0.65625 C 22.3125 0.65625 26.9375 -2.53125 28.765625 -8.09375 L 24.125 -8.65625 C 22.8125 -5.34375 20.390625 -3.46875 16.421875 -3.46875 C 11.296875 -3.46875 7.984375 -6.609375 7.828125 -13 L 29.140625 -13 Z M 16.203125 -24.953125 C 20.828125 -24.953125 23.75 -22.03125 24.40625 -16.640625 L 7.875 -16.640625 C 8.375 -22.203125 11.6875 -24.953125 16.203125 -24.953125 Z M 16.203125 -24.953125 "/></g></g></g><g fill="#000000" fill-opacity="1"><g transform="translate(307.262711, 423.014367)"><g><path d="M 34.59375 -29.140625 C 30.46875 -29.140625 27.4375 -27.484375 25.5625 -24.1875 C 24.296875 -27.4375 21.546875 -29.140625 17.6875 -29.140625 C 13.78125 -29.140625 11.015625 -27.4375 9.140625 -24.40625 L 9.140625 -28.421875 L 4.40625 -28.421875 L 4.40625 0 L 9.46875 0 L 9.46875 -15.15625 C 9.46875 -22.484375 13.109375 -24.734375 16.421875 -24.734375 C 19.5625 -24.734375 21.328125 -22.75 21.328125 -19.453125 L 21.328125 0 L 26.390625 0 L 26.390625 -15.421875 C 26.390625 -22.75 30.03125 -24.734375 33.328125 -24.734375 C 36.46875 -24.734375 38.234375 -22.75 38.234375 -19.453125 L 38.234375 0 L 43.296875 0 L 43.296875 -19.5 C 43.296875 -26.109375 40.15625 -29.140625 34.59375 -29.140625 Z M 34.59375 -29.140625 "/></g></g></g><g fill="#000000" fill-opacity="1"><g transform="translate(350.843569, 423.014367)"><g><path d="M 9.46875 -33.765625 L 9.46875 -39.234375 L 4.40625 -39.234375 L 4.40625 -33.765625 Z M 9.46875 0 L 9.46875 -28.421875 L 4.40625 -28.421875 L 4.40625 0 Z M 9.46875 0 "/></g></g></g><g fill="#000000" fill-opacity="1"><g transform="translate(360.595172, 423.014367)"><g><path d="M 23.25 -12.609375 C 23.25 -5.84375 19.0625 -3.6875 15.15625 -3.6875 C 11.296875 -3.6875 9.46875 -5.78125 9.46875 -9.703125 L 9.46875 -28.421875 L 4.40625 -28.421875 L 4.40625 -8.703125 C 4.40625 -2.703125 8.09375 0.71875 14.046875 0.71875 C 18.234375 0.71875 21.65625 -0.984375 23.578125 -4.015625 L 23.578125 0 L 28.3125 0 L 28.3125 -28.421875 L 23.25 -28.421875 Z M 23.25 -12.609375 "/></g></g></g><g fill="#000000" fill-opacity="1"><g transform="translate(389.189779, 423.014367)"><g><path d="M 34.59375 -29.140625 C 30.46875 -29.140625 27.4375 -27.484375 25.5625 -24.1875 C 24.296875 -27.4375 21.546875 -29.140625 17.6875 -29.140625 C 13.78125 -29.140625 11.015625 -27.4375 9.140625 -24.40625 L 9.140625 -28.421875 L 4.40625 -28.421875 L 4.40625 0 L 9.46875 0 L 9.46875 -15.15625 C 9.46875 -22.484375 13.109375 -24.734375 16.421875 -24.734375 C 19.5625 -24.734375 21.328125 -22.75 21.328125 -19.453125 L 21.328125 0 L 26.390625 0 L 26.390625 -15.421875 C 26.390625 -22.75 30.03125 -24.734375 33.328125 -24.734375 C 36.46875 -24.734375 38.234375 -22.75 38.234375 -19.453125 L 38.234375 0 L 43.296875 0 L 43.296875 -19.5 C 43.296875 -26.109375 40.15625 -29.140625 34.59375 -29.140625 Z M 34.59375 -29.140625 "/></g></g></g><g fill="#000000" fill-opacity="1"><g transform="translate(432.774461, 423.014367)"><g/></g></g><g fill="#000000" fill-opacity="1"><g transform="translate(443.517796, 423.014367)"><g/></g></g><g fill="#000000" fill-opacity="1"><g transform="translate(454.271807, 423.014367)"><g><path d="M 18.84375 0.828125 C 29.703125 0.828125 34 -4.578125 34 -10.796875 C 34 -16.90625 30.03125 -20.390625 22.75 -21.921875 L 15.859375 -23.421875 C 10.96875 -24.46875 9.03125 -26.21875 9.03125 -29.3125 C 9.03125 -33.4375 12.34375 -35.8125 17.953125 -35.8125 C 23.96875 -35.8125 27.4375 -33.171875 27.875 -28.203125 L 32.78125 -28.203125 C 32.125 -35.75 26.828125 -40 18.125 -40 C 9.09375 -40 4.1875 -35.484375 4.1875 -28.875 C 4.1875 -22.640625 8.8125 -20 15.203125 -18.671875 L 20.71875 -17.515625 C 26.828125 -16.25 29.03125 -14.21875 29.03125 -10.515625 C 29.03125 -6.109375 25.734375 -3.359375 19 -3.359375 C 12.234375 -3.359375 8.265625 -6.171875 7.71875 -12.671875 L 2.8125 -12.671875 C 3.46875 -3.640625 9.03125 0.828125 18.84375 0.828125 Z M 18.84375 0.828125 "/></g></g></g><g fill="#000000" fill-opacity="1"><g transform="translate(486.943561, 423.014367)"><g><path d="M 16.421875 0.71875 C 24.40625 0.71875 30.140625 -5.515625 30.140625 -14.4375 C 30.140625 -23.46875 24.515625 -29.140625 16.578125 -29.140625 C 8.421875 -29.140625 2.75 -23.359375 2.75 -14.21875 C 2.75 -5.28125 8.265625 0.71875 16.421875 0.71875 Z M 16.421875 -3.53125 C 11.078125 -3.53125 7.828125 -7.765625 7.828125 -14.21875 C 7.828125 -20.65625 11.015625 -24.90625 16.421875 -24.90625 C 21.921875 -24.90625 25.0625 -20.875 25.0625 -14.4375 C 25.0625 -7.984375 21.921875 -3.53125 16.421875 -3.53125 Z M 16.421875 -3.53125 "/></g></g></g><g fill="#000000" fill-opacity="1"><g transform="translate(515.703453, 423.014367)"><g><path d="M 9.46875 0 L 9.46875 -39.234375 L 4.40625 -39.234375 L 4.40625 0 Z M 9.46875 0 "/></g></g></g><g fill="#000000" fill-opacity="1"><g transform="translate(525.455062, 423.014367)"><g><path d="M 9.46875 -33.765625 L 9.46875 -39.234375 L 4.40625 -39.234375 L 4.40625 -33.765625 Z M 9.46875 0 L 9.46875 -28.421875 L 4.40625 -28.421875 L 4.40625 0 Z M 9.46875 0 "/></g></g></g><g fill="#000000" fill-opacity="1"><g transform="translate(535.206666, 423.014367)"><g><path d="M 23.640625 -25.015625 C 21.8125 -27.484375 18.734375 -29.03125 15.046875 -29.03125 C 7.828125 -29.03125 2.75 -23.25 2.75 -14.65625 C 2.75 -5.84375 7.4375 0.609375 15.15625 0.609375 C 19.28125 0.609375 22.59375 -1.546875 24.296875 -4.515625 L 24.296875 0 L 28.703125 0 L 28.703125 -39.234375 L 23.640625 -39.234375 Z M 15.640625 -3.75 C 10.75 -3.75 7.828125 -8.046875 7.828125 -14.65625 C 7.828125 -21.15625 10.859375 -24.6875 15.75 -24.6875 C 20.5 -24.6875 23.90625 -21.265625 23.90625 -14.546875 C 23.90625 -7.828125 20.390625 -3.75 15.640625 -3.75 Z M 15.640625 -3.75 "/></g></g></g><g fill="#000000" fill-opacity="1"><g transform="translate(564.195314, 423.014367)"><g/></g></g><g fill="#000000" fill-opacity="1"><g transform="translate(574.938649, 423.014367)"><g/></g></g><g fill="#000000" fill-opacity="1"><g transform="translate(585.692659, 423.014367)"><g><path d="M 18.84375 0.828125 C 29.703125 0.828125 34 -4.578125 34 -10.796875 C 34 -16.90625 30.03125 -20.390625 22.75 -21.921875 L 15.859375 -23.421875 C 10.96875 -24.46875 9.03125 -26.21875 9.03125 -29.3125 C 9.03125 -33.4375 12.34375 -35.8125 17.953125 -35.8125 C 23.96875 -35.8125 27.4375 -33.171875 27.875 -28.203125 L 32.78125 -28.203125 C 32.125 -35.75 26.828125 -40 18.125 -40 C 9.09375 -40 4.1875 -35.484375 4.1875 -28.875 C 4.1875 -22.640625 8.8125 -20 15.203125 -18.671875 L 20.71875 -17.515625 C 26.828125 -16.25 29.03125 -14.21875 29.03125 -10.515625 C 29.03125 -6.109375 25.734375 -3.359375 19 -3.359375 C 12.234375 -3.359375 8.265625 -6.171875 7.71875 -12.671875 L 2.8125 -12.671875 C 3.46875 -3.640625 9.03125 0.828125 18.84375 0.828125 Z M 18.84375 0.828125 "/></g></g></g><g fill="#000000" fill-opacity="1"><g transform="translate(618.364414, 423.014367)"><g><path d="M 23.25 -12.609375 C 23.25 -5.84375 19.0625 -3.6875 15.15625 -3.6875 C 11.296875 -3.6875 9.46875 -5.78125 9.46875 -9.703125 L 9.46875 -28.421875 L 4.40625 -28.421875 L 4.40625 -8.703125 C 4.40625 -2.703125 8.09375 0.71875 14.046875 0.71875 C 18.234375 0.71875 21.65625 -0.984375 23.578125 -4.015625 L 23.578125 0 L 28.3125 0 L 28.3125 -28.421875 L 23.25 -28.421875 Z M 23.25 -12.609375 "/></g></g></g><g fill="#000000" fill-opacity="1"><g transform="translate(646.959023, 423.014367)"><g><path d="M 17.90625 -29.203125 C 13.609375 -29.203125 10.859375 -26.78125 9.140625 -22.96875 L 9.140625 -28.421875 L 4.40625 -28.421875 L 4.40625 0 L 9.46875 0 L 9.46875 -15.53125 C 9.703125 -21.328125 13.890625 -24.234375 17.625 -24.234375 C 18.125 -24.234375 18.671875 -24.234375 19.453125 -24.1875 L 19.453125 -29.09375 C 18.953125 -29.140625 18.453125 -29.203125 17.90625 -29.203125 Z M 17.90625 -29.203125 "/></g></g></g><g fill="#000000" fill-opacity="1"><g transform="translate(663.101821, 423.014367)"><g><path d="M 18.34375 -34.984375 L 18.34375 -39.234375 L 15.3125 -39.234375 C 9.359375 -39.234375 6.78125 -36.640625 6.78125 -30.6875 L 6.78125 -28.265625 L 2.203125 -28.421875 L 2.203125 -24.515625 L 6.78125 -24.734375 L 6.78125 0 L 11.84375 0 L 11.84375 -24.734375 L 18.34375 -24.515625 L 18.34375 -28.421875 L 11.84375 -28.203125 L 11.84375 -31.40625 C 11.84375 -34.109375 12.734375 -34.984375 15.421875 -34.984375 Z M 18.34375 -34.984375 "/></g></g></g><g fill="#000000" fill-opacity="1"><g transform="translate(678.693647, 423.014367)"><g><path d="M 29.46875 -3.75 C 27.609375 -3.75 27 -4.359375 27 -6.21875 L 27 -20.109375 C 27 -26.328125 22.921875 -29.203125 15.859375 -29.203125 C 8.546875 -29.203125 4.515625 -26.21875 4.015625 -19.9375 L 9.03125 -19.9375 C 9.359375 -23.75 11.40625 -25.015625 15.484375 -25.015625 C 19.890625 -25.015625 21.875 -23.578125 21.875 -20.609375 L 21.875 -19.5 C 21.875 -18.1875 21.21875 -17.515625 19.828125 -17.359375 L 12.5625 -16.421875 C 5.671875 -15.53125 2.859375 -12.234375 2.859375 -7.546875 C 2.859375 -2.3125 6.609375 0.71875 12.390625 0.71875 C 17.25 0.71875 20.875 -1.4375 22.703125 -4.1875 C 22.921875 -1.375 24.578125 0 27.609375 0 L 30.296875 0 L 30.296875 -3.75 Z M 13.328125 -3.203125 C 10.03125 -3.203125 7.875 -4.84375 7.875 -7.765625 C 7.875 -10.296875 9.421875 -12.0625 13.390625 -12.671875 L 21.875 -13.9375 L 21.875 -9.96875 C 21.875 -6.328125 17.90625 -3.203125 13.328125 -3.203125 Z M 13.328125 -3.203125 "/></g></g></g><g fill="#000000" fill-opacity="1"><g transform="translate(705.965938, 423.014367)"><g><path d="M 15.921875 0.71875 C 23.078125 0.71875 27.21875 -3.25 28.203125 -9.921875 L 23.46875 -9.921875 C 22.703125 -5.890625 20.390625 -3.53125 16.203125 -3.53125 C 10.796875 -3.53125 7.828125 -7.5 7.828125 -14.21875 C 7.828125 -20.9375 10.515625 -24.90625 16.25 -24.90625 C 20.21875 -24.90625 22.640625 -22.96875 23.421875 -19.125 L 28.203125 -19.125 C 27.21875 -25.671875 22.75 -29.140625 16.203125 -29.140625 C 7.984375 -29.140625 2.75 -23.578125 2.75 -14 C 2.75 -4.40625 7.984375 0.71875 15.921875 0.71875 Z M 15.921875 0.71875 "/></g></g></g><g fill="#000000" fill-opacity="1"><g transform="translate(732.521967, 423.014367)"><g><path d="M 29.140625 -14.875 C 29.140625 -23.75 24.125 -29.09375 16.140625 -29.09375 C 7.65625 -29.09375 2.75 -23.03125 2.75 -14.328125 C 2.75 -5.5625 7.765625 0.65625 16.25 0.65625 C 22.3125 0.65625 26.9375 -2.53125 28.765625 -8.09375 L 24.125 -8.65625 C 22.8125 -5.34375 20.390625 -3.46875 16.421875 -3.46875 C 11.296875 -3.46875 7.984375 -6.609375 7.828125 -13 L 29.140625 -13 Z M 16.203125 -24.953125 C 20.828125 -24.953125 23.75 -22.03125 24.40625 -16.640625 L 7.875 -16.640625 C 8.375 -22.203125 11.6875 -24.953125 16.203125 -24.953125 Z M 16.203125 -24.953125 "/></g></g></g></svg>