<svg xmlns="http://www.w3.org/2000/svg" viewBox="0 0 230.5 80.8"><title>Element 1</title><circle cx="124.9" cy="54.4" r="2.4" style="fill:#4d4d4d"/><path d="M220.9,56.8a2.4,2.4,0,1,1,2.4-2.4A2.4,2.4,0,0,1,220.9,56.8Z" style="fill:#4d4d4d"/><polygon points="51.6 80.7 35.6 80.7 35.6 80.7 35.7 52.9 51.6 52.9 51.6 56.2 39.2 56.2 39.2 63.7 51.6 63.6 51.6 67.4 51.6 67.4 39.2 67.4 39.2 77 51.6 77 51.6 80.7" style="fill:#4d4d4d"/><polygon points="80.9 59.9 80.9 52.4 79.1 52.4 77.3 52.4 77.3 59.9 74 59.9 74 62.8 77.3 62.8 77.3 80.7 79.1 80.7 80.9 80.7 80.9 62.8 84.2 62.8 84.2 59.9 80.9 59.9" style="fill:#4d4d4d"/><polygon points="126.5 80.4 123.6 80.4 123.6 80.4 123.3 60 126.5 60 126.5 80.4" style="fill:#4d4d4d"/><path d="M222.5,80.4h-2.9L219.2,60h3.2Z" style="fill:#4d4d4d"/><path d="M205.3,59.2A10.6,10.6,0,1,0,216,69.8,10.6,10.6,0,0,0,205.3,59.2Zm0,18.1a7.4,7.4,0,1,1,7.4-7.4A7.4,7.4,0,0,1,205.3,77.2Z" style="fill:#4d4d4d"/><path d="M141,59.2a10.6,10.6,0,1,0,10.6,10.6A10.6,10.6,0,0,0,141,59.2Zm0,18.1a7.4,7.4,0,1,1,7.4-7.4A7.4,7.4,0,0,1,141,77.2Z" style="fill:#4d4d4d"/><path d="M178.2,80.4h3V67.1h10.3V63.7H181.1V56.3h10.4V52.9H177.8Z" style="fill:#4d4d4d"/><rect x="226.6" y="52.2" width="3.8" height="28.46" style="fill:#4d4d4d"/><path d="M121.4,59.6a8.3,8.3,0,0,0-2.7-.3,6.1,6.1,0,0,0-4.7,2.4V60h-3.2l.3,20.5H114V68.8a7,7,0,0,1,1.4-4.3,4.4,4.4,0,0,1,3.2-1.8h1.9l.9-3Z" style="fill:#4d4d4d"/><path d="M157.9,80.4H155L154.6,60h3.2v1.6a6.1,6.1,0,0,1,4.7-2.4h.3a8.3,8.3,0,0,1,2.4.3h0l-.9,3h-1.9a4.4,4.4,0,0,0-3.2,1.8,7,7,0,0,0-1.4,4.3Z" style="fill:#4d4d4d"/><path d="M97,59.2a10.6,10.6,0,1,0,9.6,15.2h0l-2.9-1.5h0a7.4,7.4,0,0,1-14-2h17.9a10.8,10.8,0,0,0,.1-1.1A10.6,10.6,0,0,0,97,59.2ZM90,67.6a7.4,7.4,0,0,1,14.1,0Z" style="fill:#4d4d4d"/><polygon points="53.3 59.6 58 59.6 62.8 66.3 67.5 59.6 72.3 59.6 65.1 69.8 73 80.8 68.5 80.8 62.8 72.8 57.2 80.8 52.7 80.8 60.5 69.8 53.3 59.6" style="fill:#4d4d4d"/><polygon points="26.9 0 26.9 10.5 52.3 25.5 52.3 20.3 26.9 0" style="fill:#4d4d4d"/><path d="M8.9,26.1" style="fill:#4d4d4d"/><polygon points="25.5 0 25.5 10.5 0 25.5 0 20.3 25.5 0" style="fill:#4d4d4d"/><path d="M5.2,24.6V46.3L25.5,56.8v-44Zm17.9,9.1H14.8V22.5l8.2-4.4ZM13,23.4V33.7H7.5V26.3ZM7.4,35.5H13V46.5L7.4,43.6Zm7.4,11.9V35.5h8.2V51.6Z" style="fill:#4d4d4d"/><polygon points="47.9 43.9 46.3 43.9 46.3 37.5 38.5 37.5 38.5 43.9 36.9 43.9 36.9 31.5 38.5 31.5 38.5 35.6 46.3 35.6 46.3 31.5 47.9 31.5 47.9 43.9" style="fill:#4d4d4d"/><path d="M110.2,39.4h-2.8l-1.4.2a1.3,1.3,0,0,0-.7,1.3,1.2,1.2,0,0,0,.7,1.2l1.4.2h2.4a3,3,0,0,0,1.7-.4,1.4,1.4,0,0,0,.5-1.2q-.1-1.3-1.7-1.3m-5.6-4.9h5.3a3.6,3.6,0,0,1,3.2,1.4c.8,1.2.6,2.8.6,4.1v1.4a3.1,3.1,0,0,1-.6,1.8,1.8,1.8,0,0,1-1.5.8h-4.4a5,5,0,0,1-2.6-.5,3,3,0,0,1-1-2.7h0a2.8,2.8,0,0,1,1.1-2.5,5,5,0,0,1,2.6-.5h4.6a1.4,1.4,0,0,0-.6-1.3,3.1,3.1,0,0,0-1.5-.3h-5.2Z" style="fill:#4d4d4d"/><path d="M67.9,34.6a3.6,3.6,0,0,1,3.8,3.9v5.5H70.1V38.4a1.8,1.8,0,0,0-.6-1.5,2.2,2.2,0,0,0-1.7-.7H66.2a2.2,2.2,0,0,0-1.7.7,1.8,1.8,0,0,0-.6,1.5v5.5H62.3V38.4a3.6,3.6,0,0,1,3.8-3.9Z" style="fill:#4d4d4d"/><path d="M88.4,34.6v5.3a1.8,1.8,0,0,1-.6,1.5,2.2,2.2,0,0,1-1.7.7h-1a2.2,2.2,0,0,1-1.7-.7,1.8,1.8,0,0,1-.6-1.5V34.6H81.1v5.3a1.8,1.8,0,0,1-.6,1.5,2.2,2.2,0,0,1-1.7.7h-1a2.2,2.2,0,0,1-1.7-.7,1.8,1.8,0,0,1-.6-1.5V34.6H73.8V40a3.6,3.6,0,0,0,3.8,3.9h1.3a3.6,3.6,0,0,0,2.8-1.1l.2-.3.2.3a3.6,3.6,0,0,0,2.8,1.1h1.3A3.6,3.6,0,0,0,90.1,40V34.6Z" style="fill:#4d4d4d"/><path d="M100.6,35.6a3.6,3.6,0,0,0-2.8-1.1H96a4,4,0,0,0-2.2.6V31.4H92.2V43.9h1.7V38.4a1.8,1.8,0,0,1,.6-1.5,2.2,2.2,0,0,1,1.7-.7h1.5a2.2,2.2,0,0,1,1.7.7,1.8,1.8,0,0,1,.6,1.5v5.5h1.6V38.4A3.7,3.7,0,0,0,100.6,35.6Z" style="fill:#4d4d4d"/><path d="M56.8,39.4H53.9l-1.4.2a1.3,1.3,0,0,0-.7,1.3,1.2,1.2,0,0,0,.7,1.2l1.4.2h2.4a3,3,0,0,0,1.8-.4,1.4,1.4,0,0,0,.5-1.2c0-.9-.6-1.3-1.7-1.3m-5.6-4.9h5.3a3.6,3.6,0,0,1,3.2,1.4c.8,1.2.6,2.8.6,4.1v1.4a3.1,3.1,0,0,1-.6,1.8,1.8,1.8,0,0,1-1.5.8H53.8a5,5,0,0,1-2.6-.5,3,3,0,0,1-1-2.7h0a2.8,2.8,0,0,1,1.1-2.5,5,5,0,0,1,2.6-.5h4.6a1.4,1.4,0,0,0-.6-1.3,3.1,3.1,0,0,0-1.5-.3H51.1Z" style="fill:#4d4d4d"/></svg>